<?xml version="1.0" standalone="no"?>
<!DOCTYPE svg PUBLIC "-//W3C//DTD SVG 20010904//EN"
 "http://www.w3.org/TR/2001/REC-SVG-20010904/DTD/svg10.dtd">
<svg version="1.0" xmlns="http://www.w3.org/2000/svg"
 width="784.000000pt" height="1168.000000pt" viewBox="0 0 784.000000 1168.000000"
 preserveAspectRatio="xMidYMid meet">

<g transform="translate(0.000000,1168.000000) scale(0.100000,-0.100000)"
fill="#000000" stroke="none">
<path d="M0 8764 l0 -2917 51 7 c28 4 62 14 76 23 13 9 46 16 73 17 28 1 50 5
50 9 0 5 9 5 20 2 11 -3 20 -2 20 3 0 6 17 10 38 10 44 1 80 6 104 15 54 21
75 26 113 29 11 1 23 6 26 10 3 5 22 11 43 13 21 3 46 10 57 15 11 6 24 8 28
5 11 -6 101 16 96 24 -2 3 9 6 23 7 47 1 217 27 222 33 32 39 90 20 90 -29 0
-16 6 -30 13 -32 7 -3 15 -36 19 -89 9 -107 29 -201 57 -264 38 -88 94 -196
98 -191 4 3 -18 116 -53 271 -21 95 -53 309 -64 428 -14 148 -49 370 -76 487
-14 58 -32 133 -40 168 -9 35 -16 77 -17 95 -2 18 -5 37 -8 42 -4 6 -6 38 -7
73 0 67 -7 86 -22 62 -14 -22 -13 6 1 32 8 15 8 22 0 27 -7 5 -8 17 -2 39 6
18 6 32 1 32 -5 0 -12 17 -16 38 -3 20 -13 42 -22 49 -12 10 -13 15 -3 27 10
11 10 20 1 37 -7 11 -10 34 -8 51 3 16 1 31 -4 34 -4 3 -8 29 -8 59 0 30 -5
57 -11 60 -6 4 -9 21 -8 39 2 17 1 36 -3 41 -6 12 -4 42 6 73 5 14 3 22 -4 22
-7 0 -9 8 -5 21 6 18 5 20 -14 10 -27 -15 -26 -11 4 49 24 46 44 110 66 205 5
22 14 60 20 85 6 25 13 63 15 84 2 22 11 47 19 56 8 9 15 22 15 28 0 7 6 12
14 12 16 0 40 -26 33 -37 -2 -4 5 -17 15 -28 20 -20 20 -20 13 3 -6 21 -5 21
19 11 14 -7 26 -15 26 -20 0 -4 -18 -42 -39 -85 -41 -83 -39 -100 5 -65 42 33
54 28 42 -18 -6 -22 -19 -49 -29 -60 -11 -11 -15 -23 -9 -26 5 -3 7 -27 4 -53
-4 -39 -3 -43 6 -23 13 30 155 181 187 199 19 11 23 10 23 -2 0 -8 13 -23 29
-32 16 -9 28 -22 27 -28 -2 -6 -1 -8 1 -3 3 4 11 7 19 7 11 0 12 4 3 19 -7 10
-10 25 -6 33 6 18 59 28 80 16 9 -5 19 -2 27 7 7 8 22 15 34 15 11 1 32 7 46
15 14 8 31 14 38 15 16 0 16 -27 0 -33 -7 -3 8 -4 34 -2 36 3 48 0 50 -12 2
-11 11 -8 35 16 34 32 70 40 92 19 11 -10 13 -10 7 0 -8 13 -8 13 51 16 23 0
45 4 49 8 4 4 13 3 21 -3 10 -9 13 -8 13 0 0 7 4 9 10 6 13 -8 -18 -55 -37
-55 -8 0 -11 5 -8 10 3 6 2 10 -4 10 -16 0 -22 -18 -9 -23 15 -6 -23 -42 -62
-59 -14 -6 -20 -12 -13 -15 7 -2 21 0 32 6 11 6 28 8 38 5 15 -5 15 -4 3 5
-12 9 -10 11 13 11 16 0 26 -4 22 -10 -3 -5 -1 -10 5 -10 7 0 9 7 6 15 -3 9 1
18 9 21 8 4 12 10 9 15 -3 5 0 9 6 9 6 0 9 3 6 8 -2 4 2 16 10 27 10 13 14 15
14 4 0 -9 3 -10 8 -3 7 12 85 12 114 -1 9 -4 21 -4 26 -1 5 3 18 -2 28 -10 17
-14 17 -15 2 -10 -20 6 -25 -9 -5 -18 6 -4 2 -4 -10 -2 -12 2 -27 -2 -34 -10
-16 -19 35 -31 58 -13 12 10 15 11 9 1 -6 -9 0 -11 23 -7 18 3 31 1 31 -5 0
-10 -14 -14 -39 -11 -7 2 -10 -2 -6 -8 8 -14 48 -14 62 0 8 8 17 7 34 -2 13
-7 42 -14 64 -15 22 -1 41 -7 43 -13 2 -6 10 -11 18 -11 8 0 11 6 7 16 -5 13
-2 15 18 9 13 -4 27 -13 31 -19 5 -7 8 -7 8 -1 0 6 -6 17 -12 24 -11 10 -9 11
7 5 11 -4 28 -16 37 -28 10 -12 18 -16 18 -10 0 6 -7 17 -15 24 -22 19 -18 39
8 38 53 -3 77 2 77 18 0 12 7 14 31 9 24 -5 30 -4 24 5 -6 10 -1 11 17 7 27
-7 45 14 31 36 -4 7 2 5 12 -3 14 -11 19 -12 22 -2 3 6 21 12 41 12 41 0 71
14 54 24 -6 4 -22 4 -37 2 -36 -7 -31 11 5 19 19 4 36 2 46 -5 11 -10 18 -10
32 4 10 9 30 16 45 16 19 0 25 4 21 15 -7 16 48 45 86 45 11 0 20 5 20 11 0 5
5 7 10 4 5 -3 10 1 10 9 0 9 7 16 15 16 8 0 15 5 15 10 0 6 -8 10 -17 10 -12
0 -6 9 18 30 69 59 84 80 57 80 -11 0 26 36 43 42 5 2 11 14 14 27 2 14 10 28
17 33 10 6 8 8 -4 8 -10 0 -18 5 -18 11 0 6 9 9 20 6 11 -3 23 -1 26 4 3 5 -7
10 -23 10 -20 1 -23 3 -9 6 43 11 86 77 62 94 -4 4 1 16 13 28 11 11 21 26 21
32 0 6 7 3 16 -6 14 -13 19 -14 25 -4 4 8 3 16 -3 20 -6 4 -8 18 -4 33 4 15
11 24 16 21 5 -3 16 5 24 17 12 16 16 18 20 7 8 -26 4 -54 -12 -71 -17 -21 -4
-24 20 -5 17 13 30 63 29 115 -1 17 4 32 9 32 6 0 10 -8 10 -17 0 -21 20 -4
24 20 1 9 13 25 26 36 15 12 20 20 11 21 -9 0 -10 4 -4 13 15 21 35 86 28 97
-3 5 3 18 14 29 11 11 17 22 13 25 -3 3 -1 6 4 6 6 0 15 -5 22 -12 9 -9 12 -9
12 1 0 7 5 9 11 6 7 -5 6 -12 -4 -23 -8 -10 -17 -28 -20 -42 l-6 -25 21 25
c11 14 27 24 34 22 17 -4 18 20 2 36 -14 14 9 45 29 38 7 -3 13 -1 13 3 0 5
-6 12 -12 14 -7 3 -2 6 10 6 14 1 22 6 20 13 -6 16 16 38 36 38 8 0 18 5 22
11 3 6 15 9 25 6 12 -3 19 0 19 9 0 18 24 18 40 -1 13 -16 30 -20 30 -7 0 4
-12 15 -27 24 l-28 16 29 8 c21 5 26 11 23 26 -5 16 -3 17 9 7 9 -7 13 -21 10
-32 -4 -18 -4 -18 15 1 18 20 49 21 49 2 0 -4 11 -10 25 -12 14 -3 25 -1 25 3
0 13 38 11 45 -2 4 -6 13 -8 21 -5 8 3 14 1 14 -4 0 -6 3 -9 8 -7 4 1 8 -1 10
-6 5 -17 1 -27 -13 -27 -8 0 -15 -4 -15 -8 0 -5 30 -2 68 6 37 7 86 15 109 15
24 1 43 5 43 9 0 8 96 -18 123 -33 13 -7 23 -7 32 1 9 7 15 8 20 1 3 -6 -9
-17 -27 -26 -18 -8 -24 -13 -13 -9 73 21 118 11 131 -28 3 -10 10 -16 15 -12
12 7 7 -19 -5 -27 -5 -4 5 -10 22 -14 17 -3 33 -13 36 -21 3 -8 17 -19 31 -24
23 -9 25 -12 14 -32 -11 -21 -11 -22 4 -9 11 9 17 10 18 2 4 -35 26 -71 45
-71 12 0 13 -8 8 -35 -4 -22 -2 -35 5 -35 6 0 8 -6 5 -13 -3 -8 2 -20 11 -27
8 -7 15 -22 15 -34 0 -12 8 -32 17 -45 9 -14 11 -21 5 -17 -16 10 -15 0 4 -29
12 -18 15 -40 12 -80 -4 -44 -2 -53 8 -44 14 11 15 4 16 -106 0 -39 0 -40 9
-10 5 17 12 50 15 75 7 52 14 65 14 27 0 -20 5 -27 18 -27 10 0 22 -3 26 -7
10 -10 46 -11 46 -1 0 4 -5 8 -12 8 -6 0 -8 3 -5 7 6 6 30 -16 67 -62 14 -17
14 -18 -7 -7 -33 18 -48 15 -32 -5 10 -11 10 -14 2 -9 -25 14 -13 -1 19 -24
24 -17 30 -19 25 -7 -12 31 10 17 37 -23 21 -32 23 -38 8 -34 -9 3 -3 -3 13
-13 56 -33 95 -67 95 -82 0 -8 7 -22 15 -31 13 -15 13 -17 0 -17 -8 0 -33 20
-56 44 -42 45 -83 68 -100 57 -5 -3 -9 -2 -9 3 0 4 -11 9 -25 9 l-25 2 25 -20
c24 -18 36 -46 15 -33 -5 3 -10 1 -10 -5 0 -6 -6 -8 -12 -4 -10 5 -10 4 -2 -5
6 -7 20 -13 32 -14 11 0 18 -5 15 -10 -3 -4 -12 -5 -22 -2 -26 11 -82 14 -75
4 3 -5 12 -9 20 -9 8 0 13 -4 9 -9 -3 -5 0 -13 7 -17 8 -5 6 -10 -8 -15 -18
-7 -18 -8 4 -15 12 -3 22 -10 22 -15 0 -5 35 -46 77 -90 108 -113 124 -141 23
-41 -85 84 -147 126 -178 120 -12 -3 -4 -10 23 -23 l40 -20 -30 -5 -29 -5 27
-18 c31 -20 27 -48 -6 -39 -19 5 -20 3 -9 -11 8 -9 33 -25 57 -37 32 -16 42
-25 38 -39 -5 -19 -42 -24 -55 -6 -5 6 -8 4 -8 -5 0 -8 9 -21 21 -28 25 -16
18 -26 -19 -28 -42 -3 -44 -3 -37 -14 3 -5 15 -10 27 -10 14 0 18 -5 14 -15
-3 -9 1 -18 10 -22 14 -5 12 -8 -7 -19 l-24 -13 24 -1 c23 0 71 -41 71 -61 0
-5 13 -12 30 -15 18 -4 32 -15 36 -28 4 -11 20 -32 35 -45 16 -13 29 -30 29
-37 0 -8 7 -15 15 -15 36 -3 40 -5 39 -21 -1 -13 3 -15 20 -8 27 10 58 -17 35
-31 -7 -4 -10 -11 -6 -16 5 -4 11 -3 15 3 4 6 14 11 22 11 8 0 24 4 34 9 14 5
17 4 12 -4 -5 -8 -2 -10 8 -6 9 3 16 1 16 -5 0 -7 8 -11 18 -9 12 2 17 -3 16
-19 0 -18 3 -20 23 -12 18 7 28 4 43 -11 11 -11 25 -20 31 -20 14 0 39 -26 39
-41 0 -7 3 -10 6 -6 4 3 13 -1 22 -9 10 -10 12 -18 5 -22 -7 -4 -1 -15 15 -26
14 -11 22 -14 18 -8 -4 8 0 12 12 12 10 0 25 -11 32 -25 7 -13 17 -22 22 -19
4 3 8 -1 8 -9 0 -7 9 -23 20 -35 12 -13 16 -22 9 -22 -7 0 2 -13 19 -28 18
-16 32 -34 32 -40 0 -6 10 -18 23 -27 17 -12 19 -17 8 -24 -8 -5 -9 -11 -3
-15 6 -3 8 -15 5 -25 -3 -10 0 -22 6 -25 6 -4 11 -14 11 -22 0 -9 7 -22 15
-30 8 -8 11 -22 8 -31 -4 -11 -3 -14 5 -9 8 5 12 -2 12 -21 0 -16 5 -34 11
-40 6 -6 12 -41 15 -78 2 -38 6 -71 9 -73 3 -3 10 9 16 26 14 41 30 31 24 -14
-4 -30 -2 -35 12 -30 13 6 14 4 3 -10 -9 -10 -10 -18 -3 -22 15 -10 30 -63 27
-97 -2 -16 2 -35 7 -42 6 -6 8 -21 5 -33 -19 -67 -20 -67 8 -36 19 21 26 25
26 13 0 -10 -4 -17 -10 -17 -5 0 -10 -7 -10 -15 0 -8 5 -15 10 -15 6 0 10 -16
10 -35 0 -27 3 -33 16 -28 14 5 14 3 3 -15 -10 -17 -10 -24 4 -46 10 -14 13
-26 8 -26 -5 0 -12 6 -14 13 -4 9 -8 8 -16 -3 -16 -22 -8 -45 14 -43 19 1 19
1 3 -11 -10 -7 -18 -16 -18 -20 0 -15 -45 -45 -61 -40 -10 3 -20 -5 -28 -22
-6 -15 -10 -28 -9 -29 2 -1 16 -9 32 -17 27 -14 27 -15 7 -21 -11 -3 -19 -1
-15 4 3 5 0 9 -5 9 -6 0 -11 -4 -11 -10 0 -5 -4 -10 -10 -10 -5 0 -7 7 -4 15
4 8 1 15 -5 15 -6 0 -11 -9 -11 -21 0 -13 -4 -18 -12 -14 -7 4 -4 0 6 -9 10
-8 28 -14 40 -11 12 2 21 4 21 5 0 1 7 3 15 5 12 2 15 -7 15 -36 0 -27 -3 -38
-12 -35 -8 4 -10 -1 -4 -16 4 -12 16 -23 26 -24 12 -2 14 1 7 8 -13 13 -5 38
13 38 6 0 17 -10 24 -22 6 -13 9 -15 7 -5 -6 20 -1 22 20 5 32 -27 54 -52 54
-62 0 -6 -5 -4 -10 4 -8 12 -10 10 -10 -8 0 -13 -4 -21 -9 -17 -5 3 -12 1 -16
-4 -3 -6 3 -15 14 -20 16 -9 18 -16 10 -51 -10 -42 -6 -60 12 -60 6 0 6 8 -1
20 -8 16 -8 20 2 18 7 -2 12 4 10 13 -1 9 4 19 11 22 11 4 14 -5 12 -39 -1
-41 1 -47 29 -61 l31 -17 -25 -6 c-18 -4 -27 -2 -32 9 -4 9 -7 11 -7 4 -1 -9
-9 -9 -31 -1 -24 8 -29 15 -25 29 5 15 2 18 -18 17 -23 -2 -24 -4 -14 -33 13
-40 14 -40 34 -24 15 12 16 12 10 -3 -4 -12 -2 -15 8 -11 8 3 18 -2 21 -11 10
-25 -4 -31 -25 -12 -11 10 -25 15 -30 11 -20 -11 -12 -22 29 -38 22 -8 40 -21
40 -27 0 -6 -4 -8 -10 -5 -5 3 -10 -1 -10 -10 0 -12 -5 -15 -16 -11 -9 3 -18
6 -21 6 -3 0 0 7 7 15 8 9 9 15 2 15 -6 0 -18 -10 -26 -22 -14 -19 -14 -23 -1
-30 20 -12 7 -41 -16 -35 -11 3 -16 1 -13 -4 3 -5 -2 -16 -10 -25 -15 -15 -21
-8 -17 19 0 4 -10 7 -23 7 -14 0 -27 4 -30 9 -3 4 -17 6 -31 3 -20 -3 -23 -7
-14 -18 6 -8 8 -22 4 -31 -6 -16 -10 -14 -31 12 -13 17 -24 25 -24 18 0 -6 5
-15 10 -18 14 -8 13 -45 -1 -45 -6 0 -9 6 -6 14 4 9 -3 16 -19 19 -17 3 -24 0
-24 -12 0 -24 15 -42 31 -38 8 2 11 2 7 0 -14 -8 -9 -33 7 -39 8 -4 12 -10 9
-16 -3 -5 -11 -4 -20 3 -10 8 -14 8 -14 0 0 -6 -9 -11 -20 -11 -11 0 -20 5
-20 10 0 6 -7 10 -15 10 -8 0 -15 -7 -15 -15 0 -25 -24 -17 -59 21 -19 21 -36
32 -40 27 -3 -6 -19 -9 -35 -7 -27 3 -27 2 -11 -16 15 -17 16 -21 2 -34 -13
-13 -17 -13 -38 2 l-23 16 22 -35 c12 -20 18 -40 14 -44 -4 -5 -2 -5 4 -2 7 4
14 -1 16 -11 6 -22 67 -42 96 -31 13 5 22 4 22 -1 0 -6 -4 -11 -10 -11 -5 -1
-16 -2 -22 -3 -8 -1 -12 -11 -10 -25 3 -19 0 -22 -14 -17 -14 5 -15 4 -4 -9
11 -13 10 -14 -5 -9 -13 5 -15 14 -11 37 5 23 3 27 -7 20 -6 -5 -23 -6 -37 -2
-14 4 -19 7 -12 8 6 1 12 8 12 16 0 12 -4 13 -25 3 -30 -14 -31 -22 -5 -50 10
-12 17 -25 14 -29 -8 -13 -32 1 -37 21 -3 14 -11 17 -26 13 -31 -8 -22 -37 12
-41 15 -2 27 -8 27 -13 0 -6 -4 -8 -9 -4 -6 3 -15 -3 -20 -14 -8 -14 -7 -20 4
-25 18 -7 16 -70 -3 -72 -6 -1 -17 -2 -24 -3 -6 0 -2 -10 10 -21 12 -12 22
-28 22 -38 0 -11 -3 -13 -8 -5 -4 6 -22 11 -40 11 -18 -1 -29 -4 -25 -7 8 -6
9 -18 5 -63 -1 -11 -8 -15 -17 -12 -8 4 -15 1 -15 -6 0 -9 10 -11 30 -7 17 4
30 2 30 -3 0 -6 -4 -10 -9 -10 -5 0 -8 -7 -7 -15 4 -26 13 -26 20 0 4 14 11
25 17 25 6 0 7 -5 3 -12 -5 -8 -2 -9 9 -5 9 3 19 1 23 -5 4 -7 3 -8 -4 -4 -7
4 -12 2 -12 -3 0 -6 4 -11 10 -11 5 0 7 -7 4 -15 -4 -8 -17 -15 -30 -15 -27 0
-32 -15 -8 -24 8 -3 12 -2 9 4 -3 6 1 10 10 10 10 0 13 -5 9 -12 -4 -7 -3 -8
4 -4 18 11 49 -11 54 -39 3 -14 1 -25 -3 -25 -5 0 -9 -7 -9 -16 0 -14 -3 -14
-15 -4 -32 27 -23 2 14 -38 21 -22 36 -43 33 -46 -3 -3 1 -13 9 -23 12 -14 12
-16 0 -8 -11 6 -13 4 -8 -9 6 -16 3 -17 -20 -11 -16 3 -41 13 -57 21 -32 16
-52 9 -22 -8 15 -8 16 -12 5 -19 -10 -6 -11 -9 -1 -9 6 0 12 -7 12 -16 0 -14
-3 -14 -15 -4 -13 10 -18 11 -28 1 -7 -7 -7 -12 -2 -11 22 5 29 -1 15 -10 -13
-8 -13 -10 2 -10 19 0 32 -16 23 -30 -3 -5 -22 2 -42 15 -39 27 -62 33 -44 12
6 -8 8 -17 4 -21 -4 -3 2 -13 13 -22 18 -15 18 -15 -8 -11 -20 3 -28 0 -28
-10 0 -8 -5 -11 -10 -8 -6 4 -8 11 -5 16 4 5 1 9 -4 9 -6 0 -11 -5 -11 -11 0
-6 -7 -17 -15 -26 -8 -8 -13 -18 -10 -23 3 -4 -3 -6 -14 -3 -10 3 -22 0 -25
-6 -4 -6 4 -13 19 -17 24 -6 24 -7 8 -20 -16 -12 -15 -13 14 -14 17 0 35 -5
39 -12 5 -7 3 -8 -6 -3 -10 6 -12 4 -7 -9 4 -10 3 -15 -3 -11 -6 3 -10 1 -10
-4 0 -6 -4 -11 -10 -11 -5 0 -6 8 -3 17 5 13 2 15 -11 10 -10 -4 -22 -7 -28
-7 -5 0 -2 -7 6 -16 9 -8 16 -23 16 -32 1 -23 25 -53 36 -44 5 4 0 -3 -11 -16
-11 -13 -21 -19 -23 -13 -2 6 -10 11 -18 11 -9 0 -13 4 -9 9 5 9 -55 45 -62
37 -3 -2 9 -14 26 -27 17 -12 27 -27 24 -32 -3 -6 -1 -7 5 -3 8 4 12 0 12 -11
0 -27 -57 -47 -77 -28 -21 22 -39 18 -20 -3 10 -10 14 -22 10 -25 -3 -4 2 -7
13 -7 16 0 17 -2 4 -10 -14 -9 -7 -15 14 -11 5 1 3 -6 -5 -15 -11 -13 -11 -18
-1 -21 6 -3 12 -11 12 -19 0 -10 -5 -12 -12 -8 -9 5 -9 2 1 -9 12 -15 11 -17
-3 -17 -9 0 -16 8 -16 17 0 16 -1 16 -17 1 -21 -22 -25 -105 -5 -113 8 -3 11
0 7 8 -4 6 1 3 9 -7 10 -13 13 -28 9 -40 -3 -12 -6 -38 -5 -59 1 -31 -2 -38
-16 -35 -13 2 -18 16 -20 56 -2 28 -8 52 -13 52 -6 0 -8 -21 -6 -50 3 -27 1
-50 -4 -50 -6 0 -5 -10 1 -22 9 -20 9 -21 -2 -4 -80 117 -110 156 -120 156 -6
0 -2 -10 9 -23 26 -27 88 -137 78 -137 -4 0 -1 -7 6 -17 8 -9 13 -18 12 -20
-7 -9 -2 -23 6 -18 5 3 12 1 15 -4 4 -5 -2 -12 -13 -16 -11 -3 -22 -13 -25
-21 -3 -8 -1 -12 4 -9 5 3 8 -8 7 -25 -1 -16 -3 -30 -4 -30 -1 0 -25 35 -53
78 -29 42 -55 79 -58 82 -8 7 58 -111 78 -139 16 -22 16 -28 3 -59 -23 -55
-35 -63 -56 -36 -13 17 -35 100 -37 140 0 1 -8 4 -19 7 -13 3 -20 18 -25 58
-7 52 -47 151 -72 176 -7 7 -15 18 -17 25 -4 10 -8 9 -16 -2 -8 -11 -11 -11
-11 -2 0 7 -8 16 -17 19 -10 4 -35 25 -55 47 -29 31 -35 43 -26 53 8 11 7 12
-6 7 -9 -3 -16 -2 -16 3 0 4 -9 14 -21 21 -12 8 -18 9 -14 3 3 -6 1 -11 -4
-11 -6 0 -11 7 -11 15 0 8 -4 15 -10 15 -5 0 -10 -4 -10 -10 0 -22 -31 -8 -57
25 -32 40 -47 45 -39 13 3 -13 3 -17 0 -10 -3 6 -11 9 -16 6 -7 -4 -8 -2 -4 4
5 8 1 10 -9 6 -9 -4 -14 -13 -10 -22 5 -13 3 -13 -11 -1 -16 13 -16 12 -5 -9
7 -13 10 -26 7 -30 -3 -3 -6 0 -6 7 0 7 -8 11 -17 9 -10 -2 -24 3 -31 12 -10
13 -11 12 -6 -5 5 -14 4 -17 -3 -10 -6 6 -17 28 -24 50 l-13 40 -7 -35 c-3
-19 -7 -27 -8 -17 0 9 -5 17 -10 17 -5 0 -12 8 -15 18 -3 9 -13 28 -21 42
l-15 25 -1 -30 c-1 -16 -2 -49 -3 -72 -1 -22 -4 -39 -8 -36 -5 2 -8 10 -8 17
0 7 -7 21 -16 32 -15 18 -15 18 -9 -4 7 -24 -15 -106 -22 -84 -3 6 -9 10 -14
6 -5 -3 -9 -2 -8 3 3 19 -3 67 -8 56 -5 -14 -24 -18 -22 -5 3 20 -3 23 -18 11
-9 -8 -14 -9 -11 -4 4 6 3 17 -3 25 -8 13 -9 13 -9 0 0 -8 -12 9 -27 38 -15
29 -32 52 -39 52 -6 0 -15 11 -18 25 -4 14 -11 25 -16 25 -6 0 -8 -11 -4 -27
6 -24 5 -25 -8 -12 -9 8 -14 17 -11 22 9 15 -9 48 -23 43 -9 -4 -14 2 -14 15
0 15 -4 19 -16 15 -13 -5 -14 -2 -8 11 4 10 9 35 10 56 1 21 7 44 13 51 6 7 9
30 7 50 -3 22 -1 34 4 31 6 -3 7 1 4 9 -4 10 -1 16 7 16 11 0 12 2 1 9 -17 10
-6 58 13 58 8 0 12 -4 9 -9 -3 -4 1 -8 10 -8 8 0 17 -6 19 -12 4 -10 6 -10 6
-1 1 12 19 1 56 -34 8 -7 18 -13 23 -13 6 0 12 -7 16 -15 3 -8 11 -15 17 -15
12 0 49 -38 49 -51 0 -4 9 -5 20 -2 l21 6 -21 19 c-18 17 -19 22 -8 35 11 14
10 15 -10 9 -16 -5 -22 -3 -22 7 0 7 -11 20 -25 27 -14 7 -25 17 -25 22 0 11
-25 38 -35 38 -4 0 -19 12 -34 28 -15 15 -48 44 -72 64 -24 20 -66 57 -93 82
-28 24 -54 43 -58 40 -4 -3 -8 0 -8 7 0 12 -52 62 -81 79 -19 11 -50 -16 -33
-28 6 -4 14 -14 17 -22 4 -8 15 -27 25 -41 77 -116 95 -146 117 -198 13 -33
27 -77 31 -98 5 -35 2 -43 -26 -71 -17 -18 -38 -32 -45 -32 -7 0 -20 -7 -29
-15 -31 -32 -193 -49 -309 -32 -56 8 -106 -19 -185 -97 -111 -111 -127 -126
-137 -126 -5 -1 -21 -14 -35 -30 -13 -17 -31 -30 -40 -30 -9 0 -20 -3 -24 -7
-17 -17 -80 -31 -102 -23 -25 10 -54 4 -54 -10 0 -11 -52 -2 -65 11 -14 14
-58 11 -83 -7 -32 -22 -27 -38 6 -17 29 18 24 12 -23 -27 -16 -14 -23 -17 -16
-8 9 12 9 18 3 18 -15 0 -83 -103 -114 -171 -22 -50 -25 -71 -16 -124 2 -13
-3 -20 -12 -20 -10 0 -14 9 -13 30 2 23 0 26 -7 15 -6 -8 -7 -27 -4 -42 7 -34
-14 -78 -27 -57 -6 9 -7 2 -3 -18 6 -32 0 -39 -28 -34 -5 0 -8 -9 -8 -21 0
-13 -8 -32 -17 -43 l-16 -20 8 20 c8 24 10 31 20 73 4 17 11 32 15 32 11 0 19
50 8 56 -4 3 -8 2 -7 -3 4 -15 -19 -58 -40 -75 -23 -19 -29 -44 -8 -32 7 5 7
1 -3 -12 -22 -29 -24 -30 -17 -11 4 9 2 17 -2 17 -9 0 -24 -26 -26 -45 -1 -5
-5 -24 -9 -42 -6 -26 -10 -30 -21 -20 -7 7 -10 17 -5 22 4 6 11 24 15 40 10
40 13 117 3 102 -4 -7 -8 -22 -8 -33 0 -12 -7 -25 -16 -28 -10 -4 -13 -13 -9
-25 5 -16 -2 -39 -23 -71 -2 -2 -7 2 -12 10 -7 11 -10 9 -10 -12 0 -15 -4 -30
-10 -33 -6 -3 -10 -18 -11 -33 -1 -21 -3 -17 -11 15 -8 38 -5 49 26 112 19 39
33 71 31 71 -3 0 -19 -25 -37 -57 -26 -47 -33 -53 -39 -37 -7 17 -8 16 -8 -5
-1 -14 -13 -39 -28 -55 l-28 -31 33 29 c28 26 32 27 32 10 0 -10 1 -89 1 -174
1 -192 2 -187 -12 -173 -6 6 -10 33 -8 61 2 28 0 48 -5 45 -9 -6 0 94 11 126
5 13 3 14 -7 4 -16 -15 -23 -270 -8 -280 6 -3 7 3 3 17 -5 16 -4 20 5 15 7 -5
9 -24 5 -59 -6 -43 -4 -55 11 -67 16 -13 17 -12 10 6 -20 47 -19 64 2 62 17
-1 19 -5 11 -25 -6 -16 -6 -29 2 -38 9 -11 9 -14 0 -14 -8 0 -7 -9 4 -30 17
-34 19 -50 5 -50 -5 0 -10 7 -10 15 0 16 -46 95 -55 95 -3 0 1 -12 9 -27 16
-31 3 -73 -22 -73 -10 0 -13 9 -10 32 5 32 5 32 -10 10 -8 -12 -20 -22 -27
-22 -18 0 -55 48 -55 70 0 9 -9 25 -20 35 -11 10 -20 28 -20 40 0 28 -10 37
-26 24 -10 -8 -15 -5 -20 15 -3 14 -12 26 -18 26 -12 0 -28 25 -40 63 -3 9
-11 16 -17 15 -7 -2 -23 20 -38 47 -14 28 -29 53 -34 56 -4 3 -5 13 -1 22 4
11 1 17 -8 17 -13 0 -64 84 -117 195 -33 69 -40 82 -67 131 -13 24 -23 47 -22
51 2 9 -75 165 -98 197 -8 11 -14 30 -14 41 0 12 -4 25 -9 31 -4 5 -16 33 -25
62 -9 29 -27 76 -40 105 -13 29 -45 106 -71 172 -25 66 -50 124 -55 129 -14
14 -23 -38 -16 -86 8 -51 13 -92 15 -113 0 -8 10 -23 22 -33 26 -21 62 -90 54
-102 -3 -6 -2 -10 2 -10 5 0 10 -12 11 -27 6 -76 38 -182 83 -273 59 -117 59
-118 59 -132 0 -6 8 -21 18 -32 26 -30 64 -149 72 -229 5 -42 14 -74 25 -87
18 -20 40 -18 29 3 -4 7 1 5 11 -4 13 -13 15 -21 6 -37 -6 -11 -11 -34 -11
-50 0 -16 -5 -43 -11 -61 -9 -26 -19 -33 -67 -47 -32 -9 -79 -26 -107 -39 -27
-12 -72 -30 -100 -40 -27 -10 -54 -21 -60 -25 -5 -4 -46 -22 -90 -40 -44 -17
-116 -49 -160 -69 -44 -21 -97 -44 -117 -50 -21 -7 -40 -17 -43 -22 -4 -5 -19
-9 -36 -9 -16 0 -29 -4 -29 -9 0 -5 -8 -11 -18 -15 -9 -3 -26 -11 -36 -18 -53
-35 -126 -78 -132 -78 -3 0 -34 -21 -68 -46 -33 -26 -72 -52 -86 -58 -14 -6
-38 -23 -55 -38 -16 -16 -35 -28 -41 -28 -6 0 -29 -12 -51 -28 -59 -41 -74
-50 -123 -73 -25 -12 -60 -35 -77 -52 -18 -17 -33 -28 -33 -24 0 21 -139 -117
-183 -181 -18 -27 -44 -83 -56 -123 -41 -132 -50 -149 -107 -202 -31 -29 -60
-53 -65 -55 -5 -2 -9 -8 -9 -14 0 -5 -7 -16 -15 -24 -13 -14 -15 -133 -15
-955 l0 -939 1989 0 c1582 0 1991 3 1995 13 5 9 7 9 12 -1 5 -10 9 -9 20 5 13
17 13 17 14 0 0 -15 7 -18 37 -15 20 2 39 9 41 17 3 10 0 12 -12 8 -10 -4 -16
-1 -16 8 0 8 -5 15 -10 15 -6 0 -22 11 -35 24 -44 44 -92 76 -113 76 -13 0
-49 27 -90 67 -76 75 -106 115 -115 153 -3 14 -13 49 -21 78 -8 30 -18 76 -21
103 -3 27 -8 73 -11 102 -4 28 -7 68 -9 87 -4 57 14 239 29 294 14 51 21 98
31 231 6 75 9 92 18 115 3 8 8 27 11 42 9 39 43 56 63 31 13 -17 14 -17 9 0
-14 43 66 119 95 90 8 -8 -1 -18 -33 -37 -61 -36 -30 -32 43 6 50 27 62 29 70
17 5 -8 9 -9 10 -4 0 6 4 -1 8 -15 6 -23 12 -25 59 -25 41 1 51 -2 49 -15 -1
-11 5 -14 24 -12 18 2 26 -2 26 -13 0 -11 -11 -15 -36 -15 -32 -1 -34 -2 -16
-12 11 -6 21 -12 23 -14 2 -1 -1 -12 -8 -23 -15 -29 -2 -26 33 7 17 15 27 21
23 15 -4 -7 -3 -13 3 -13 5 0 8 -9 6 -20 -2 -11 0 -20 5 -20 5 0 12 -10 16
-22 9 -31 24 -39 47 -26 14 7 17 7 13 -1 -4 -6 -1 -11 6 -11 19 0 38 -34 32
-57 -3 -11 1 -26 9 -34 7 -8 14 -21 14 -29 1 -8 4 -33 7 -54 4 -30 0 -48 -15
-72 l-20 -34 23 -23 c20 -20 24 -35 25 -91 1 -44 7 -74 17 -85 13 -14 29 -73
30 -111 1 -21 -34 -57 -68 -70 -21 -8 -26 -14 -21 -28 4 -9 11 -30 15 -47 12
-47 37 -100 54 -115 20 -16 20 -30 1 -30 -13 0 -19 -11 -17 -31 1 -4 -8 -15
-18 -24 -11 -10 -20 -27 -20 -37 0 -11 -5 -28 -10 -38 -7 -13 -7 -21 0 -25 6
-4 7 -11 4 -17 -4 -6 -2 -13 4 -17 6 -4 16 -31 21 -61 5 -30 18 -79 28 -108
l17 -52 1723 0 1723 0 -2 2170 c-2 1719 -6 2172 -15 2182 -7 6 -13 20 -13 29
0 37 -163 175 -279 237 -92 49 -138 93 -162 156 -50 126 -168 271 -268 328
-52 30 -54 31 -68 12 -9 -13 -11 -27 -6 -44 12 -38 6 -261 -7 -274 -14 -14
-31 10 -28 40 2 12 -3 29 -11 37 -8 10 -12 33 -9 57 2 22 0 40 -3 40 -4 0 -6
11 -5 24 2 14 -3 27 -11 30 -8 3 -12 10 -9 15 3 5 -1 14 -9 21 -25 21 -16 34
47 65 55 27 62 35 83 85 23 53 19 74 -9 51 -18 -15 -132 -7 -179 12 -20 9 -60
35 -87 59 -56 48 -70 81 -70 166 0 34 -4 51 -12 50 -6 -2 -18 20 -26 47 -8 28
-20 64 -28 80 -7 17 -16 44 -20 60 -5 22 -8 25 -11 12 -5 -18 -5 -18 -19 0 -7
10 -14 32 -14 49 0 17 -7 38 -16 45 -13 11 -15 26 -11 71 4 43 2 55 -8 52 -13
-5 -43 69 -70 171 -7 28 -16 59 -19 70 -7 17 -6 18 4 3 11 -18 40 -14 40 6 0
6 -23 26 -50 45 -47 32 -68 60 -35 47 8 -3 15 0 15 6 0 6 8 17 18 24 14 11 15
16 5 33 -21 34 -16 45 12 27 29 -19 30 -15 10 50 -19 63 -19 78 0 70 10 -4 20
3 27 19 12 27 31 35 22 10 -4 -9 0 -15 7 -15 8 -1 32 -24 54 -52 22 -29 55
-70 72 -93 32 -40 93 -190 93 -226 0 -10 -10 -39 -22 -65 -20 -41 -26 -45 -50
-40 -23 5 -28 1 -38 -28 -8 -26 -8 -43 3 -75 8 -22 10 -38 5 -35 -6 4 -5 -3 1
-15 7 -12 9 -26 6 -31 -3 -5 2 -22 12 -37 24 -39 23 -39 31 -27 4 5 24 20 44
33 64 38 63 85 -1 75 -35 -6 -39 -4 -45 19 -8 34 25 107 49 107 25 0 143 130
118 130 -5 0 -1 5 7 11 11 8 12 12 3 16 -15 5 -17 41 -4 62 7 11 11 9 20 -8 7
-12 9 -26 6 -31 -3 -5 3 -20 14 -32 12 -12 21 -32 21 -44 0 -38 11 -54 37 -54
34 0 80 52 132 150 31 57 44 70 68 64 45 -12 65 -99 38 -169 -9 -25 -35 -60
-59 -82 -58 -53 -90 -119 -83 -174 8 -64 25 -67 73 -13 23 25 48 58 55 72 8
15 17 29 20 32 16 13 60 160 61 205 1 26 -12 127 -17 136 -4 5 -1 9 6 9 7 0 4
6 -7 14 -10 8 -16 18 -12 22 4 4 2 14 -4 22 -10 11 -8 14 12 12 52 -5 52 -3
33 85 -10 45 -8 98 6 135 5 14 12 43 16 64 4 24 10 35 14 27 11 -18 25 3 47
71 17 57 18 57 36 39 16 -18 17 -28 8 -98 -17 -134 -32 -191 -56 -206 -7 -4
-18 -33 -24 -65 -7 -31 -17 -70 -22 -85 -8 -20 -8 -31 0 -39 9 -9 15 -2 26 24
8 19 22 40 30 48 9 7 16 21 16 31 0 11 4 19 10 19 5 0 16 15 23 33 18 42 42
61 64 52 10 -4 41 -9 68 -10 28 -1 66 -6 85 -10 48 -11 170 -12 170 -2 0 4 5
5 10 2 7 -4 10 324 10 977 0 541 3 1706 7 2591 l6 1607 -3921 0 -3922 0 0
-2916z m4727 2714 c25 -17 54 -39 65 -50 10 -10 18 -14 18 -10 0 4 -22 30 -50
57 -54 54 -61 66 -30 58 11 -3 20 -9 20 -13 0 -5 13 -5 30 0 40 11 62 4 84
-29 20 -30 56 -57 56 -43 0 5 -11 21 -25 36 -27 29 -34 46 -10 26 8 -6 23 -9
34 -5 10 3 22 1 26 -5 3 -6 12 -7 18 -3 17 10 47 11 53 2 2 -5 11 -6 18 -3 7
3 34 -2 61 -11 26 -9 58 -14 72 -11 14 4 42 -1 68 -13 25 -11 45 -16 45 -10 0
5 5 9 11 9 5 0 7 -5 3 -11 -5 -8 1 -10 18 -7 13 2 30 -2 37 -9 7 -7 17 -11 23
-7 6 4 13 2 17 -3 8 -13 94 -53 113 -53 8 0 27 -9 40 -20 14 -10 28 -17 32
-13 3 3 17 -6 30 -20 13 -14 36 -29 49 -32 14 -4 28 -14 31 -22 4 -10 14 -13
29 -9 16 4 26 -1 35 -14 7 -11 19 -20 26 -20 8 0 29 -8 48 -17 18 -10 34 -18
36 -19 1 0 -5 -20 -13 -44 -20 -55 -19 -56 10 -24 14 15 28 24 31 21 6 -5 -39
-69 -73 -105 -7 -7 -13 -16 -13 -20 1 -4 28 22 61 57 33 36 68 65 79 66 14 1
17 -2 10 -15 -11 -21 0 -39 28 -43 12 -2 28 -9 34 -15 7 -7 18 -12 25 -12 7 0
12 -3 12 -7 -3 -21 3 -31 18 -29 10 0 19 -7 21 -19 2 -11 14 -28 25 -38 12
-10 16 -16 10 -12 -8 4 -13 0 -13 -10 0 -9 4 -14 9 -10 5 3 12 1 15 -4 4 -5 2
-12 -4 -16 -6 -4 -8 -11 -5 -16 4 -5 2 -9 -2 -9 -10 0 -9 -72 2 -112 4 -16 11
-28 16 -28 5 0 9 -7 9 -15 0 -8 -5 -15 -11 -15 -5 0 -8 -4 -4 -10 3 -5 -9 -14
-27 -19 -29 -8 -30 -9 -8 -10 14 -1 20 -5 14 -9 -6 -4 -10 -20 -9 -37 1 -16
-4 -50 -11 -75 -8 -25 -14 -55 -14 -67 0 -13 -5 -23 -11 -23 -5 0 -7 -5 -4
-10 4 -6 8 -36 11 -68 l4 -57 -21 34 c-11 19 -27 41 -35 49 -13 12 -13 17 -2
24 9 6 6 7 -10 3 -15 -4 -24 -1 -28 10 -9 23 -58 45 -102 45 -74 0 -96 14
-110 73 -20 86 -87 212 -126 236 -18 12 -42 21 -52 21 -16 -1 -15 -4 9 -25 15
-13 27 -29 27 -35 0 -6 13 -22 29 -35 20 -17 35 -46 50 -97 13 -40 27 -81 32
-90 13 -26 -4 -22 -39 7 -60 50 -185 100 -152 60 11 -13 8 -15 -21 -15 -19 0
-45 -3 -58 -7 -15 -4 -22 -2 -20 5 8 23 133 162 146 162 7 0 13 5 13 10 0 6
-16 10 -36 10 -32 0 -35 -2 -24 -15 11 -13 10 -18 -6 -30 -10 -8 -24 -15 -31
-15 -6 0 -18 -9 -26 -20 -8 -12 -32 -34 -53 -49 -37 -28 -39 -29 -52 -10 -7
10 -24 19 -37 19 -17 0 -39 17 -75 61 -27 33 -50 68 -51 77 0 15 -1 15 -8 -1
-6 -17 -10 -16 -46 10 -56 41 -140 86 -125 68 16 -19 7 -19 -29 -1 -15 8 -51
18 -80 22 l-52 7 6 -29 7 -29 -19 21 c-10 12 -34 30 -53 40 -19 10 -41 25 -48
32 -7 6 -18 12 -23 12 -13 0 -11 -18 3 -22 6 -2 -3 -10 -20 -17 -18 -8 -32
-17 -32 -21 0 -4 -13 -7 -30 -8 -37 -1 -39 13 -2 32 31 16 27 19 -51 36 -27 6
-71 8 -97 4 -36 -5 -71 0 -132 16 -130 35 -250 30 -428 -20 -106 -29 -169 -30
-296 -5 -67 14 -127 26 -135 28 -8 2 -11 2 -6 0 16 -10 6 -23 -17 -23 -29 0
-46 20 -19 21 16 0 16 1 -2 9 -29 13 -35 12 -35 -6 0 -11 -8 -15 -27 -14 -16
1 -33 2 -39 1 -17 -2 -26 -32 -14 -46 8 -10 8 -13 -2 -11 -49 7 -47 53 3 78
l34 17 -38 1 c-21 0 -45 7 -53 15 -15 14 -54 21 -54 9 0 -3 8 -13 17 -22 16
-16 15 -17 -2 -20 -9 -2 -21 1 -24 7 -4 6 -39 13 -79 17 -53 5 -73 11 -76 23
-8 24 -1 52 13 61 8 4 10 13 6 20 -6 9 -4 11 5 5 10 -6 12 -4 7 7 -5 15 20 48
38 48 4 0 18 11 31 25 25 27 37 26 93 -12 36 -25 61 -31 39 -10 -7 7 -32 27
-55 45 -24 19 -43 38 -43 42 0 5 15 10 33 12 24 2 31 7 29 21 -2 10 3 17 13
17 8 0 15 6 15 13 0 8 9 13 22 12 12 -1 30 7 40 17 10 10 27 18 38 18 11 0 20
4 20 8 0 5 23 8 50 8 28 0 50 -4 50 -10 0 -6 4 -5 9 2 4 8 11 13 15 13 23 -2
66 14 66 25 0 8 7 15 15 15 8 1 20 3 25 4 6 1 18 3 28 4 15 1 15 3 2 12 -11 8
-6 9 20 4 27 -5 32 -4 20 5 -12 8 -6 10 25 8 22 -1 46 1 53 6 7 4 16 5 21 2 5
-3 14 1 21 9 10 12 16 13 26 4 8 -6 14 -7 14 -2 0 5 27 10 59 10 32 1 67 6 77
11 20 10 75 13 269 16 66 0 125 4 130 7 6 3 37 6 70 8 33 1 85 5 115 9 48 6
55 5 58 -10 2 -10 24 -32 49 -50z m-1992 -413 c41 -9 91 -22 111 -31 20 -8 43
-13 51 -10 9 4 11 2 7 -6 -5 -8 -2 -9 10 -5 11 5 15 3 10 -5 -5 -8 -2 -9 9 -5
10 3 17 3 17 -2 0 -13 113 -68 131 -64 10 2 19 13 22 23 3 13 11 17 25 13 33
-8 15 -30 -35 -43 -43 -10 -51 -9 -107 18 -187 91 -297 117 -454 109 -104 -5
-121 -1 -60 13 56 13 185 11 263 -5z m274 -52 c11 3 28 -1 38 -9 16 -12 14
-13 -22 -14 -43 0 -58 7 -63 29 -3 12 0 12 12 2 9 -8 25 -11 35 -8z m291 -73
c0 -6 -32 -10 -76 -10 -47 0 -73 -4 -69 -10 3 -5 0 -10 -8 -10 -23 0 -28 12
-9 26 20 16 162 19 162 4z m170 -24 c0 -3 -4 -8 -10 -11 -5 -3 -10 -1 -10 4 0
6 5 11 10 11 6 0 10 -2 10 -4z m95 -6 c17 -7 15 -9 -10 -8 -16 0 -41 4 -55 8
-23 7 -22 8 10 8 19 0 44 -3 55 -8z m717 -6 l48 -7 -37 -33 c-41 -38 -59 -44
-44 -15 9 16 4 21 -34 36 -52 19 -60 38 -12 31 17 -3 53 -8 79 -12z m-1387 -4
c-16 -4 -39 -8 -50 -8 l-20 -1 20 9 c11 5 34 8 50 8 l30 0 -30 -8z m-244 -20
c-24 -11 -46 -19 -48 -17 -5 6 60 37 77 37 8 0 -5 -9 -29 -20z m1486 14 c-3
-3 -12 -4 -19 -1 -8 3 -5 6 6 6 11 1 17 -2 13 -5z m822 -43 c8 -5 9 -11 3 -15
-5 -3 -15 1 -22 9 -14 16 -3 20 19 6z m-2523 -11 c8 -8 32 -8 79 0 37 6 70 8
73 5 3 -3 -2 -5 -12 -5 -9 0 -19 -6 -22 -14 -6 -16 -74 -46 -105 -46 -19 0
-19 1 -4 16 24 24 11 28 -37 12 -24 -8 -51 -12 -60 -10 -15 3 -15 5 2 22 10
10 29 20 42 23 13 2 25 5 29 6 3 0 10 -4 15 -9z m2575 -5 c-1 -15 -24 -12 -29
3 -3 9 2 13 12 10 10 -1 17 -7 17 -13z m-41 -29 c0 -2 -7 -7 -16 -10 -8 -3
-12 -2 -9 4 6 10 25 14 25 6z m-170 -26 c0 -21 -33 -60 -50 -60 -15 0 -13 9
11 46 23 38 39 44 39 14z m-85 -39 c-3 -11 -15 -21 -26 -23 -11 -2 -19 -7 -19
-12 2 -11 -29 -30 -37 -22 -10 10 7 36 30 45 12 5 29 16 36 25 17 20 25 14 16
-13z m-1805 -11 c0 -8 -129 -3 -139 6 -2 2 28 4 67 4 40 0 72 -4 72 -10z m101
-77 c34 -49 72 -99 83 -113 14 -17 15 -20 4 -11 -10 7 -41 45 -70 85 -29 39
-63 81 -75 94 -25 25 -28 32 -14 32 5 0 38 -39 72 -87z m-261 68 c0 -10 -69
-25 -77 -17 -3 3 10 9 28 15 45 12 49 13 49 2z m-110 -36 c-14 -8 -29 -14 -35
-14 -5 0 1 6 15 14 14 8 30 14 35 14 6 0 -1 -6 -15 -14z m2468 -7 c-16 -16
-48 -25 -48 -14 0 20 15 33 39 33 27 0 27 -1 9 -19z m-2624 -80 c-22 -24 -50
-56 -62 -73 -13 -16 -19 -21 -13 -9 11 22 99 124 108 124 3 0 -12 -19 -33 -42z
m3040 -43 c9 -9 24 -13 38 -10 15 3 37 -4 63 -20 l40 -26 -40 8 c-22 4 -72 7
-111 6 -65 -3 -72 -1 -77 18 -4 13 -10 18 -17 14 -9 -6 -9 -10 1 -16 19 -11
-2 -32 -24 -23 -15 5 -15 8 -1 29 9 13 25 25 37 27 57 9 77 7 91 -7z m-2383
-72 c13 -16 12 -17 -3 -4 -10 7 -18 15 -18 17 0 8 8 3 21 -13z m-760 -45 c-25
-75 -32 -87 -27 -53 5 31 33 105 41 105 2 0 -4 -24 -14 -52z m3494 21 c31 -12
85 -55 78 -62 -3 -4 -1 -7 6 -7 7 0 11 -6 9 -12 -3 -7 -15 -13 -29 -13 -15 0
-24 -6 -24 -15 0 -8 6 -14 13 -12 6 1 12 -2 12 -8 0 -5 -7 -10 -15 -10 -8 0
-15 5 -15 11 0 5 -4 7 -10 4 -22 -14 -70 30 -89 80 -10 27 -17 53 -14 58 4 7
40 1 78 -14z m-1663 -42 c20 -16 39 -36 43 -45 3 -9 -9 -1 -27 16 -18 17 -44
41 -58 52 -36 31 -2 12 42 -23z m-1038 17 c3 -8 2 -12 -4 -9 -6 3 -10 10 -10
16 0 14 7 11 14 -7z m-1159 -74 c7 -11 5 -11 -35 -16 -72 -9 -131 -28 -213
-69 -49 -25 -91 -44 -94 -42 -7 8 97 69 157 94 33 13 76 24 95 25 20 1 38 5
41 10 7 11 42 10 49 -2z m2280 -20 c3 -5 23 -11 43 -11 37 -1 37 -1 7 -8 -29
-7 -29 -7 -7 -15 13 -4 21 -10 19 -13 -3 -3 -25 7 -50 21 -24 14 -47 23 -52
18 -4 -4 -5 -1 -1 6 9 14 32 16 41 2z m-87 -12 c17 2 33 -1 37 -9 6 -9 -7 -11
-64 -5 -48 4 -70 3 -66 -4 7 -12 -21 -12 -49 -1 -19 7 -19 8 2 13 14 4 20 2
16 -4 -4 -6 -1 -8 7 -6 8 3 13 10 12 15 -1 6 13 7 36 3 21 -4 52 -5 69 -2z
m1823 -30 c10 -19 9 -20 -17 -14 -37 10 -39 12 -24 31 14 17 25 13 41 -17z
m-3986 -3 c-16 -13 -34 -24 -40 -25 -5 0 4 11 20 25 17 13 35 24 40 25 6 0 -3
-11 -20 -25z m308 5 c3 -11 1 -18 -4 -14 -5 3 -9 12 -9 20 0 20 7 17 13 -6z
m3748 3 c0 -15 2 -15 9 2 8 19 9 19 9 -2 1 -13 6 -23 11 -23 19 0 10 -38 -10
-43 -16 -4 -21 1 -26 21 -3 15 -8 35 -11 45 -2 9 0 17 6 17 6 0 11 -8 12 -17z
m-2086 -3 c7 -12 -2 -12 -30 0 -19 8 -19 9 2 9 12 1 25 -3 28 -9z m448 -7 c-7
-2 -21 -2 -30 0 -10 3 -4 5 12 5 17 0 24 -2 18 -5z m-298 -23 c23 -7 19 -8
-20 -5 -27 2 -51 4 -53 4 -2 1 0 6 3 12 4 6 14 7 24 3 9 -3 30 -10 46 -14z
m390 10 c27 -7 27 -8 5 -8 -14 0 -36 4 -50 8 -20 6 -21 8 -5 8 11 0 34 -4 50
-8z m-185 -20 c37 -28 20 -32 -20 -4 -19 13 -28 24 -20 24 8 0 26 -9 40 -20z
m-2550 -15 c-14 -8 -29 -14 -35 -14 -5 0 1 6 15 14 14 8 30 14 35 14 6 0 -1
-6 -15 -14z m2243 -12 c-13 -2 -33 -2 -45 0 -13 2 -3 4 22 4 25 0 35 -2 23 -4z
m64 -9 c-3 -3 -12 -4 -19 -1 -8 3 -5 6 6 6 11 1 17 -2 13 -5z m40 -10 c-3 -3
-12 -4 -19 -1 -8 3 -5 6 6 6 11 1 17 -2 13 -5z m2020 -19 c0 -10 -5 -11 -19
-4 -10 6 -16 14 -13 19 8 13 32 2 32 -15z m-4532 -1 c-31 -24 -55 -36 -55 -27
0 10 51 42 65 42 6 0 1 -7 -10 -15z m2552 10 c-3 -3 -12 -4 -19 -1 -8 3 -5 6
6 6 11 1 17 -2 13 -5z m-2477 -8 c0 -3 -15 -15 -32 -27 l-33 -23 24 27 c22 24
41 35 41 23z m4395 -6 c3 -5 1 -10 -4 -10 -6 0 -11 5 -11 10 0 6 2 10 4 10 3
0 8 -4 11 -10z m-2242 -22 c23 -12 45 -22 48 -23 12 0 129 -69 125 -72 -2 -2
-28 10 -57 28 -29 17 -60 32 -69 34 -18 4 -109 55 -97 55 4 0 27 -10 50 -22z
m1436 -12 c-12 -10 -60 -16 -54 -6 3 5 18 10 32 10 15 0 24 -2 22 -4z m-896
-63 c-7 -2 -19 -2 -25 0 -7 3 -2 5 12 5 14 0 19 -2 13 -5z m1187 -60 c-7 -24
-8 -21 -9 22 0 38 2 45 9 28 5 -12 5 -34 0 -50z m-4100 33 c0 -2 -8 -10 -17
-17 -16 -13 -17 -12 -4 4 13 16 21 21 21 13z m2395 -14 c-3 -3 -11 0 -18 7 -9
10 -8 11 6 5 10 -3 15 -9 12 -12z m755 -8 c0 -2 -9 0 -20 6 -11 6 -20 13 -20
16 0 2 9 0 20 -6 11 -6 20 -13 20 -16z m-2600 -9 c-7 -8 -18 -15 -24 -15 -6 0
-2 7 8 15 25 19 32 19 16 0z m1854 -10 c3 -8 1 -15 -4 -15 -6 0 -10 7 -10 15
0 8 2 15 4 15 2 0 6 -7 10 -15z m-194 -35 c0 -13 -1 -13 -10 0 -5 8 -10 22
-10 30 0 13 1 13 10 0 5 -8 10 -22 10 -30z m440 30 c12 -8 10 -9 -7 -7 -12 2
-26 6 -29 10 -11 11 19 8 36 -3z m-2156 -8 c2 -4 -7 -9 -20 -10 -15 -1 -22 2
-19 8 7 12 32 13 39 2z m3119 -9 c-7 -2 -19 -2 -25 0 -7 3 -2 5 12 5 14 0 19
-2 13 -5z m-3186 -35 c-3 -7 -5 -2 -5 12 0 14 2 19 5 13 2 -7 2 -19 0 -25z
m-137 -28 c-19 -13 -30 -13 -30 0 0 6 10 10 23 10 18 0 19 -2 7 -10z m2973
-47 c-7 -2 -21 -2 -30 0 -10 3 -4 5 12 5 17 0 24 -2 18 -5z m217 -13 c11 -8 7
-9 -15 -4 -37 8 -45 14 -19 14 10 0 26 -5 34 -10z m-10 -25 c19 -7 28 -14 20
-14 -8 0 -28 6 -45 14 -39 17 -21 18 25 0z m75 -23 c-3 -3 -11 0 -18 7 -9 10
-8 11 6 5 10 -3 15 -9 12 -12z m-3362 -49 c-7 -2 -19 -2 -25 0 -7 3 -2 5 12 5
14 0 19 -2 13 -5z m-160 -10 c-7 -2 -19 -2 -25 0 -7 3 -2 5 12 5 14 0 19 -2
13 -5z m4311 -72 c-5 -12 -9 -9 -14 14 -13 53 -10 73 6 36 8 -18 12 -41 8 -50z
m-4456 62 c-10 -2 -26 -2 -35 0 -10 3 -2 5 17 5 19 0 27 -2 18 -5z m5137 -35
c25 -17 45 -35 45 -38 0 -29 -42 -6 -81 44 -27 34 -19 33 36 -6z m-1508 -99
c-8 -21 -13 -26 -15 -15 -2 10 2 23 8 31 18 22 20 18 7 -16z m608 1 c-3 -5
-11 -10 -16 -10 -6 0 -7 5 -4 10 3 6 11 10 16 10 6 0 7 -4 4 -10z m-227 -147
c0 -71 2 -147 6 -170 5 -29 4 -43 -3 -43 -6 0 -11 5 -11 11 0 5 -5 7 -11 4 -7
-5 -8 5 -3 32 4 21 7 45 6 53 -3 28 10 240 14 240 2 0 3 -57 2 -127z m1120
108 c3 -8 -1 -12 -9 -9 -7 2 -15 10 -17 17 -3 8 1 12 9 9 7 -2 15 -10 17 -17z
m-1148 -6 c0 -8 -4 -15 -10 -15 -5 0 -7 7 -4 15 4 8 8 15 10 15 2 0 4 -7 4
-15z m190 -27 c0 -6 -7 -5 -15 2 -8 7 -15 17 -15 22 0 6 7 5 15 -2 8 -7 15
-17 15 -22z m-574 -135 c-8 -170 0 -215 45 -242 18 -11 25 -21 18 -23 -11 -4
-59 35 -59 48 0 3 -7 12 -15 20 -8 9 -15 25 -16 37 0 12 -2 34 -4 50 -2 18 0
25 7 21 7 -5 9 5 4 30 -4 22 -3 36 3 36 6 0 9 35 8 89 -1 50 2 87 7 84 5 -4 6
-68 2 -150z m194 153 c0 -2 -8 -10 -17 -17 -16 -13 -17 -12 -4 4 13 16 21 21
21 13z m111 -37 c-6 -16 -10 -18 -10 -7 -1 22 12 55 16 42 2 -6 -1 -22 -6 -35z
m-58 -6 c-3 -21 -10 -45 -15 -53 -9 -14 -3 30 8 73 9 30 13 18 7 -20z m830 -5
c6 -22 5 -22 -8 -4 -17 22 -20 40 -6 32 5 -3 11 -16 14 -28z m-799 0 c-1 -13
-3 -30 -3 -39 -1 -8 -7 -24 -15 -35 -13 -17 -13 -14 -4 26 15 64 17 70 21 70
2 0 3 -10 1 -22z m386 2 c0 -11 -4 -20 -9 -20 -5 0 -7 9 -4 20 3 11 7 20 9 20
2 0 4 -9 4 -20z m-709 -27 c-12 -20 -14 -14 -5 12 4 9 9 14 11 11 3 -2 0 -13
-6 -23z m250 -29 c-6 -28 -9 -32 -10 -14 -1 30 11 79 16 64 2 -6 -1 -28 -6
-50z m379 12 c0 -26 -6 -18 -14 19 -5 22 -4 26 4 15 5 -8 10 -24 10 -34z
m1110 22 c0 -6 -10 -22 -21 -34 l-22 -23 -38 20 c-22 11 -39 16 -39 12 0 -4
46 -51 101 -104 93 -89 112 -119 75 -119 -13 0 -64 58 -85 97 -6 12 -30 31
-54 41 -34 15 -44 26 -54 58 -10 33 -9 40 5 51 22 16 132 17 132 1z m-1378
-40 c-6 -6 -7 0 -4 19 5 21 7 23 10 9 2 -10 0 -22 -6 -28z m522 -57 c-7 -8
-12 4 -18 44 l-5 40 13 -40 c7 -22 12 -42 10 -44z m-911 52 c-7 -20 -33 -60
-33 -52 0 9 31 69 35 69 3 0 2 -8 -2 -17z m734 -15 c-3 -7 -5 -2 -5 12 0 14 2
19 5 13 2 -7 2 -19 0 -25z m-69 -98 c0 -86 -7 -140 -17 -140 -4 0 -4 23 -1 52
4 28 5 85 3 127 -2 50 0 69 6 56 5 -11 9 -54 9 -95z m152 -1 c23 -75 24 -83
10 -74 -14 9 -12 -31 3 -63 10 -19 12 -44 7 -82 -7 -53 -7 -54 -9 -12 0 23 -7
57 -15 75 -8 20 -11 54 -8 89 3 36 -1 72 -11 100 -29 83 -29 84 -13 58 9 -14
25 -55 36 -91z m219 61 l-1 -25 -8 25 c-4 14 -8 32 -9 40 -1 13 0 13 9 0 5 -8
9 -26 9 -40z m-678 13 c-12 -20 -14 -14 -5 12 4 9 9 14 11 11 3 -2 0 -13 -6
-23z m36 -10 c0 -16 -2 -22 -4 -15 -3 6 -9 9 -15 6 -5 -3 -4 3 4 15 7 12 13
21 14 21 1 0 1 -12 1 -27z m-357 13 c0 -3 -4 -8 -10 -11 -5 -3 -10 -1 -10 4 0
6 5 11 10 11 6 0 10 -2 10 -4z m231 -71 c-17 -30 -28 -55 -25 -55 4 0 1 -6 -5
-13 -8 -10 -7 -24 3 -53 8 -21 23 -69 32 -106 11 -40 22 -62 26 -55 5 7 8 0 8
-18 0 -16 2 -39 4 -50 2 -11 1 -14 -1 -7 -3 6 -9 12 -14 12 -6 0 -7 -4 -4 -10
3 -5 4 -10 1 -10 -12 0 -27 44 -31 88 -2 26 -11 64 -20 84 -8 21 -15 46 -15
56 0 11 -12 45 -26 76 -14 32 -24 60 -21 63 3 3 13 -12 22 -33 l17 -39 12 33
c6 18 15 30 20 25 5 -4 6 0 3 10 -4 11 -3 16 3 12 6 -3 10 0 10 7 0 13 19 38
28 38 2 0 -10 -25 -27 -55z m-294 23 c-3 -8 -6 -5 -6 6 -1 11 2 17 5 13 3 -3
4 -12 1 -19z m617 -88 c-7 -33 -7 -34 -14 -10 -4 14 -3 30 1 36 5 5 6 28 4 50
l-5 39 11 -40 c5 -22 7 -56 3 -75z m423 78 c-3 -7 -5 -2 -5 12 0 14 2 19 5 13
2 -7 2 -19 0 -25z m-1910 -19 c2 -16 -1 -19 -9 -11 -5 5 -7 15 -4 21 10 15 12
14 13 -10z m1672 -34 c0 -26 -2 -27 -9 -10 -5 11 -9 31 -9 45 -1 20 1 22 9 10
5 -8 9 -28 9 -45z m128 18 c-3 -10 -5 -4 -5 12 0 17 2 24 5 18 2 -7 2 -21 0
-30z m155 -29 c4 -45 2 -51 -19 -61 -18 -9 -23 -8 -23 2 0 7 5 15 12 17 8 3
11 24 9 59 -3 68 15 55 21 -17z m-709 41 c-3 -9 -8 -14 -10 -11 -3 3 -2 9 2
15 9 16 15 13 8 -4z m374 -17 c-3 -7 -5 -2 -5 12 0 14 2 19 5 13 2 -7 2 -19 0
-25z m-272 -161 c41 -85 57 -95 31 -21 -18 53 -15 71 4 24 14 -33 36 -40 44
-12 3 9 3 0 0 -21 -6 -42 3 -67 17 -46 6 9 9 0 9 -26 0 -26 3 -35 9 -26 14 22
20 -1 23 -96 2 -68 6 -89 15 -82 12 10 29 -34 52 -133 22 -94 1 -62 -36 57 -5
15 -9 11 -18 -20 l-12 -40 0 45 c-1 57 -9 130 -15 135 -3 3 -5 -1 -5 -7 -1 -7
-6 -31 -11 -53 -11 -39 -11 -39 -10 22 1 35 -2 66 -5 70 -4 3 -7 -17 -7 -45 0
-30 -5 -52 -10 -52 -7 0 -10 20 -9 48 1 26 -8 74 -19 107 -12 33 -31 89 -43
125 -12 35 -35 84 -51 109 -18 29 -28 58 -27 80 l0 36 18 -50 c10 -27 35 -85
56 -128z m572 141 c-3 -7 -5 -2 -5 12 0 14 2 19 5 13 2 -7 2 -19 0 -25z m-690
-20 c-3 -7 -5 -2 -5 12 0 14 2 19 5 13 2 -7 2 -19 0 -25z m-378 -32 c-9 -8
-10 -7 -5 7 3 10 7 24 7 30 1 7 3 4 6 -7 3 -10 -1 -23 -8 -30z m216 -57 c-3
-4 2 -26 10 -49 14 -39 21 -109 10 -99 -2 3 -7 22 -10 42 -4 21 -19 70 -35
110 l-30 72 30 -34 c16 -19 27 -38 25 -42z m196 59 c1 -7 1 -16 0 -20 0 -5 3
-8 8 -8 5 0 9 -16 8 -35 -1 -37 -14 -35 -20 2 -2 13 -6 26 -10 29 -11 11 -8
44 3 44 6 0 11 -6 11 -12z m206 -28 c4 -8 7 -28 9 -44 3 -46 -14 -7 -21 45 -3
24 -3 37 1 29 3 -8 8 -22 11 -30z m307 -10 l7 -25 -15 25 c-9 14 -15 32 -15
40 0 13 1 13 8 0 5 -8 12 -26 15 -40z m-37 8 c-3 -7 -5 -2 -5 12 0 14 2 19 5
13 2 -7 2 -19 0 -25z m866 17 c40 -16 57 -40 57 -79 0 -14 5 -28 10 -31 6 -4
8 -10 5 -15 -3 -4 20 -22 51 -40 51 -28 55 -33 41 -47 -30 -31 -124 24 -116
69 5 31 -15 68 -51 93 -21 15 -46 35 -56 46 -16 18 -16 19 3 19 11 0 37 -7 56
-15z m-420 -32 c13 -21 27 -47 30 -58 l7 -20 -16 20 c-20 25 -56 95 -49 95 2
0 15 -17 28 -37z m-943 6 c0 -6 -4 -7 -10 -4 -5 3 -10 11 -10 16 0 6 5 7 10 4
6 -3 10 -11 10 -16z m417 -31 c-3 -7 -5 -2 -5 12 0 14 2 19 5 13 2 -7 2 -19 0
-25z m317 -33 c6 -30 5 -37 -4 -29 -6 7 -13 31 -16 55 -4 52 10 34 20 -26z
m-1028 -9 c-6 -31 -13 -52 -17 -48 -9 9 11 113 20 107 4 -2 3 -29 -3 -59z
m823 -21 c4 -41 3 -71 0 -67 -9 9 -21 157 -12 148 3 -3 9 -40 12 -81z m569 60
c-3 -3 -9 2 -12 12 -6 14 -5 15 5 6 7 -7 10 -15 7 -18z m-990 -153 c0 -25 -4
-40 -9 -36 -6 3 -9 20 -7 37 2 24 -1 31 -12 29 -8 -2 -12 0 -8 3 4 4 1 20 -7
35 -8 15 -11 37 -8 51 6 22 9 19 29 -26 12 -27 22 -69 22 -93z m259 116 c-3
-8 -6 -5 -6 6 -1 11 2 17 5 13 3 -3 4 -12 1 -19z m-337 -9 c0 -6 -4 -7 -10 -4
-5 3 -10 11 -10 16 0 6 5 7 10 4 6 -3 10 -11 10 -16z m217 -21 c-3 -7 -5 -2
-5 12 0 14 2 19 5 13 2 -7 2 -19 0 -25z m-446 15 c1 -5 3 -24 5 -43 3 -31 2
-33 -8 -15 -15 26 -19 65 -7 65 5 0 10 -3 10 -7z m472 -18 c4 -8 2 -17 -3 -20
-6 -4 -10 3 -10 14 0 25 6 27 13 6z m-700 -10 c-3 -9 -8 -14 -10 -11 -3 3 -2
9 2 15 9 16 15 13 8 -4z m1821 -11 c9 -24 2 -26 -12 -4 -7 11 -8 20 -3 20 5 0
12 -7 15 -16z m-984 -30 c0 -42 -22 -127 -41 -158 -24 -40 -24 -30 1 26 20 45
29 135 16 156 -5 8 -2 10 8 6 9 -3 16 -17 16 -30z m421 -39 c11 -24 22 -58 25
-77 4 -25 -1 -19 -22 27 -14 33 -35 73 -47 89 l-20 28 22 -12 c13 -6 31 -31
42 -55z m169 9 c12 -36 6 -62 -6 -28 -4 10 -13 34 -20 53 -12 29 -12 32 0 21
8 -6 20 -27 26 -46z m-990 -8 c-1 -17 -2 -18 -9 -6 -5 8 -12 26 -15 40 -7 24
-6 24 8 6 9 -11 16 -29 16 -40z m299 -24 c0 -13 -3 -20 -9 -17 -5 3 -9 27 -9
53 1 42 2 44 9 17 4 -16 8 -40 9 -53z m166 68 c4 -6 11 -8 16 -5 5 4 9 -2 9
-11 0 -16 -2 -15 -22 2 -13 10 -25 20 -27 21 -2 2 1 3 7 3 6 0 14 -5 17 -10z
m142 -22 c-3 -8 -6 -5 -6 6 -1 11 2 17 5 13 3 -3 4 -12 1 -19z m-5052 3 c26
-6 31 -9 15 -9 -14 -1 -43 3 -65 7 -26 6 -31 9 -15 9 14 1 43 -3 65 -7z m175
2 c-43 -14 -44 -16 -15 -24 26 -7 24 -8 -10 -4 -22 3 -56 5 -75 6 -28 0 -31 2
-15 9 11 4 32 5 48 3 16 -3 27 -1 27 6 0 6 12 11 28 10 15 0 20 -3 12 -6z
m3950 -14 c0 -6 -4 -7 -10 -4 -5 3 -10 11 -10 16 0 6 5 7 10 4 6 -3 10 -11 10
-16z m-3887 -6 c-7 -2 -21 -2 -30 0 -10 3 -4 5 12 5 17 0 24 -2 18 -5z m4065
-58 c0 -16 -2 -15 -8 5 -4 14 -8 34 -8 45 0 16 2 15 8 -5 4 -14 8 -34 8 -45z
m172 35 c0 -16 -4 -30 -8 -30 -5 0 -8 10 -6 23 1 12 3 25 3 30 3 21 11 3 11
-23z m1399 -4 c-3 -3 -11 5 -18 17 -13 21 -12 21 5 5 10 -10 16 -20 13 -22z
m-910 -49 c9 -16 25 -41 37 -56 11 -14 26 -41 34 -59 7 -18 15 -30 18 -28 6 7
-17 64 -38 96 -10 14 -21 36 -25 49 -13 43 14 13 47 -52 17 -34 36 -66 43 -72
7 -5 16 -23 20 -40 8 -34 3 -32 -20 10 l-15 30 6 -41 c5 -32 3 -42 -10 -47
-11 -5 -18 1 -23 21 -3 15 -17 47 -30 71 -12 24 -23 49 -23 55 -1 6 -12 25
-26 41 -19 22 -24 24 -20 10 5 -15 0 -13 -22 10 -16 17 -25 31 -21 33 5 2 4
13 -2 24 -11 20 -10 20 21 -2 18 -13 40 -37 49 -53z m349 38 c-3 -3 -9 2 -12
12 -6 14 -5 15 5 6 7 -7 10 -15 7 -18z m-821 -17 c-3 -7 -5 -2 -5 12 0 14 2
19 5 13 2 -7 2 -19 0 -25z m-37 -47 c7 -24 6 -31 -1 -24 -6 6 -12 30 -14 54
-3 24 -2 35 1 24 3 -11 9 -35 14 -54z m110 49 c0 -5 -5 -10 -11 -10 -5 0 -7 5
-4 10 3 6 8 10 11 10 2 0 4 -4 4 -10z m795 -57 c37 -73 40 -81 27 -68 -18 17
-74 125 -65 125 5 0 22 -26 38 -57z m-1088 0 c-3 -10 -5 -4 -5 12 0 17 2 24 5
18 2 -7 2 -21 0 -30z m223 -17 c0 -18 -17 8 -24 34 l-7 25 15 -25 c9 -14 15
-29 16 -34z m370 -99 c-6 -21 -15 -35 -21 -31 -7 4 -7 10 0 17 6 6 11 43 11
82 0 40 3 75 8 79 12 13 14 -106 2 -147z m457 101 c-3 -7 -5 -2 -5 12 0 14 2
19 5 13 2 -7 2 -19 0 -25z m-564 -19 c-3 -10 -12 -19 -20 -19 -12 0 -12 2 1
15 8 9 13 23 10 33 -5 13 -4 14 4 3 5 -7 7 -22 5 -32z m197 -6 c0 -8 -38 17
-51 33 -9 11 -2 9 19 -6 17 -13 32 -25 32 -27z m169 -73 c0 -23 -8 -4 -43 105
-3 11 5 -2 19 -30 13 -27 25 -61 24 -75z m830 105 c29 -14 45 -38 34 -49 -13
-12 -61 -5 -79 12 -47 43 -16 69 45 37z m-1359 -9 c0 -8 -4 -17 -9 -21 -6 -3
-9 4 -8 15 1 23 17 28 17 6z m-1892 -51 c-3 -3 -9 2 -12 12 -6 14 -5 15 5 6 7
-7 10 -15 7 -18z m1646 -1 c3 -8 2 -12 -4 -9 -6 3 -10 10 -10 16 0 14 7 11 14
-7z m636 6 c0 -5 -2 -10 -4 -10 -3 0 -8 5 -11 10 -3 6 -1 10 4 10 6 0 11 -4
11 -10z m225 -60 c30 -60 45 -103 30 -89 -8 9 -75 159 -70 159 3 0 21 -31 40
-70z m-435 12 c0 -7 -4 -10 -10 -7 -5 3 -10 16 -10 28 0 18 2 19 10 7 5 -8 10
-21 10 -28z m-2120 24 c0 -3 -4 -8 -10 -11 -5 -3 -10 -1 -10 4 0 6 5 11 10 11
6 0 10 -2 10 -4z m1827 -58 c-3 -7 -5 -2 -5 12 0 14 2 19 5 13 2 -7 2 -19 0
-25z m327 -14 c3 -11 9 -30 14 -44 5 -13 5 -40 1 -59 -4 -20 -4 -42 2 -53 6
-11 9 -24 7 -29 -4 -11 -48 110 -48 127 1 5 7 -2 15 -16 19 -33 19 -18 0 27
-9 20 -13 45 -9 55 7 22 13 19 18 -8z m396 -71 c11 -8 20 -11 20 -6 0 4 5 0
11 -10 22 -37 0 -27 -55 25 -31 29 -56 59 -56 67 0 7 14 -3 30 -24 17 -21 40
-45 50 -52z m-94 55 c4 -8 3 -9 -2 -5 -5 5 -13 -10 -19 -37 l-10 -46 -11 35
c-9 29 -9 35 1 31 7 -2 15 4 18 15 6 22 13 24 23 7z m524 -8 c6 -11 7 -20 2
-20 -6 0 -12 9 -15 20 -3 11 -3 20 -1 20 2 0 8 -9 14 -20z m-910 -75 c3 -30 3
-52 -1 -48 -9 10 -20 118 -12 109 4 -4 10 -31 13 -61z m182 55 c2 6 11 -3 21
-20 10 -16 14 -30 8 -30 -5 0 -13 9 -16 20 -4 11 -10 18 -15 15 -4 -3 -14 3
-21 13 -13 15 -12 16 3 4 11 -9 17 -9 20 -2z m216 -21 c-3 -8 -7 -3 -11 10 -4
17 -3 21 5 13 5 -5 8 -16 6 -23z m732 11 c0 -17 -20 -21 -42 -9 -22 12 -22 12
-3 19 22 8 45 2 45 -10z m-585 -40 c14 -27 21 -59 10 -49 -8 9 -35 79 -30 79
2 0 11 -13 20 -30z m773 -5 c11 -10 11 -17 3 -34 -13 -23 -27 -26 -51 -11 -9
6 -17 5 -21 -2 -4 -5 -14 4 -23 22 -8 18 -13 37 -10 42 8 12 85 0 102 -17z
m-909 -3 c16 -30 17 -74 2 -80 -10 -3 -13 1 -9 16 3 12 -2 26 -13 36 -10 8
-16 22 -13 31 8 20 21 19 33 -3z m-120 -26 c-3 -3 -11 5 -18 17 -13 21 -12 21
5 5 10 -10 16 -20 13 -22z m-288 -61 c7 -13 2 -10 -13 7 -45 51 -58 68 -58 76
1 9 57 -57 71 -83z m242 38 c27 -53 42 -119 29 -126 -4 -3 -9 5 -10 19 -1 13
-13 52 -27 86 -27 66 -27 68 -20 68 2 0 15 -21 28 -47z m274 -9 c2 -13 1 -14
-3 -4 -4 8 -16 23 -28 34 l-21 18 25 -14 c14 -9 26 -24 27 -34z m-243 10 c3
-8 2 -12 -4 -9 -6 3 -10 10 -10 16 0 14 7 11 14 -7z m-754 -29 c0 -5 -5 -3
-10 5 -5 8 -10 20 -10 25 0 6 5 3 10 -5 5 -8 10 -19 10 -25z m792 -57 c3 -51
1 -65 -8 -57 -8 6 -11 33 -8 77 5 102 10 96 16 -20z m620 -76 c-10 -3 -72 24
-72 32 0 3 19 -3 41 -12 23 -9 37 -18 31 -20z m-1302 18 c0 -5 -2 -10 -4 -10
-3 0 -8 5 -11 10 -3 6 -1 10 4 10 6 0 11 -4 11 -10z m730 -29 c0 -10 8 -25 17
-32 15 -13 16 -12 11 9 -4 12 -2 22 3 22 8 0 13 -22 10 -42 0 -4 12 -14 28
-23 17 -8 33 -21 37 -27 6 -10 5 -10 -7 -2 -8 7 -32 19 -54 28 -37 14 -38 14
-17 -1 12 -8 22 -20 22 -26 0 -6 -11 0 -25 13 -14 13 -23 26 -20 28 3 3 1 10
-4 16 -14 18 -23 69 -11 61 5 -3 10 -14 10 -24z m304 -11 c-6 -5 -24 21 -24
34 0 6 6 1 14 -10 8 -10 12 -21 10 -24z m-959 -17 c2 -8 -11 -2 -30 13 -19 14
-35 28 -35 31 0 9 60 -32 65 -44z m1065 32 c7 -9 8 -15 2 -15 -5 0 -12 7 -16
15 -3 8 -4 15 -2 15 2 0 9 -7 16 -15z m-4900 -74 c0 -5 -10 -11 -22 -14 -22
-6 -22 -6 -4 8 23 17 26 18 26 6z m-238 -36 c0 -5 -12 -19 -26 -30 -22 -16
-28 -17 -36 -6 -4 8 -6 20 -3 27 8 22 64 29 65 9z m4153 -3 c-3 -3 -11 0 -18
7 -9 10 -8 11 6 5 10 -3 15 -9 12 -12z m-4085 4 c0 -11 -19 -15 -25 -6 -3 5 1
10 9 10 9 0 16 -2 16 -4z m200 -6 c0 -5 -5 -10 -11 -10 -5 0 -7 5 -4 10 3 6 8
10 11 10 2 0 4 -4 4 -10z m-82 -17 c-6 -7 -19 -13 -30 -13 -16 0 -18 3 -10 13
6 7 20 13 31 13 15 0 17 -3 9 -13z m-158 -17 c0 -31 -14 -40 -48 -31 l-27 7
30 24 c38 30 45 30 45 0z m4160 -21 c17 -25 26 -45 21 -45 -6 0 -24 20 -41 45
-17 25 -26 45 -21 45 6 0 24 -20 41 -45z m290 15 c0 -5 -2 -10 -4 -10 -3 0 -8
5 -11 10 -3 6 -1 10 4 10 6 0 11 -4 11 -10z m296 -26 c-4 -14 -9 -24 -12 -21
-3 2 -2 17 2 31 3 15 9 25 11 22 3 -3 2 -17 -1 -32z m1013 27 c12 -8 12 -12 2
-24 -19 -24 -72 -2 -56 23 8 12 35 13 54 1z m-5636 -33 c-7 -12 -53 -9 -53 3
0 6 10 8 23 5 12 -3 16 -3 9 0 -6 3 -10 10 -7 15 4 5 12 3 19 -4 8 -6 12 -15
9 -19z m4778 0 l23 -33 -27 24 c-15 14 -27 28 -27 33 0 15 8 8 31 -24z m-4687
-4 c3 -8 2 -13 -3 -9 -5 3 -11 -1 -14 -7 -2 -7 -8 -10 -12 -6 -4 4 -2 14 5 23
15 19 16 19 24 -1z m4216 6 c0 -5 -2 -10 -4 -10 -3 0 -8 5 -11 10 -3 6 -1 10
4 10 6 0 11 -4 11 -10z m-270 -55 c10 -15 7 -14 -13 4 -15 14 -27 29 -27 33 0
10 16 -5 40 -37z m-4706 -80 c-9 -14 -14 -28 -10 -32 3 -3 6 -1 6 5 0 7 4 12
9 12 14 0 4 -119 -13 -144 -14 -22 -13 -23 2 -22 25 2 33 -75 15 -147 -14 -57
-12 -94 6 -83 11 7 21 -72 23 -191 1 -51 6 -93 10 -93 5 0 5 -12 2 -27 -6 -21
-4 -25 9 -20 22 8 31 -23 23 -78 -6 -40 -29 -65 -40 -46 -3 5 -17 6 -32 3 -16
-3 -29 1 -35 9 -13 20 -12 24 16 58 l26 30 -21 33 c-11 18 -20 27 -20 20 0
-10 -5 -10 -21 -1 -15 8 -18 14 -10 22 15 15 14 40 -1 34 -8 -2 -17 12 -23 37
-6 23 -15 39 -20 36 -6 -3 -9 -8 -8 -11 1 -3 -4 -6 -12 -6 -20 0 -71 44 -62
53 4 4 18 -3 32 -16 22 -20 25 -21 25 -6 0 10 -9 20 -20 23 -11 3 -20 9 -20
13 0 4 -7 10 -14 13 -10 4 -13 1 -10 -7 3 -8 1 -17 -5 -21 -6 -3 -11 -16 -11
-28 0 -41 -30 31 -32 77 l-1 41 -4 -44 -4 -44 -17 24 c-9 13 -18 30 -19 38 -1
8 -12 23 -25 33 l-23 18 35 0 35 1 -32 14 c-36 15 -42 38 -15 55 15 10 15 11
-3 6 -11 -2 -31 -8 -44 -12 -22 -7 -23 -6 -10 8 7 9 17 14 21 12 4 -2 9 0 13
6 3 5 15 10 26 10 21 0 22 1 13 24 -3 9 -12 16 -20 16 -8 0 -11 -6 -8 -15 4
-8 1 -15 -5 -15 -6 0 -11 8 -12 18 0 10 -3 12 -6 5 -2 -7 -9 -13 -14 -13 -4 0
-6 7 -3 15 9 22 -14 18 -26 -5 -6 -11 -16 -20 -22 -20 -9 0 -9 3 0 12 20 20
15 41 -9 35 -20 -5 -20 -5 -4 13 10 11 15 28 12 39 -4 17 -1 19 30 14 34 -6
35 -5 28 18 l-7 24 21 -24 c11 -13 21 -20 21 -15 0 5 5 2 10 -6 8 -13 10 -12
10 3 0 9 -7 17 -15 17 -8 0 -15 7 -15 15 0 8 5 15 10 15 6 0 10 -4 10 -10 0
-5 5 -10 10 -10 6 0 10 7 10 15 0 8 5 15 10 15 6 0 10 -9 10 -19 0 -11 -4 -23
-10 -26 -5 -3 -10 -12 -10 -18 0 -8 4 -7 9 2 8 12 12 12 24 2 10 -8 17 -9 22
-1 3 5 -1 10 -9 10 -9 0 -16 5 -16 10 0 6 9 10 19 10 11 0 23 -4 26 -10 8 -13
25 -13 25 1 0 14 -25 39 -39 39 -14 0 -14 10 2 43 11 24 16 26 46 20 29 -5 33
-3 28 11 -5 12 0 16 16 17 l22 2 -22 4 c-22 4 -22 5 -6 29 11 18 19 22 26 15
18 -18 37 -13 37 9 0 11 -4 20 -10 20 -5 0 -10 7 -10 15 0 8 5 15 11 15 5 0 7
-4 4 -10 -14 -22 7 -8 48 33 l42 42 3 -42 c2 -27 -3 -51 -14 -68z m562 70 c1
-14 -2 -22 -7 -19 -5 3 -6 -2 -3 -10 7 -18 -11 -22 -21 -5 -10 15 3 59 18 59
6 0 13 -11 13 -25z m69 13 c-11 -6 -23 -16 -27 -22 -9 -13 -10 -3 -2 18 3 9
16 16 28 16 21 -1 21 -1 1 -12z m4362 -10 c-3 -8 -6 -5 -6 6 -1 11 2 17 5 13
3 -3 4 -12 1 -19z m-4067 5 c-8 -3 -21 -10 -28 -16 -9 -7 -11 -6 -6 7 3 9 16
16 28 15 14 0 16 -2 6 -6z m-161 -20 c0 -10 -14 -29 -31 -42 -24 -19 -32 -21
-38 -11 -10 16 -4 30 11 30 6 0 7 -5 3 -12 -4 -7 -3 -8 5 -4 6 4 9 11 6 16 -3
5 5 16 17 24 28 20 28 20 27 -1z m81 7 c0 -5 -7 -7 -15 -4 -8 4 -15 8 -15 10
0 2 7 4 15 4 8 0 15 -4 15 -10z m3895 -30 c10 -11 16 -20 13 -20 -3 0 -13 9
-23 20 -10 11 -16 20 -13 20 3 0 13 -9 23 -20z m-4135 0 c0 -5 -5 -10 -11 -10
-5 0 -7 5 -4 10 3 6 8 10 11 10 2 0 4 -4 4 -10z m514 1 c9 -14 -17 -29 -39
-21 -19 7 -19 7 0 18 24 14 32 15 39 3z m-346 -47 c-7 -21 -13 -40 -13 -42 -5
-7 -35 11 -35 21 0 11 51 69 56 64 2 -2 -2 -21 -8 -43z m-248 25 c0 -5 5 -7
10 -4 6 3 10 3 10 -2 0 -9 -70 -56 -76 -51 -2 2 6 18 16 36 19 31 40 42 40 21z
m325 1 c-3 -5 -14 -10 -23 -9 -14 0 -13 2 3 9 27 11 27 11 20 0z m4629 -6 c3
-8 2 -12 -4 -9 -6 3 -10 10 -10 16 0 14 7 11 14 -7z m823 -14 c-2 -23 -2 -23
-30 -8 -21 11 -21 11 -2 19 31 12 34 11 32 -11z m-5690 -43 c-28 -37 -32 -39
-35 -20 -5 32 25 72 48 66 18 -5 17 -8 -13 -46z m1500 47 c-3 -3 -12 -4 -19
-1 -8 3 -5 6 6 6 11 1 17 -2 13 -5z m2672 -28 c-3 -3 -11 5 -18 17 -13 21 -12
21 5 5 10 -10 16 -20 13 -22z m737 -14 c-4 -3 -14 2 -24 12 -16 18 -16 18 6 6
13 -6 21 -14 18 -18z m-4166 8 c0 -5 -5 -10 -11 -10 -5 0 -7 5 -4 10 3 6 8 10
11 10 2 0 4 -4 4 -10z m3608 -35 c-3 -3 -9 2 -12 12 -6 14 -5 15 5 6 7 -7 10
-15 7 -18z m-4398 -8 c0 -26 -25 -66 -35 -56 -7 7 20 79 29 79 4 0 6 -10 6
-23z m4135 -56 c-6 -5 -44 41 -44 54 0 6 11 -3 24 -20 13 -16 22 -31 20 -34z
m-4938 27 c-3 -8 -6 -5 -6 6 -1 11 2 17 5 13 3 -3 4 -12 1 -19z m-23 -23 c-4
-8 -11 -12 -16 -9 -6 4 -5 10 3 15 19 12 19 11 13 -6z m6573 0 c0 -8 -4 -15
-8 -15 -11 0 -20 16 -12 24 11 11 20 7 20 -9z m-1511 -75 c33 -39 63 -80 48
-65 -46 45 -124 135 -103 119 14 -10 39 -35 55 -54z m-126 18 c0 -14 -19 1
-31 25 -12 22 -12 22 10 3 11 -11 21 -23 21 -28z m-135 12 c3 -5 -4 -6 -15 -3
-11 3 -22 9 -25 13 -3 5 4 6 15 3 11 -3 22 -9 25 -13z m218 -47 c20 -29 33
-53 30 -53 -12 0 -73 90 -73 108 0 8 5 2 43 -55z m767 -19 c0 -8 -33 13 -65
41 -25 22 -23 22 18 -5 26 -17 47 -33 47 -36z m-719 -61 c13 -16 12 -17 -3 -4
-10 7 -18 15 -18 17 0 8 8 3 21 -13z m1543 -79 c5 -14 4 -15 -9 -4 -17 14 -19
20 -6 20 5 0 12 -7 15 -16z m75 -148 c29 -8 71 -27 92 -42 72 -50 153 -157
183 -241 8 -22 25 -62 39 -89 13 -27 34 -96 45 -154 12 -58 29 -133 39 -167
21 -75 11 -97 -31 -67 -14 11 -26 23 -26 27 0 5 -8 20 -19 33 -15 19 -19 43
-20 119 -2 76 -8 110 -30 172 -76 209 -122 253 -271 253 -80 0 -125 -24 -185
-101 -64 -81 -97 -104 -135 -90 -17 5 -30 8 -30 5 0 -3 -9 0 -19 5 -18 10 -18
13 -4 53 42 122 68 156 174 228 112 75 118 77 198 56z m-6287 -433 c0 -58 -7
-76 -34 -96 -26 -19 -68 -16 -68 4 0 6 16 31 35 56 19 25 35 53 35 63 0 9 3
20 7 23 13 14 26 -12 25 -50z m5118 37 c0 -5 -2 -10 -4 -10 -3 0 -8 5 -11 10
-3 6 -1 10 4 10 6 0 11 -4 11 -10z m50 -54 c0 -2 -7 -6 -15 -10 -8 -3 -15 -1
-15 4 0 6 7 10 15 10 8 0 15 -2 15 -4z m10 -31 c0 -9 -6 -12 -15 -9 -8 4 -12
10 -9 15 8 14 24 10 24 -6z m20 -45 c6 -11 8 -20 6 -20 -3 0 -10 9 -16 20 -6
11 -8 20 -6 20 3 0 10 -9 16 -20z m1124 -53 c9 -23 16 -51 16 -61 0 -10 7 -39
15 -65 23 -73 66 -283 68 -331 1 -27 -3 -45 -11 -48 -7 -2 -10 -7 -7 -12 6
-10 -15 -8 -31 3 -15 9 -23 67 -13 93 6 17 2 27 -17 45 -13 12 -24 19 -24 15
0 -4 -4 -5 -9 -1 -6 3 -6 18 0 38 11 39 2 87 -17 87 -8 0 -14 8 -14 17 0 9 -8
25 -17 35 -14 16 -15 24 -6 48 6 17 7 32 3 35 -5 3 -11 -3 -13 -12 -3 -10 -3
6 -1 35 3 29 9 61 14 70 5 9 11 25 14 35 9 30 33 18 50 -26z m-1082 -27 c6
-40 -5 -38 -20 3 -16 43 -15 52 2 38 8 -6 16 -25 18 -41z m126 -90 c29 -108
48 -210 38 -200 -4 5 -86 327 -86 338 1 21 21 -37 48 -138z m-97 14 c2 2 4 -9
5 -25 1 -36 -9 -27 -24 21 -10 30 -10 32 2 18 7 -10 15 -16 17 -14z m785 -116
c4 -7 3 -8 -4 -4 -7 4 -12 3 -12 -3 0 -6 -7 -8 -15 -5 -8 4 -12 10 -9 15 7 13
31 11 40 -3z m-649 -155 c-3 -10 -5 -4 -5 12 0 17 2 24 5 18 2 -7 2 -21 0 -30z
m13 -38 c0 -8 -2 -15 -4 -15 -2 0 -6 7 -10 15 -3 8 -1 15 4 15 6 0 10 -7 10
-15z m-3 -50 c-4 -8 -11 -15 -17 -15 -7 0 -7 6 0 21 13 23 26 19 17 -6z m49
-152 c-8 -15 -15 -22 -16 -15 0 17 20 55 27 49 2 -3 -2 -18 -11 -34z m44 -33
c3 6 6 -6 6 -25 l-1 -36 -22 28 c-27 33 -32 64 -7 38 12 -11 19 -13 24 -5z
m-70 -71 c0 -6 -4 -7 -10 -4 -5 3 -10 11 -10 16 0 6 5 7 10 4 6 -3 10 -11 10
-16z m157 -6 c4 -10 17 -33 30 -52 25 -36 29 -51 14 -51 -5 0 -19 20 -31 45
-12 25 -26 47 -31 51 -12 7 -11 24 1 24 6 0 14 -8 17 -17z m-27 -33 c0 -5 -7
-10 -15 -10 -8 0 -15 5 -15 10 0 6 7 10 15 10 8 0 15 -4 15 -10z m-286 -59 c4
-5 -1 -8 -9 -7 -21 3 -31 16 -12 16 9 0 18 -4 21 -9z m216 -17 c0 -17 16 -19
23 -1 3 6 6 0 6 -15 1 -29 -13 -38 -22 -15 -3 6 -6 2 -6 -11 -1 -13 -5 -20
-11 -17 -13 8 -13 -11 0 -36 7 -12 7 -19 1 -19 -6 0 -8 -7 -5 -15 4 -8 1 -15
-4 -15 -6 0 -13 8 -15 18 -16 58 -16 68 3 82 14 10 17 21 13 43 -4 21 -3 28 5
23 7 -4 12 -14 12 -22z m-165 -3 c3 -5 1 -12 -5 -16 -5 -3 -10 1 -10 9 0 18 6
21 15 7z m111 -36 c-11 -11 -16 -12 -19 -2 -3 6 -6 2 -6 -11 -1 -13 4 -32 9
-43 6 -10 7 -19 2 -19 -14 0 -33 43 -30 72 1 15 5 25 9 22 4 -2 13 3 20 12 11
14 13 14 21 -1 6 -10 4 -20 -6 -30z m218 10 c3 -8 1 -15 -4 -15 -6 0 -10 7
-10 15 0 8 2 15 4 15 2 0 6 -7 10 -15z m-286 -24 c11 -7 11 -9 -1 -14 -9 -3
-18 1 -21 9 -6 16 2 18 22 5z m66 -87 c3 -8 2 -12 -4 -9 -6 3 -10 10 -10 16 0
14 7 11 14 -7z m183 -16 c-3 -7 -5 -2 -5 12 0 14 2 19 5 13 2 -7 2 -19 0 -25z
m80 -23 c27 -41 40 -85 24 -85 -5 0 -16 18 -22 40 -7 22 -20 47 -31 56 -10 10
-18 21 -18 25 0 17 26 -3 47 -36z m-142 5 c3 -5 1 -10 -4 -10 -6 0 -11 5 -11
10 0 6 2 10 4 10 3 0 8 -4 11 -10z m70 -69 c-3 -5 2 -12 10 -14 12 -4 12 -5
-1 -3 -19 1 -32 26 -14 26 6 0 9 -4 5 -9z m-64 -48 c13 -16 12 -17 -3 -4 -10
7 -18 15 -18 17 0 8 8 3 21 -13z m103 -25 c-3 -4 -9 -8 -15 -8 -5 0 -9 4 -9 8
0 5 7 9 15 9 8 0 12 -4 9 -9z m-164 -14 c0 -10 6 -14 15 -10 8 3 15 1 15 -4 0
-6 6 -9 13 -7 6 1 11 -4 10 -10 -2 -7 2 -13 7 -13 6 0 10 -4 10 -9 0 -14 -37
-1 -55 19 -9 10 -23 16 -31 13 -9 -3 -14 2 -14 16 0 12 6 21 15 21 8 0 15 -7
15 -16z m10 -100 c0 -8 -4 -12 -10 -9 -5 3 -10 10 -10 16 0 5 5 9 10 9 6 0 10
-7 10 -16z m-209 -222 c8 2 13 -3 11 -11 -2 -9 4 -12 17 -8 13 3 18 1 14 -9
-3 -9 -11 -10 -28 -4 -13 5 -26 5 -32 -1 -6 -6 -17 -4 -29 5 -19 15 -19 15 1
30 12 8 22 10 26 5 3 -6 12 -9 20 -7z m-91 -16 c0 -3 -4 -8 -10 -11 -5 -3 -10
-1 -10 4 0 6 5 11 10 11 6 0 10 -2 10 -4z m-175 -77 c-3 -4 10 -5 27 -2 22 3
30 1 23 -5 -5 -6 -19 -12 -30 -14 -11 -1 -23 -7 -27 -13 -4 -5 -8 -1 -8 11 0
11 -5 25 -12 32 -7 7 -8 12 -4 12 5 0 2 8 -5 18 -7 9 -1 6 13 -7 15 -13 25
-27 23 -32z m245 37 c0 -2 -7 -7 -16 -10 -8 -3 -12 -2 -9 4 6 10 25 14 25 6z
m-330 -56 c0 -5 -2 -10 -4 -10 -3 0 -8 5 -11 10 -3 6 -1 10 4 10 6 0 11 -4 11
-10z m100 -34 c0 -2 -7 -7 -16 -10 -8 -3 -12 -2 -9 4 6 10 25 14 25 6z m80
-27 c0 -6 -4 -7 -10 -4 -5 3 -10 11 -10 16 0 6 5 7 10 4 6 -3 10 -11 10 -16z
m-197 -53 c4 -10 1 -13 -8 -9 -8 3 -12 9 -9 14 7 12 11 11 17 -5z m197 -11 c0
-8 -4 -15 -10 -15 -5 0 -7 7 -4 15 4 8 8 15 10 15 2 0 4 -7 4 -15z m-154 -46
c3 -6 -5 -3 -20 6 -14 10 -26 19 -26 22 0 7 39 -17 46 -28z m120 20 c3 -6 2
-15 -4 -21 -6 -6 -11 -2 -15 11 -5 22 7 29 19 10z m-59 -6 c-4 -3 -2 -12 4
-20 7 -8 8 -13 1 -13 -12 0 -23 26 -15 34 4 3 9 6 11 6 3 0 2 -3 -1 -7z m-17
-33 c0 -5 -2 -10 -4 -10 -3 0 -8 5 -11 10 -3 6 -1 10 4 10 6 0 11 -4 11 -10z
m110 -21 c0 -6 -4 -7 -10 -4 -5 3 -10 11 -10 16 0 6 5 7 10 4 6 -3 10 -11 10
-16z m22 -72 c3 -12 -3 -17 -21 -17 -14 0 -41 48 -35 63 4 12 10 10 29 -9 13
-13 25 -30 27 -37z m-81 -24 c-9 -16 -10 -14 -11 12 0 21 3 26 11 18 8 -8 8
-16 0 -30z m96 -35 c-3 -7 -5 -2 -5 12 0 14 2 19 5 13 2 -7 2 -19 0 -25z m293
-3 c19 -19 32 -35 29 -35 -3 0 -20 16 -39 35 -19 19 -32 35 -29 35 3 0 20 -16
39 -35z m-419 -2 c13 -16 12 -17 -3 -4 -10 7 -18 15 -18 17 0 8 8 3 21 -13z
m34 -3 c-3 -5 -1 -10 5 -10 6 0 8 -5 4 -11 -4 -7 -10 -7 -16 -1 -9 9 -3 32 8
32 3 0 2 -4 -1 -10z m95 -50 c0 -5 -7 -7 -15 -4 -8 4 -12 10 -9 15 6 11 24 2
24 -11z m-138 -5 c0 -5 -5 -11 -11 -13 -6 -2 -11 4 -11 13 0 9 5 15 11 13 6
-2 11 -8 11 -13z m65 -22 c0 -9 -4 -10 -14 -2 -7 6 -13 12 -13 14 0 1 6 2 13
2 8 0 14 -6 14 -14z m-3 -52 c-6 -7 -34 28 -34 42 0 6 9 0 20 -13 11 -13 17
-26 14 -29z m-171 -28 c-7 -2 -19 -2 -25 0 -7 3 -2 5 12 5 14 0 19 -2 13 -5z
m53 -128 c1 -11 5 -28 9 -37 4 -11 3 -18 -4 -18 -6 0 -11 5 -11 11 0 6 -10 19
-22 28 -12 11 -18 23 -14 30 12 18 41 9 42 -14z m1257 -12 c8 -30 8 -86 1
-118 -7 -30 -7 -30 -16 -6 -12 33 -21 119 -13 131 10 15 23 12 28 -7z m-1289
-122 c4 -5 -3 -7 -14 -4 -23 6 -26 13 -6 13 8 0 17 -4 20 -9z m-119 -79 c-3
-3 -11 0 -18 7 -9 10 -8 11 6 5 10 -3 15 -9 12 -12z m-21 -50 c3 -5 -1 -9 -9
-9 -8 0 -12 4 -9 9 3 4 7 8 9 8 2 0 6 -4 9 -8z m1431 -32 c-3 -5 0 -10 7 -10
9 0 9 -3 -2 -10 -8 -5 -11 -10 -6 -10 5 0 4 -6 -2 -12 -5 -7 -9 -25 -7 -39 4
-32 -17 -33 -40 -3 -18 24 -19 35 -2 28 15 -5 44 23 34 33 -4 3 -2 12 4 20 13
15 23 18 14 3z m-1495 -114 c0 -11 -19 -15 -25 -6 -3 5 1 10 9 10 9 0 16 -2
16 -4z m-1230 -107 c0 -5 -4 -9 -8 -9 -5 0 -9 7 -9 15 0 8 4 12 9 9 4 -3 8 -9
8 -15z m225 -40 c9 -17 14 -33 11 -36 -3 -3 -8 2 -12 11 -3 9 -9 14 -13 12 -3
-2 -7 7 -7 20 -2 32 2 30 21 -7z m-35 -90 c0 -3 -6 -6 -14 -6 -8 0 -11 8 -8
20 4 14 7 16 13 5 5 -7 9 -16 9 -19z m2481 -16 c13 -16 12 -17 -3 -4 -10 7
-18 15 -18 17 0 8 8 3 21 -13z m-3968 -10 c-5 -12 -3 -14 8 -8 8 5 11 5 6 -1
-5 -5 -12 -9 -15 -9 -11 1 -63 -48 -57 -53 3 -3 15 3 27 14 21 17 21 16 -1 -9
-14 -15 -29 -27 -35 -27 -12 0 -56 -40 -56 -52 0 -5 5 -6 10 -3 15 9 12 -18
-3 -39 -12 -16 -15 -17 -20 -3 -13 35 15 91 75 149 33 32 62 58 64 58 2 0 0
-7 -3 -17z m3927 -33 c0 -13 -6 -20 -17 -19 -11 0 -13 3 -5 6 6 2 12 11 12 19
0 8 2 14 5 14 3 0 5 -9 5 -20z m-3890 6 c0 -3 -4 -8 -10 -11 -5 -3 -10 -1 -10
4 0 6 5 11 10 11 6 0 10 -2 10 -4z m1880 -6 c0 -5 -4 -10 -9 -10 -6 0 -13 5
-16 10 -3 6 1 10 9 10 9 0 16 -4 16 -10z m460 -5 c0 -8 -4 -15 -10 -15 -5 0
-7 7 -4 15 4 8 8 15 10 15 2 0 4 -7 4 -15z m1610 -26 c0 -11 -4 -18 -10 -14
-5 3 -14 -9 -19 -27 -7 -26 -9 -28 -10 -10 -1 13 -5 20 -11 17 -5 -3 -10 -4
-10 -1 0 2 -3 12 -7 22 -5 13 -3 16 10 11 10 -4 17 -1 17 6 0 7 9 13 20 14 14
1 20 -4 20 -18z m-3985 -19 c-3 -5 -1 -10 4 -10 6 0 11 -11 11 -25 0 -16 -6
-25 -15 -25 -8 0 -15 -5 -15 -11 0 -5 5 -7 11 -3 7 4 10 1 7 -6 -2 -8 -10 -16
-18 -18 -7 -3 -10 0 -6 6 3 6 2 12 -4 14 -6 2 -4 15 5 32 19 36 12 45 -17 20
-22 -19 -23 -19 -8 1 8 11 20 23 25 27 15 11 27 10 20 -2z m2395 -1 c0 -5 5
-7 12 -3 7 4 8 3 4 -5 -6 -9 -11 -9 -22 0 -17 14 -18 19 -4 19 6 0 10 -5 10
-11z m-2463 -76 c-5 -13 -13 -21 -16 -18 -10 11 -10 40 1 53 17 20 29 -6 15
-35z m16 -63 c-10 -18 -20 -25 -24 -19 -4 8 -8 7 -12 -2 -3 -8 -6 -9 -6 -3 -1
17 39 65 50 58 5 -3 2 -18 -8 -34z m-106 -7 c-3 -10 -5 -4 -5 12 0 17 2 24 5
18 2 -7 2 -21 0 -30z m43 13 c0 -3 -4 -8 -10 -11 -5 -3 -10 -1 -10 4 0 6 5 11
10 11 6 0 10 -2 10 -4z m130 -11 c0 -8 -4 -15 -10 -15 -5 0 -7 7 -4 15 4 8 8
15 10 15 2 0 4 -7 4 -15z m-137 -45 c-3 -11 -9 -20 -14 -20 -11 0 -11 3 -3 24
9 23 23 20 17 -4z m494 -12 c-3 -7 -5 -2 -5 12 0 14 2 19 5 13 2 -7 2 -19 0
-25z m-516 -54 c-5 -16 -10 -21 -10 -12 -1 18 10 51 15 45 2 -1 -1 -16 -5 -33z
m-40 -31 c-9 -16 -10 -15 -11 8 0 14 3 29 8 33 12 12 14 -22 3 -41z m209 39
c0 -5 -6 -17 -14 -27 -13 -18 -14 -18 -9 8 5 24 23 39 23 19z m-65 -22 c3 -5
1 -10 -4 -10 -6 0 -11 5 -11 10 0 6 2 10 4 10 3 0 8 -4 11 -10z m-168 -42 c-3
-8 -6 -5 -6 6 -1 11 2 17 5 13 3 -3 4 -12 1 -19z m173 18 c0 -3 -4 -8 -10 -11
-5 -3 -10 -1 -10 4 0 6 5 11 10 11 6 0 10 -2 10 -4z m-188 -118 c-8 -8 -9 -4
-5 13 4 13 8 18 11 10 2 -7 -1 -18 -6 -23z m112 -63 c3 -8 1 -15 -4 -15 -6 0
-10 7 -10 15 0 8 2 15 4 15 2 0 6 -7 10 -15z m-31 -50 c-3 -9 -8 -14 -10 -11
-3 3 -2 9 2 15 9 16 15 13 8 -4z m-321 -27 c-7 -7 -12 -8 -12 -2 0 6 3 14 7
17 3 4 9 5 12 2 2 -3 -1 -11 -7 -17z m1428 -126 c0 -7 5 -10 10 -7 11 7 12 4
15 -37 1 -16 -3 -28 -8 -28 -6 0 -7 -3 -4 -7 4 -3 2 -12 -4 -20 -8 -9 -8 -13
-1 -13 6 0 14 4 17 10 3 5 15 15 26 21 19 10 20 9 9 -10 -6 -12 -15 -21 -20
-21 -6 0 -10 -5 -10 -10 0 -6 11 -3 25 6 14 9 25 13 25 9 0 -4 7 -1 17 6 13
12 17 12 21 1 3 -10 8 -7 19 7 11 17 18 19 33 11 12 -6 21 -7 25 0 3 5 11 7
19 4 7 -3 18 5 25 18 11 21 11 20 6 -11 -4 -27 -2 -31 8 -22 11 8 16 5 26 -17
10 -24 10 -25 -3 -9 -14 18 -15 17 -18 -10 -2 -19 -8 -28 -20 -27 -10 1 -16
-3 -15 -10 1 -6 -4 -10 -10 -8 -7 1 -13 -4 -13 -10 0 -9 -4 -8 -10 2 -9 13
-10 13 -10 -1 0 -13 -65 -58 -87 -61 -9 -1 -26 -6 -50 -14 -10 -4 -27 -8 -38
-9 -11 -1 -45 -10 -75 -20 -30 -9 -65 -17 -77 -17 -13 0 -23 -4 -23 -8 0 -5
-8 -9 -17 -9 -10 0 -36 -4 -58 -8 -22 -5 -55 -9 -72 -8 -18 0 -33 -5 -33 -10
0 -6 -11 -12 -26 -13 -14 -1 -34 -6 -44 -12 -10 -5 -30 -10 -43 -10 -14 0 -28
-7 -31 -17 -6 -15 -8 -15 -16 -3 -5 8 -12 11 -16 7 -4 -4 -14 -1 -22 6 -12 10
-16 9 -20 -2 -4 -11 -6 -11 -13 0 -7 12 -10 12 -21 0 -9 -10 -10 -12 -1 -7 8
5 11 2 7 -7 -2 -7 -11 -14 -19 -14 -18 0 -18 2 -5 28 6 10 7 19 2 19 -5 0 -15
-11 -22 -25 l-14 -26 -13 23 c-12 23 -12 22 -13 -9 0 -17 5 -35 11 -38 6 -4 7
-14 4 -24 -11 -26 -5 -142 9 -175 7 -17 21 -38 32 -46 14 -12 14 -9 -4 14 -18
24 -22 42 -22 102 0 40 4 76 10 79 6 4 7 -1 3 -11 -5 -13 -3 -15 7 -9 10 6 12
0 7 -29 -3 -20 -2 -34 3 -31 14 9 32 -34 26 -61 -9 -34 2 -30 20 9 l15 32 -7
-30 c-13 -59 -21 -150 -15 -157 4 -4 7 2 8 14 3 31 19 44 38 28 13 -11 14 -10
9 4 -7 19 5 20 29 2 10 -8 14 -17 8 -20 -5 -3 -12 0 -14 6 -4 9 -6 10 -6 1 -1
-6 3 -14 9 -18 15 -9 0 -35 -32 -51 -21 -11 -27 -19 -20 -26 14 -14 112 9 119
28 3 8 10 14 16 14 6 0 -10 -21 -36 -47 -25 -27 -45 -51 -44 -56 3 -10 -52
-77 -64 -77 -6 0 -3 7 5 16 9 8 16 22 16 30 0 8 7 17 16 21 12 4 13 8 3 14
-14 8 -46 -28 -41 -45 4 -12 -29 -47 -39 -40 -5 3 -9 -2 -9 -10 0 -25 -37 -39
-72 -27 -27 10 -33 8 -45 -9 -18 -26 -30 -25 -28 2 1 12 10 24 19 28 15 5 14
8 -9 18 -34 16 -33 16 -38 -10 -5 -20 -5 -20 -4 2 1 14 -9 40 -21 58 -18 24
-23 43 -20 75 2 33 -1 42 -15 45 -9 2 -21 18 -26 35 l-9 32 -1 -32 c-1 -21 -8
-36 -20 -43 -17 -8 -19 -7 -16 7 7 38 25 73 36 73 7 0 9 3 6 7 -4 3 3 17 15
30 13 14 17 23 9 23 -8 0 -11 6 -7 15 13 36 -6 10 -30 -40 -15 -30 -31 -55
-36 -55 -5 0 -6 5 -3 10 4 6 1 18 -6 26 -10 12 -8 18 9 30 12 8 22 20 22 26 0
6 -9 3 -19 -6 -22 -20 -58 -17 -52 5 2 8 5 58 5 112 1 74 5 100 16 107 8 5 11
12 8 16 -4 4 1 19 12 34 13 18 16 30 9 37 -12 12 36 68 66 77 11 3 42 33 68
66 50 62 62 69 70 48 4 -9 6 -8 6 3 1 10 12 15 34 16 53 2 70 9 78 29 4 10 8
15 8 10 1 -5 11 3 24 18 35 41 65 51 144 51 40 0 73 3 73 8 0 10 42 9 60 -3 8
-5 20 -24 27 -42 l13 -33 -4 42 c-4 44 0 51 34 58 13 2 20 -2 20 -11 0 -21 14
-17 25 8 15 32 33 33 41 1 l7 -28 10 28 c5 16 14 26 21 24 7 -3 18 -2 25 2 20
13 71 7 71 -7z m717 -146 c-17 -13 -23 -36 -9 -36 4 0 14 9 22 20 20 27 27 25
46 -12 10 -19 19 -28 22 -20 7 21 41 -26 35 -48 -5 -19 -6 -19 -24 3 l-19 22
6 -30 c3 -16 6 -39 7 -50 1 -11 6 -23 12 -27 5 -4 8 -23 7 -42 -2 -22 2 -36 9
-36 8 0 8 -5 -1 -15 -7 -9 -19 -14 -27 -11 -8 3 -12 2 -9 -2 3 -5 9 -27 14
-50 l10 -41 -27 17 -26 16 22 -25 c25 -29 55 -98 47 -110 -2 -5 -1 -17 4 -26
11 -21 5 -46 -9 -37 -5 3 -9 0 -9 -5 0 -6 -4 -11 -10 -11 -18 0 -10 19 11 25
24 8 21 14 -10 20 -11 2 -21 0 -21 -6 0 -17 -40 16 -55 46 -13 26 -15 27 -15
8 0 -12 -5 -25 -10 -28 -6 -4 -9 -22 -8 -40 1 -19 -1 -37 -5 -41 -4 -4 -7 -2
-7 4 0 7 -6 12 -14 12 -8 0 -32 17 -52 38 -21 20 -31 28 -22 17 31 -39 49 -86
46 -120 -1 -19 -6 -35 -11 -35 -4 0 -5 -10 -1 -22 6 -20 5 -21 -10 -9 -14 12
-16 12 -10 -4 5 -13 4 -16 -4 -11 -7 4 -12 14 -12 22 0 8 -5 14 -11 14 -7 0
-8 -7 -4 -17 5 -10 9 -34 11 -53 l3 -35 -8 33 c-12 46 -17 48 -30 12 -13 -38
-31 -31 -31 13 0 24 -3 28 -10 17 -8 -13 -11 -12 -24 5 -9 11 -16 15 -16 8 0
-6 7 -18 15 -27 17 -17 19 -54 5 -76 -9 -13 -10 -13 -11 0 -1 8 -1 18 0 23 2
14 -18 7 -28 -10 -10 -17 -10 -16 -11 2 0 11 -5 27 -11 35 -9 12 -10 11 -4 -5
5 -16 0 -14 -26 10 l-33 30 31 -40 c30 -40 57 -104 48 -113 -3 -3 -5 1 -6 9 0
8 -4 6 -9 -6 -7 -16 -9 -12 -10 20 l-2 40 -12 -39 c-24 -75 -66 -45 -66 47 0
60 -15 80 -28 36 -6 -19 -19 -56 -31 -84 -11 -27 -23 -68 -27 -90 l-7 -40 -10
53 c-9 55 -4 88 12 78 5 -3 7 3 4 14 -7 24 -23 26 -23 3 0 -14 -3 -13 -16 5
-9 13 -13 26 -10 29 3 4 6 1 6 -5 0 -6 7 -9 15 -6 8 4 15 12 15 20 0 8 -6 11
-16 7 -9 -3 -15 -2 -12 3 2 5 13 29 25 54 11 25 28 52 38 60 9 8 21 25 26 38
5 13 14 20 20 17 6 -4 13 2 16 14 3 12 10 21 15 21 5 0 6 5 3 10 -3 6 0 10 7
10 10 0 10 2 -1 9 -11 7 -11 10 0 17 8 5 20 9 27 10 14 2 62 54 62 66 0 4 8 9
19 13 11 3 19 15 19 28 0 32 73 139 90 132 11 -4 13 3 10 32 -3 21 3 67 13
102 10 35 18 66 17 70 0 3 0 13 1 21 1 12 3 12 10 2 6 -10 10 -7 15 13 6 22 9
25 21 15 12 -10 16 -9 21 4 3 9 10 13 15 10 5 -3 9 0 9 7 0 7 3 9 7 5 5 -4 0
-13 -10 -20z m-130 -148 c-3 -8 -6 -5 -6 6 -1 11 2 17 5 13 3 -3 4 -12 1 -19z
m-2007 -9 c0 -6 -4 -7 -10 -4 -5 3 -10 11 -10 16 0 6 5 7 10 4 6 -3 10 -11 10
-16z m4 -120 c2 -8 8 -27 14 -42 14 -34 15 -37 2 -37 -5 0 -12 11 -16 25 -3
14 -10 25 -14 25 -9 0 -19 47 -12 55 7 7 23 -9 26 -26z m1403 9 c-3 -8 -6 -5
-6 6 -1 11 2 17 5 13 3 -3 4 -12 1 -19z m563 7 c0 -14 -25 -55 -36 -59 -19 -7
-18 8 1 24 8 7 15 19 15 26 0 8 5 14 10 14 6 0 10 -2 10 -5z m-1085 -35 c-4
-12 -9 -19 -12 -17 -3 3 -2 15 2 27 4 12 9 19 12 17 3 -3 2 -15 -2 -27z m524
-50 l-1 -35 -8 30 c-4 17 -8 39 -9 50 -1 16 1 17 9 5 5 -8 9 -31 9 -50z m-88
-161 l-10 -24 0 26 c-1 14 2 29 6 33 12 12 14 -9 4 -35z m-448 -29 c3 -11 1
-18 -4 -14 -5 3 -9 12 -9 20 0 20 7 17 13 -6z m66 -28 c-5 -2 -17 -1 -27 3
-13 5 -14 8 -3 15 8 5 19 3 26 -3 7 -7 9 -14 4 -15z m21 -82 c0 -5 -7 -10 -16
-10 -8 0 -12 5 -9 10 3 6 10 10 16 10 5 0 9 -4 9 -10z m-5 -29 c-2 -5 -16 -8
-31 -8 -14 0 -21 2 -15 6 15 10 52 11 46 2z m54 -23 c-6 -13 -25 -34 -42 -48
l-32 -24 20 24 c31 39 58 70 62 70 1 0 -2 -10 -8 -22z m626 2 c-7 -21 10 -28
18 -7 4 9 6 9 6 0 1 -6 -8 -18 -19 -26 -11 -8 -17 -18 -12 -23 4 -4 -1 -2 -11
6 -15 11 -16 15 -5 20 7 3 13 11 14 18 2 25 4 32 10 32 3 0 2 -9 -1 -20z m467
-5 c3 -13 1 -22 -3 -19 -9 5 -13 44 -5 44 2 0 6 -11 8 -25z m-1552 5 c0 -5 -7
-10 -16 -10 -8 0 -12 5 -9 10 3 6 10 10 16 10 5 0 9 -4 9 -10z m520 -4 c0 -8
3 -21 6 -30 8 -21 -57 -81 -68 -63 -4 6 -8 8 -8 3 0 -5 -8 -2 -17 5 -16 13
-17 12 -5 -3 8 -9 11 -22 7 -27 -5 -10 -49 -32 -85 -44 -12 -4 -11 -6 3 -6 23
-1 22 -13 -3 -28 -12 -8 -21 -9 -25 -3 -10 16 -24 2 -18 -19 3 -11 -2 -30 -11
-43 -16 -23 -19 -19 -17 18 2 18 -3 21 -33 18 l-36 -2 36 33 c38 36 77 58 54
30 -10 -12 -10 -15 2 -15 8 0 20 11 26 24 16 35 54 76 64 70 5 -3 18 6 29 20
13 16 27 23 41 21 25 -5 48 11 48 32 0 12 -3 12 -16 -2 -20 -20 -32 -11 -14
10 16 19 40 20 40 1z m480 -11 c-13 -16 -40 -20 -40 -7 0 14 12 22 33 22 16 0
17 -3 7 -15z m30 -14 c0 -5 -7 -11 -15 -15 -15 -5 -20 5 -8 17 9 10 23 9 23
-2z m-449 -19 c-5 -10 -17 -25 -26 -32 -15 -13 -17 -11 -13 10 2 14 9 24 16
23 6 -2 12 2 12 7 0 6 5 10 10 10 7 0 7 -6 1 -18z m399 -7 c-7 -9 -15 -13 -19
-10 -3 3 1 10 9 15 21 14 24 12 10 -5z m-385 -21 c-9 -14 -25 -34 -36 -45 -11
-11 -17 -24 -13 -30 7 -11 -43 -69 -59 -69 -6 0 -24 -11 -42 -24 -38 -29 -51
-32 -88 -23 -24 7 -27 10 -16 23 6 8 14 12 17 9 3 -3 23 20 45 50 21 30 44 55
50 56 26 1 49 8 55 15 4 4 -1 4 -10 1 -10 -4 -18 -3 -18 2 0 12 39 21 45 11 3
-5 -2 -16 -11 -25 -9 -9 -14 -19 -10 -22 3 -3 27 17 52 45 52 57 66 66 39 26z
m450 16 c-3 -5 -1 -10 4 -10 31 0 1 -104 -43 -152 -19 -21 -37 -46 -41 -57 -8
-25 -38 -38 -31 -13 2 9 8 33 11 52 4 19 12 40 17 47 11 14 18 63 9 63 -4 0
-15 -27 -24 -60 -10 -33 -21 -58 -25 -56 -4 2 -6 -14 -4 -36 3 -24 -1 -44 -8
-51 -10 -9 -11 -9 -6 0 3 6 2 22 -3 35 -9 22 -9 21 -9 -7 1 -52 -11 -75 -38
-73 -21 2 -24 6 -19 28 3 14 0 32 -6 40 -9 13 -10 13 -6 0 5 -18 -10 -50 -23
-50 -6 0 -10 5 -10 11 0 5 5 7 12 3 6 -4 8 -3 5 3 -4 6 -16 13 -28 16 -15 4
-19 2 -15 -9 3 -9 1 -12 -4 -9 -17 10 -11 30 15 55 14 13 25 28 25 33 0 4 -12
-5 -26 -22 -14 -17 -30 -29 -35 -25 -5 3 -9 -5 -10 -18 0 -21 -1 -21 -8 -4
-11 28 -19 8 -16 -38 2 -38 2 -38 -10 -15 -7 13 -11 27 -9 31 3 4 -2 5 -11 1
-16 -5 -16 -3 0 28 17 33 17 34 -1 18 -11 -8 -26 -14 -35 -12 -14 3 -15 9 -6
34 14 37 30 39 17 2 -10 -27 -9 -27 5 -8 9 11 15 31 14 45 -4 48 1 76 16 96
13 18 14 18 9 -6 -5 -20 -3 -22 5 -10 9 12 11 10 11 -10 0 -15 5 -31 11 -37 8
-8 8 -13 0 -17 -14 -9 -15 -66 -1 -66 6 0 10 12 10 27 0 19 15 42 48 77 26 27
39 46 30 43 -20 -7 -24 9 -8 33 8 12 10 12 10 1 0 -11 4 -10 19 3 18 16 20 16
39 -4 15 -17 18 -30 14 -67 -3 -33 -2 -44 6 -39 7 4 12 17 12 29 0 12 0 38 1
57 1 34 1 34 12 10 10 -24 11 -24 14 -3 6 30 32 51 42 34 6 -9 10 -7 13 7 4
13 16 22 34 25 16 2 30 5 32 6 2 0 0 -3 -3 -9z m180 -141 c5 -8 0 -6 -12 4
-16 14 -22 15 -27 5 -3 -7 -3 -2 0 12 5 25 5 25 -11 5 -16 -19 -17 -19 -10 15
4 19 15 49 23 65 l16 30 7 -61 c3 -33 9 -67 14 -75z m-1160 73 c-8 -8 -25 10
-25 26 0 13 2 13 14 -4 8 -10 13 -21 11 -22z m585 -7 c14 9 -1 -78 -18 -105
-9 -14 -15 -29 -14 -34 3 -10 -17 -36 -29 -36 -5 0 -6 13 -3 29 3 16 1 37 -5
48 -9 15 -10 11 -11 -23 0 -27 -6 -46 -17 -55 -15 -12 -16 -12 -8 1 7 12 6 13
-7 3 -8 -7 -18 -10 -21 -6 -4 3 -7 -1 -7 -9 0 -9 -9 -18 -19 -21 -17 -4 -19 0
-15 32 l5 36 -15 -25 -16 -25 6 30 c9 41 15 49 25 34 6 -10 10 -7 18 12 9 25
80 89 98 89 4 0 15 10 22 23 9 14 16 17 19 9 2 -6 7 -10 12 -7z m117 -53 c-32
-31 -41 -26 -22 11 8 15 10 25 5 22 -14 -9 -12 3 2 19 11 11 15 10 27 -6 12
-18 11 -23 -12 -46z m320 1 c-3 -10 -5 -2 -5 17 0 19 2 27 5 18 2 -10 2 -26 0
-35z m-687 12 c-7 -9 -15 -13 -17 -11 -7 7 7 26 19 26 6 0 6 -6 -2 -15z m667
-31 c-2 -13 1 -25 7 -27 8 -3 7 -8 -1 -18 -7 -7 -13 -18 -13 -23 0 -6 5 -4 10
4 15 24 11 -2 -5 -34 -8 -15 -13 -32 -10 -36 3 -5 -4 -18 -16 -29 -12 -11 -19
-26 -16 -35 4 -10 1 -13 -7 -10 -11 4 -11 13 -2 44 6 21 15 42 19 46 4 4 7 14
7 23 -1 13 -3 12 -15 -3 -18 -23 -19 -17 -4 21 8 22 12 24 19 13 8 -13 10 -12
10 2 0 9 -5 18 -11 20 -9 3 -8 14 1 40 15 40 35 41 27 2z m-876 -17 c-10 -9
-11 -8 -5 6 3 10 9 15 12 12 3 -3 0 -11 -7 -18z m919 3 c0 -5 -2 -10 -4 -10
-3 0 -8 5 -11 10 -3 6 -1 10 4 10 6 0 11 -4 11 -10z m58 -35 c-3 -3 -9 2 -12
12 -6 14 -5 15 5 6 7 -7 10 -15 7 -18z m-166 -27 c-4 -40 -22 -53 -22 -17 0
20 19 64 24 57 2 -1 1 -20 -2 -40z m-667 1 c4 -6 14 -8 22 -5 8 3 11 1 8 -5
-4 -5 -15 -7 -26 -4 -11 4 -19 3 -18 -2 4 -21 -2 -43 -11 -43 -7 0 -8 6 -2 16
5 9 7 25 5 35 -6 20 11 26 22 8z m98 -24 c-17 -36 -33 -46 -33 -20 0 12 37 55
47 55 1 0 -5 -16 -14 -35z m527 -33 c-6 -2 -10 -10 -10 -18 0 -8 -4 -14 -10
-14 -13 0 -13 16 1 42 9 17 13 18 20 7 5 -8 4 -15 -1 -17z m-310 8 c0 -14 -37
-50 -44 -42 -3 3 -6 -1 -6 -8 0 -7 -3 -11 -6 -7 -4 3 4 19 17 36 25 31 39 39
39 21z m263 -40 c-3 -11 -7 -20 -9 -20 -2 0 -4 9 -4 20 0 11 4 20 9 20 5 0 7
-9 4 -20z m160 5 c-3 -9 -8 -14 -10 -11 -3 3 -2 9 2 15 9 16 15 13 8 -4z
m-403 1 c0 -3 -4 -8 -10 -11 -5 -3 -10 -1 -10 4 0 6 5 11 10 11 6 0 10 -2 10
-4z m277 -48 c-3 -7 -5 -2 -5 12 0 14 2 19 5 13 2 -7 2 -19 0 -25z m-626 -20
l23 -33 -27 24 c-15 14 -27 28 -27 33 0 15 8 8 31 -24z m332 -575 c7 -7 -11
-33 -23 -33 -4 0 -10 9 -13 20 -4 14 0 20 12 20 10 0 21 -3 24 -7z m1383 -748
c13 -13 12 -16 -5 -26 -17 -12 -18 -15 -4 -36 8 -13 11 -23 7 -23 -5 0 -3 -4
5 -9 11 -7 9 -14 -14 -35 -26 -24 -29 -25 -42 -8 -8 9 -11 11 -8 4 16 -31 -23
-90 -40 -61 -4 5 -1 8 6 7 13 -3 30 63 33 125 1 28 11 36 19 15 3 -8 6 -6 6 5
1 9 6 17 12 17 6 0 8 9 4 20 -8 24 1 26 21 5z m-156 -155 c0 -4 -9 -6 -21 -3
-15 4 -17 8 -8 14 14 8 29 3 29 -11z m-52 -56 c3 -62 5 -67 23 -70 7 -2 24 -5
36 -8 17 -4 21 -1 18 15 -3 14 1 19 13 17 9 -2 17 2 17 9 0 25 15 25 15 0 0
-15 -3 -27 -8 -27 -4 0 -6 -18 -4 -40 3 -32 1 -40 -13 -40 -9 0 -14 -4 -10 -9
3 -5 1 -12 -4 -15 -5 -4 -11 2 -13 11 -2 10 -12 -12 -22 -50 -20 -71 -16 -67
-90 -82 -31 -6 -96 18 -96 35 0 9 -11 31 -25 50 -25 34 -34 80 -16 80 6 0 25
25 43 55 18 30 36 55 40 55 3 0 9 13 13 29 5 22 13 31 33 34 43 6 47 3 50 -49z
m36 -300 c3 -8 2 -12 -4 -9 -6 3 -10 10 -10 16 0 14 7 11 14 -7z m-84 -109 c0
-8 -9 -23 -20 -33 -23 -21 -136 -59 -147 -49 -3 4 -1 7 6 7 7 0 9 5 6 10 -3 6
-2 10 3 10 5 0 15 13 22 29 13 33 25 38 88 40 31 1 42 -3 42 -14z m-216 -116
c-3 -5 -10 -7 -15 -3 -5 3 -7 10 -3 15 3 5 10 7 15 3 5 -3 7 -10 3 -15z"/>
<path d="M4700 11445 c0 -2 15 -12 33 -20 l32 -16 -25 20 c-24 20 -40 26 -40
16z"/>
<path d="M4837 11369 c12 -12 93 -51 93 -44 0 5 -87 55 -96 55 -5 0 -3 -5 3
-11z"/>
<path d="M4970 11296 c0 -2 12 -12 28 -21 l27 -18 -19 21 c-17 20 -36 29 -36
18z"/>
<path d="M5508 10763 c7 -3 16 -2 19 1 4 3 -2 6 -13 5 -11 0 -14 -3 -6 -6z"/>
<path d="M6081 10614 c0 -11 3 -14 6 -6 3 7 2 16 -1 19 -3 4 -6 -2 -5 -13z"/>
<path d="M6081 10583 c-1 -6 -4 -20 -7 -30 -5 -17 -5 -17 6 0 6 10 9 23 6 30
-3 9 -5 9 -5 0z"/>
<path d="M5410 9065 c0 -8 4 -15 10 -15 5 0 7 7 4 15 -4 8 -8 15 -10 15 -2 0
-4 -7 -4 -15z"/>
<path d="M573 8075 c-9 -10 -6 -14 13 -18 27 -5 30 -1 11 17 -10 10 -15 10
-24 1z"/>
<path d="M647 8050 c3 -11 7 -20 9 -20 2 0 4 9 4 20 0 11 -4 20 -9 20 -5 0 -7
-9 -4 -20z"/>
<path d="M496 8010 c7 -7 19 -7 35 -1 23 9 22 10 -10 10 -24 1 -32 -2 -25 -9z"/>
<path d="M490 7935 c0 -9 5 -15 11 -13 6 2 11 8 11 13 0 5 -5 11 -11 13 -6 2
-11 -4 -11 -13z"/>
<path d="M545 7921 l-30 -7 27 -5 c18 -4 29 -1 32 7 3 8 4 13 3 13 -1 -1 -15
-4 -32 -8z"/>
<path d="M463 7843 c-16 -33 -16 -43 -3 -43 6 0 10 9 10 20 0 17 4 18 25 10
22 -9 25 -7 25 15 0 16 -6 25 -16 25 -10 0 -14 -6 -10 -15 3 -8 1 -15 -4 -15
-5 0 -10 7 -12 15 -2 10 -7 5 -15 -12z"/>
<path d="M544 7848 c-3 -4 4 -8 15 -8 12 0 21 4 21 8 0 5 -7 9 -15 9 -9 0 -18
-4 -21 -9z"/>
<path d="M398 7655 c2 -14 6 -25 8 -25 2 0 4 11 4 25 0 14 -4 25 -9 25 -4 0
-6 -11 -3 -25z"/>
<path d="M6070 5520 c0 -5 5 -10 11 -10 5 0 7 5 4 10 -3 6 -8 10 -11 10 -2 0
-4 -4 -4 -10z"/>
<path d="M5915 5160 c3 -5 8 -10 11 -10 2 0 4 5 4 10 0 6 -5 10 -11 10 -5 0
-7 -4 -4 -10z"/>
<path d="M5758 4793 c7 -3 16 -2 19 1 4 3 -2 6 -13 5 -11 0 -14 -3 -6 -6z"/>
<path d="M2950 3889 c0 -5 5 -7 10 -4 6 3 10 8 10 11 0 2 -4 4 -10 4 -5 0 -10
-5 -10 -11z"/>
<path d="M4206 3243 c-6 -14 -5 -15 5 -6 7 7 10 15 7 18 -3 3 -9 -2 -12 -12z"/>
<path d="M3270 2955 c-8 -9 -8 -15 -2 -15 12 0 26 19 19 26 -2 2 -10 -2 -17
-11z"/>
<path d="M3056 2793 c-6 -14 -5 -15 5 -6 7 7 10 15 7 18 -3 3 -9 -2 -12 -12z"/>
<path d="M3155 2759 c-4 -6 -5 -12 -2 -15 2 -3 7 2 10 11 7 17 1 20 -8 4z"/>
<path d="M4728 3053 c7 -3 16 -2 19 1 4 3 -2 6 -13 5 -11 0 -14 -3 -6 -6z"/>
<path d="M4670 2730 c0 -5 5 -10 11 -10 5 0 7 5 4 10 -3 6 -8 10 -11 10 -2 0
-4 -4 -4 -10z"/>
<path d="M4257 2441 c-3 -11 0 -22 7 -24 6 -3 11 6 11 19 0 29 -11 32 -18 5z"/>
<path d="M3566 2442 c-3 -5 1 -9 9 -9 8 0 15 4 15 9 0 4 -4 8 -9 8 -6 0 -12
-4 -15 -8z"/>
<path d="M3596 2321 l-20 -26 25 20 c13 11 25 21 27 21 2 1 0 4 -5 7 -4 3 -17
-7 -27 -22z"/>
<path d="M4106 2345 c-3 -8 -2 -25 3 -37 7 -19 9 -17 8 15 -1 41 -2 44 -11 22z"/>
<path d="M4005 2270 c-3 -5 -1 -10 4 -10 6 0 11 5 11 10 0 6 -2 10 -4 10 -3 0
-8 -4 -11 -10z"/>
<path d="M4060 9239 c0 -5 5 -7 10 -4 6 3 10 8 10 11 0 2 -4 4 -10 4 -5 0 -10
-5 -10 -11z"/>
<path d="M4105 9241 c-15 -6 -12 -9 20 -14 43 -7 58 -1 35 13 -18 11 -28 11
-55 1z"/>
<path d="M3437 8693 c-4 -3 -7 -11 -7 -17 0 -6 5 -5 12 2 6 6 9 14 7 17 -3 3
-9 2 -12 -2z"/>
<path d="M4902 8548 c-10 -30 -10 -31 3 -14 13 17 21 46 12 46 -1 0 -8 -15
-15 -32z"/>
<path d="M5015 8520 c3 -5 13 -10 21 -10 8 0 14 -6 14 -12 0 -9 3 -8 10 2 11
18 9 20 -25 26 -17 3 -24 1 -20 -6z"/>
<path d="M3230 8369 c0 -5 5 -7 10 -4 6 3 10 8 10 11 0 2 -4 4 -10 4 -5 0 -10
-5 -10 -11z"/>
<path d="M2988 8193 c7 -3 16 -2 19 1 4 3 -2 6 -13 5 -11 0 -14 -3 -6 -6z"/>
<path d="M1682 8104 c-13 -9 -21 -22 -18 -30 6 -16 -12 -30 -35 -26 -28 5 -31
-25 -3 -31 17 -3 38 5 64 24 40 29 52 46 25 36 -11 -5 -12 -1 -5 18 11 29 3
31 -28 9z"/>
<path d="M1559 8104 c-1 -2 -2 -7 -3 -11 -1 -5 -5 -14 -10 -22 -7 -11 -5 -13
8 -8 10 4 26 7 37 7 28 0 23 27 -6 32 -14 3 -26 4 -26 2z"/>
<path d="M2153 8103 c4 -3 5 -9 1 -14 -7 -12 7 -11 26 1 9 6 10 10 3 10 -6 0
-17 2 -25 3 -7 2 -10 2 -5 0z"/>
<path d="M1990 8025 c-7 -9 -10 -18 -7 -21 3 -3 10 4 17 15 13 25 8 27 -10 6z"/>
<path d="M2358 8033 c7 -3 16 -2 19 1 4 3 -2 6 -13 5 -11 0 -14 -3 -6 -6z"/>
<path d="M1845 8010 c-3 -6 1 -7 9 -4 18 7 21 14 7 14 -6 0 -13 -4 -16 -10z"/>
<path d="M2418 8013 c7 -3 16 -2 19 1 4 3 -2 6 -13 5 -11 0 -14 -3 -6 -6z"/>
<path d="M2310 7999 c0 -5 5 -7 10 -4 6 3 10 8 10 11 0 2 -4 4 -10 4 -5 0 -10
-5 -10 -11z"/>
<path d="M1545 7990 c3 -5 10 -10 16 -10 5 0 9 5 9 10 0 6 -7 10 -16 10 -8 0
-12 -4 -9 -10z"/>
<path d="M1121 7964 c0 -11 3 -14 6 -6 3 7 2 16 -1 19 -3 4 -6 -2 -5 -13z"/>
<path d="M5515 7540 c-3 -5 -1 -10 4 -10 6 0 11 5 11 10 0 6 -2 10 -4 10 -3 0
-8 -4 -11 -10z"/>
<path d="M4871 6813 c-13 -3 -31 -13 -40 -22 -17 -19 -80 -36 -169 -47 -29 -4
-60 -14 -69 -22 -13 -14 -18 -14 -47 2 -23 12 -43 15 -74 10 -23 -4 -42 -10
-42 -14 0 -10 -119 25 -134 40 -15 15 -46 12 -46 -4 0 -21 -29 -28 -66 -14
-26 9 -36 9 -48 -1 -11 -9 -24 -10 -50 -3 -35 10 -76 6 -76 -7 0 -4 5 -12 12
-19 15 -15 0 -16 -36 -2 -16 6 -27 6 -31 0 -4 -6 -22 -10 -41 -10 -23 0 -33
-4 -28 -11 4 -8 -1 -9 -15 -4 -12 4 -28 2 -36 -5 -8 -6 -26 -10 -42 -8 -30 3
-63 -26 -63 -57 0 -11 -5 -15 -15 -11 -9 3 -18 -1 -21 -9 -3 -8 -16 -15 -27
-15 -12 0 -33 0 -47 -1 -13 0 -30 -5 -38 -12 -18 -15 -62 -17 -62 -3 0 7 -3 7
-8 1 -12 -16 -52 -36 -61 -30 -5 3 -12 -3 -15 -12 -5 -12 -9 -14 -18 -5 -19
19 -30 14 -18 -9 14 -25 10 -30 -28 -33 -21 -1 -28 2 -25 11 3 7 0 13 -6 13
-6 0 -11 -9 -11 -19 0 -10 -7 -21 -15 -25 -8 -3 -15 -15 -15 -26 0 -17 -5 -20
-42 -16 -24 2 -49 -1 -55 -6 -9 -7 -15 -5 -19 6 -3 9 -10 16 -15 16 -12 0 15
-52 35 -69 17 -15 22 -36 6 -26 -5 3 -10 -3 -10 -14 0 -15 6 -21 21 -21 11 0
17 -4 14 -10 -3 -5 1 -10 9 -10 9 0 16 -9 16 -20 0 -11 4 -20 9 -20 4 0 8 -8
8 -17 0 -60 5 -77 31 -101 38 -37 72 -94 72 -123 0 -44 100 -193 114 -170 5 7
18 6 39 -4 59 -25 102 -40 110 -37 4 1 7 -3 7 -9 0 -7 9 -9 21 -6 12 3 32 2
45 -3 29 -11 55 -3 48 15 -3 7 -1 16 5 20 16 9 52 -5 45 -17 -4 -7 -2 -8 5 -4
6 4 23 0 36 -8 19 -12 25 -13 25 -4 0 9 3 8 10 -2 9 -13 10 -13 10 0 0 10 7 7
21 -10 11 -14 18 -20 15 -14 -6 12 23 29 32 19 3 -3 0 -5 -7 -5 -7 0 -9 -4 -6
-10 3 -5 14 -10 24 -10 20 0 54 33 44 43 -3 4 1 7 10 7 11 0 14 5 10 16 -5 13
-8 13 -15 2 -7 -9 -8 -8 -4 5 3 10 6 22 6 25 0 4 5 0 10 -8 8 -13 11 -13 19
-1 5 8 14 10 22 5 8 -4 28 -7 46 -5 18 1 33 -2 33 -8 0 -6 7 -8 16 -4 9 3 19
1 23 -5 7 -12 252 -19 291 -8 14 4 52 11 85 16 33 5 79 16 102 24 23 8 45 11
49 8 4 -4 4 -2 1 4 -4 7 -27 15 -51 18 -47 7 -55 29 -15 41 10 4 19 12 19 19
0 12 126 76 149 76 6 0 25 16 42 35 17 19 39 37 50 40 13 4 18 12 15 22 -4 11
-2 13 9 9 8 -3 15 -1 15 5 0 6 5 7 10 4 6 -4 17 -2 24 4 8 7 18 11 22 10 5 -1
18 -1 29 1 l20 1 -20 9 c-18 8 -17 9 8 9 16 1 26 -3 22 -9 -3 -5 1 -10 10 -10
11 0 15 5 12 14 -4 10 2 18 16 22 12 4 36 22 53 40 19 20 48 37 75 44 100 25
209 62 209 72 0 5 -8 8 -17 6 -12 -2 -22 6 -31 27 -11 26 -11 31 5 43 16 13
16 13 -7 7 -33 -10 -47 -13 -37 -8 4 3 4 9 1 14 -3 6 2 19 12 30 16 18 16 19
-7 20 -13 1 -31 0 -39 -1 -12 -2 -11 3 4 19 l19 21 -33 -6 c-30 -6 -32 -6 -22
13 8 14 8 23 0 31 -8 8 -4 18 15 38 30 29 35 49 12 40 -8 -3 -15 0 -15 6 0 6
-9 3 -20 -7 -18 -17 -20 -17 -14 -2 4 10 1 17 -6 17 -9 0 -8 6 4 19 20 22 15
26 -38 36 -34 7 -91 45 -66 45 5 0 7 7 4 15 -4 8 -13 15 -21 15 -8 0 -12 4 -8
9 3 5 -8 9 -23 9 -16 -1 -35 3 -42 7 -7 4 -16 2 -21 -6 -6 -10 -9 -10 -9 -2 0
7 -6 10 -14 7 -7 -3 -20 2 -29 10 -18 18 -47 21 -47 5 0 -6 -5 -7 -12 -2 -16
9 -45 12 -77 6z m399 -141 c0 -4 -9 -8 -20 -9 -11 -1 -20 2 -20 5 0 4 9 8 20
9 11 1 20 -2 20 -5z m70 -222 c0 -5 -8 -10 -17 -10 -15 0 -16 2 -3 10 19 12
20 12 20 0z m-1146 -291 c25 -28 43 -55 40 -60 -5 -9 17 -13 45 -9 9 1 12 -4
8 -14 -7 -17 13 -18 25 -1 5 6 8 5 8 -3 0 -10 5 -10 20 -2 11 6 31 8 44 4 14
-3 31 -2 38 2 7 5 21 10 31 11 10 2 31 10 48 18 34 18 64 9 49 -15 -8 -12 -10
-12 -15 3 -6 15 -9 15 -22 2 -8 -9 -19 -13 -24 -10 -5 4 -9 0 -9 -8 0 -10 -8
-13 -25 -9 -16 3 -25 0 -25 -8 0 -7 -8 -10 -20 -7 -11 3 -20 2 -20 -3 0 -13
-54 -23 -58 -11 -5 16 -22 13 -22 -4 0 -17 -26 -20 -35 -4 -5 7 -14 4 -27 -8
-18 -16 -21 -16 -32 -1 -10 14 -14 14 -31 2 -10 -8 -28 -14 -39 -14 -20 0 -20
1 3 19 l25 19 -27 -5 c-14 -3 -32 -12 -39 -21 -10 -12 -10 -14 0 -8 6 4 12 4
12 -1 0 -4 -22 -8 -50 -8 -54 0 -59 5 -34 29 16 17 30 20 77 17 15 0 40 5 54
13 26 13 25 14 -33 21 -77 9 -90 16 -75 44 7 11 9 21 6 21 -15 0 52 59 67 60
9 0 37 -23 62 -51z m406 -43 c0 -3 -4 -8 -10 -11 -5 -3 -10 -1 -10 4 0 6 5 11
10 11 6 0 10 -2 10 -4z m115 -17 c0 -9 8 -24 18 -33 19 -19 22 -36 7 -36 -5 0
-10 -7 -10 -15 0 -12 -4 -13 -19 -5 -25 13 -44 13 -36 0 6 -9 -8 -14 -27 -11
-5 0 -8 -8 -8 -20 0 -11 -4 -18 -9 -14 -6 3 -15 -3 -20 -14 -7 -13 -30 -24
-68 -32 -32 -6 -62 -12 -68 -14 -5 -1 -29 -7 -53 -14 -52 -15 -174 -16 -199
-2 -11 5 -25 6 -32 2 -15 -10 -61 -2 -62 10 -1 5 -3 14 -4 19 -1 6 -3 13 -4
18 -1 4 -6 0 -11 -8 -9 -13 -10 -13 -11 0 -1 8 -1 18 0 23 0 4 -3 7 -9 7 -18
0 -10 18 11 23 15 4 19 2 15 -9 -6 -16 10 -19 20 -3 4 8 9 7 15 -2 7 -11 9
-11 9 -1 0 10 5 10 21 2 15 -8 24 -8 34 0 8 6 22 10 32 9 10 -1 26 1 36 6 9 4
24 4 33 1 8 -3 26 1 39 10 13 9 29 13 34 9 6 -3 19 -1 30 5 14 7 22 7 27 -1 4
-7 16 0 33 19 14 16 51 40 81 53 30 13 56 26 58 30 2 4 24 6 50 5 36 -1 47 -5
47 -17z m-850 -109 c3 -5 1 -10 -4 -10 -6 0 -11 5 -11 10 0 6 2 10 4 10 3 0 8
-4 11 -10z"/>
<path d="M4395 6770 c-3 -6 1 -7 9 -4 18 7 21 14 7 14 -6 0 -13 -4 -16 -10z"/>
<path d="M4440 6761 c0 -10 30 -24 37 -17 3 2 -5 9 -16 16 -12 6 -21 7 -21 1z"/>
<path d="M5303 6733 c9 -2 23 -2 30 0 6 3 -1 5 -18 5 -16 0 -22 -2 -12 -5z"/>
<path d="M3105 6440 c3 -5 8 -10 11 -10 2 0 4 5 4 10 0 6 -5 10 -11 10 -5 0
-7 -4 -4 -10z"/>
<path d="M3150 6382 c0 -5 7 -16 16 -23 14 -12 16 -11 13 5 -4 20 -29 35 -29
18z"/>
<path d="M2067 6374 c-3 -4 -21 -10 -39 -14 -18 -3 -32 -12 -31 -18 2 -8 -5
-9 -23 -2 -19 7 -31 7 -40 -1 -11 -9 -17 -9 -28 0 -7 6 -22 8 -31 4 -14 -5
-16 -3 -10 8 7 11 5 11 -11 -1 -10 -8 -26 -21 -34 -29 -13 -13 -13 -14 3 -8 9
3 17 2 17 -3 0 -5 8 -7 18 -4 14 5 14 4 2 -4 -26 -17 -63 -25 -56 -13 4 6 0
11 -11 11 -16 1 -15 3 4 19 18 15 20 20 9 24 -8 3 -20 -1 -27 -9 -9 -11 -14
-12 -19 -3 -4 6 -13 8 -20 4 -9 -6 -9 -9 1 -16 12 -7 12 -9 1 -9 -8 0 -21 -9
-30 -20 -10 -12 -32 -23 -51 -26 -19 -3 -40 -12 -48 -20 -8 -8 -19 -14 -25
-14 -6 0 0 9 13 20 26 21 19 26 -12 10 -10 -6 -19 -16 -19 -23 -1 -17 -68 -57
-85 -51 -12 5 -10 10 8 24 l22 19 -22 -6 c-24 -5 -82 -73 -63 -73 6 0 13 7 16
15 4 8 10 15 15 15 15 0 5 -23 -21 -47 l-25 -23 33 11 c17 6 35 15 38 20 3 5
13 9 22 8 12 0 13 -2 3 -6 -7 -3 -26 -19 -42 -35 -15 -17 -40 -31 -54 -32 -14
0 -25 -5 -25 -10 0 -5 -9 -16 -19 -25 -25 -21 -16 -36 29 -49 33 -10 33 -10 8
-11 -16 -1 -28 -5 -28 -11 0 -5 15 -7 33 -5 46 6 62 -6 40 -32 -10 -11 -25
-22 -33 -25 -10 -4 -5 -10 16 -17 24 -9 31 -17 29 -36 -4 -32 18 -49 56 -41
18 3 28 2 24 -4 -3 -6 -13 -10 -21 -10 -8 0 -14 -4 -14 -10 0 -5 6 -10 13 -10
8 0 7 -4 -3 -11 -11 -7 1 -9 43 -5 52 5 73 -3 47 -19 -16 -10 -12 -23 10 -30
11 -3 20 -13 20 -21 0 -8 -9 -14 -20 -14 -11 0 -20 -7 -20 -15 0 -8 9 -15 19
-15 11 0 23 -4 26 -10 3 -5 15 -10 25 -10 32 0 137 54 146 75 6 12 19 20 34
20 14 0 31 4 38 8 6 5 16 6 20 3 14 -9 82 16 82 30 0 14 39 94 46 94 3 0 31
-27 64 -61 59 -60 59 -60 112 -58 29 1 65 6 80 10 17 5 29 3 32 -4 3 -8 5 -8
5 1 1 7 6 10 11 7 6 -3 10 -2 10 3 0 11 88 38 110 34 8 -2 22 -6 30 -9 24 -10
50 -10 50 -1 0 4 -4 8 -10 8 -5 0 -10 5 -10 10 0 12 22 9 31 -4 11 -14 -2 -46
-18 -46 -12 0 -13 -3 -4 -14 9 -11 8 -18 -4 -30 -9 -9 -21 -14 -26 -11 -5 4
-9 2 -9 -4 0 -5 -13 -18 -29 -27 -17 -10 -37 -35 -47 -61 -12 -27 -24 -43 -35
-43 -10 0 -21 -4 -24 -10 -3 -5 -13 -10 -20 -10 -8 0 -39 -16 -69 -35 -30 -19
-61 -35 -69 -35 -8 0 -17 -9 -20 -20 -5 -18 -3 -19 23 -5 15 8 30 12 32 10 7
-8 130 35 158 55 14 9 36 21 49 25 13 4 38 22 56 41 18 19 40 34 49 34 9 0 16
6 16 14 0 8 16 24 35 36 19 12 40 33 47 48 7 15 22 28 33 30 17 3 18 1 5 -8
-13 -10 -13 -11 2 -7 17 6 43 -15 32 -26 -3 -3 4 -10 15 -17 18 -9 21 -8 21
11 0 15 4 19 16 15 13 -5 14 -4 5 7 -6 8 -22 12 -35 10 -14 -3 -25 1 -29 10
-4 10 1 13 19 11 15 -1 30 6 40 19 12 16 15 17 11 5 -7 -20 8 -25 19 -6 4 6
-1 17 -11 24 -16 12 -16 14 -2 29 14 14 16 13 22 -5 3 -11 11 -20 18 -20 8 0
8 -3 -1 -12 -18 -18 -14 -25 14 -25 19 0 29 7 38 28 7 16 15 26 19 22 13 -13
7 114 -8 164 -8 28 -31 73 -50 100 -19 26 -39 58 -45 71 -5 12 -14 22 -20 22
-5 0 -10 5 -10 11 0 6 -9 22 -20 36 -11 14 -20 35 -20 45 0 14 -5 18 -15 14
-9 -3 -15 0 -15 9 0 8 -8 12 -19 10 -14 -3 -18 1 -14 11 4 10 0 12 -13 8 -16
-6 -17 -5 -6 7 19 20 14 34 -5 17 -10 -9 -29 -19 -43 -23 -22 -7 -23 -6 -11 9
11 14 11 16 -2 16 -9 0 -19 -4 -22 -10 -7 -12 -45 -13 -45 -2 0 15 -34 10 -54
-7 -11 -9 -16 -10 -12 -3 4 6 3 12 -3 12 -6 0 -7 7 -4 17 4 11 3 14 -5 9 -7
-4 -12 -3 -12 2 0 15 -38 21 -49 8 -12 -14 -105 -20 -96 -6 9 15 -8 12 -35 -7
-21 -15 -23 -15 -17 -1 7 20 -23 34 -35 16 -7 -10 -11 -9 -22 5 -12 16 -15 16
-29 2 -9 -8 -22 -12 -30 -9 -9 3 -26 0 -39 -6 -22 -11 -22 -10 2 9 14 11 20
21 14 21 -6 0 -13 -3 -17 -6z m-173 -45 c-3 -5 -16 -8 -29 -7 -31 3 -25 13 9
14 14 1 23 -2 20 -7z m-134 -33 c0 -3 -4 -8 -10 -11 -5 -3 -10 -1 -10 4 0 6 5
11 10 11 6 0 10 -2 10 -4z m-225 -166 c-3 -5 0 -10 7 -10 22 0 -16 -30 -46
-36 -23 -4 -26 -2 -18 11 5 9 20 22 33 30 31 17 31 17 24 5z m-101 -85 c-7
-16 -24 -21 -24 -6 0 8 7 13 27 20 1 1 0 -6 -3 -14z m436 -55 c-14 -4 -32 -8
-40 -9 -13 -1 -13 0 0 9 8 5 26 9 40 9 l25 -1 -25 -8z m980 -104 c0 -8 -5 -18
-12 -22 -7 -5 -9 -2 -5 9 4 12 2 14 -10 10 -11 -4 -14 -2 -9 5 10 17 36 15 36
-2z m-1293 -13 c-9 -3 -15 -8 -12 -13 3 -5 12 -7 20 -3 8 3 15 1 15 -5 0 -12
-23 -22 -41 -17 -36 8 -59 18 -59 24 0 15 12 19 53 18 23 0 34 -2 24 -4z
m1293 -37 c0 -3 -4 -8 -10 -11 -5 -3 -10 -1 -10 4 0 6 5 11 10 11 6 0 10 -2
10 -4z m-1215 -15 c3 -5 0 -13 -6 -17 -7 -4 -9 -3 -5 4 3 5 0 13 -6 15 -9 4
-10 6 -1 6 6 1 14 -3 18 -8z m1110 -1 c-3 -5 -1 -10 4 -10 6 0 11 5 11 10 0 6
4 10 10 10 13 0 -22 -62 -38 -68 -7 -2 -12 5 -12 16 0 28 10 52 22 52 5 0 6
-4 3 -10z m-45 -39 c0 -25 -18 -37 -33 -22 -6 6 -16 11 -21 11 -6 0 -4 -5 4
-10 13 -8 12 -11 -5 -24 -18 -13 -21 -13 -27 2 -6 16 -7 15 -7 0 -1 -10 -8
-18 -16 -18 -13 0 -13 3 -3 20 10 16 10 22 0 32 -8 7 -12 9 -11 3 5 -18 -12
-55 -22 -49 -6 4 -6 11 2 20 6 8 8 14 4 14 -4 0 -2 7 5 15 8 9 25 13 51 11 21
-2 39 0 39 5 0 5 9 9 20 9 13 0 20 -7 20 -19z m160 -6 c0 -8 -4 -15 -10 -15
-5 0 -7 7 -4 15 4 8 8 15 10 15 2 0 4 -7 4 -15z"/>
<path d="M6115 6370 c3 -5 8 -10 11 -10 2 0 4 5 4 10 0 6 -5 10 -11 10 -5 0
-7 -4 -4 -10z"/>
<path d="M1965 6360 c-3 -5 -1 -10 4 -10 6 0 11 5 11 10 0 6 -2 10 -4 10 -3 0
-8 -4 -11 -10z"/>
<path d="M3150 6332 c0 -4 10 -9 22 -9 18 -2 20 0 8 7 -18 12 -30 13 -30 2z"/>
<path d="M1675 6319 c-4 -6 -14 -8 -23 -4 -9 3 -13 3 -9 -1 11 -12 -13 -33
-31 -28 -14 5 -14 4 1 -6 15 -9 24 -7 53 15 18 14 34 28 34 31 0 8 -19 4 -25
-7z"/>
<path d="M1550 6289 c0 -5 5 -7 10 -4 6 3 10 8 10 11 0 2 -4 4 -10 4 -5 0 -10
-5 -10 -11z"/>
<path d="M1500 6270 c-11 -7 -11 -10 -2 -10 7 0 10 -4 7 -10 -3 -5 -2 -10 4
-10 5 0 13 5 16 10 3 6 1 10 -5 10 -6 0 -8 5 -5 10 8 12 4 12 -15 0z"/>
<path d="M1525 6230 c-3 -6 1 -7 9 -4 18 7 21 14 7 14 -6 0 -13 -4 -16 -10z"/>
<path d="M1421 6206 c-7 -8 -27 -22 -46 -31 -19 -9 -35 -20 -35 -26 0 -5 12
-3 28 6 38 21 89 65 76 65 -6 0 -17 -6 -23 -14z"/>
<path d="M1360 6133 c0 -6 -8 -9 -19 -6 -10 3 -22 -1 -26 -7 -5 -8 -3 -11 6
-8 8 3 22 1 31 -3 20 -11 30 1 17 21 -5 9 -9 10 -9 3z"/>
<path d="M1326 6068 c6 -9 40 -5 51 5 4 4 -7 7 -24 5 -18 -1 -29 -6 -27 -10z"/>
<path d="M5900 6060 c8 -5 20 -10 25 -10 6 0 3 5 -5 10 -8 5 -19 10 -25 10 -5
0 -3 -5 5 -10z"/>
<path d="M6005 6000 c-3 -6 1 -7 9 -4 18 7 21 14 7 14 -6 0 -13 -4 -16 -10z"/>
<path d="M6026 5975 c4 -8 9 -15 13 -15 4 0 8 7 8 15 0 8 -6 15 -13 15 -8 0
-11 -6 -8 -15z"/>
<path d="M6171 5964 c0 -11 3 -14 6 -6 3 7 2 16 -1 19 -3 4 -6 -2 -5 -13z"/>
<path d="M6135 5950 c-3 -5 -2 -10 4 -10 5 0 13 5 16 10 3 6 2 10 -4 10 -5 0
-13 -4 -16 -10z"/>
<path d="M6060 5930 c-20 -12 -5 -24 16 -12 9 5 12 12 7 15 -5 3 -15 2 -23 -3z"/>
<path d="M6580 5917 c0 -7 7 -22 15 -33 13 -17 14 -16 4 14 -11 33 -19 41 -19
19z"/>
<path d="M6624 5827 c8 -35 46 -98 46 -76 0 10 -12 37 -26 60 -21 36 -24 39
-20 16z"/>
<path d="M6082 5787 c1 -13 8 -24 16 -24 16 0 12 39 -5 45 -8 2 -12 -5 -11
-21z"/>
<path d="M2360 5748 c0 -4 4 -8 9 -8 6 0 12 4 15 8 3 5 -1 9 -9 9 -8 0 -15 -4
-15 -9z"/>
<path d="M2400 5741 c0 -6 4 -13 10 -16 6 -3 7 1 4 9 -7 18 -14 21 -14 7z"/>
<path d="M6910 5742 c-8 -3 -33 -17 -55 -31 -22 -15 -52 -33 -67 -40 -16 -8
-28 -18 -28 -22 0 -4 17 -21 37 -38 37 -31 73 -41 73 -20 0 5 5 7 11 4 6 -4 9
-1 7 7 -1 7 10 39 26 71 29 57 28 80 -4 69z"/>
<path d="M2416 5705 c-16 -14 -27 -28 -24 -31 3 -3 13 2 21 11 9 8 20 15 26
15 6 0 11 7 11 15 0 19 0 19 -34 -10z"/>
<path d="M2336 5701 c-6 -18 -10 -21 -17 -10 -7 12 -9 11 -9 -1 0 -9 6 -22 13
-29 10 -11 10 -13 0 -7 -7 4 -13 2 -13 -3 0 -18 19 -12 30 10 6 11 10 30 8 42
-4 22 -4 22 -12 -2z"/>
<path d="M1885 5700 c-4 -6 5 -10 19 -10 14 0 26 5 26 10 0 6 -9 10 -19 10
-11 0 -23 -4 -26 -10z"/>
<path d="M2367 5703 c-4 -3 -7 -11 -7 -17 0 -6 5 -5 12 2 6 6 9 14 7 17 -3 3
-9 2 -12 -2z"/>
<path d="M6682 5685 c0 -11 3 -29 8 -40 11 -25 11 1 0 35 -6 20 -8 21 -8 5z"/>
<path d="M2255 5681 c-3 -5 2 -17 11 -26 19 -19 40 -6 31 19 -7 17 -32 21 -42
7z"/>
<path d="M6080 5680 c0 -5 5 -10 10 -10 6 0 10 5 10 10 0 6 -4 10 -10 10 -5 0
-10 -4 -10 -10z"/>
<path d="M2224 5661 c0 -15 3 -17 13 -9 7 6 10 14 7 19 -9 15 -20 10 -20 -10z"/>
<path d="M2156 5654 c-4 -10 -1 -14 6 -12 15 5 23 28 10 28 -5 0 -13 -7 -16
-16z"/>
<path d="M2057 5639 c-3 -13 -1 -19 6 -16 15 5 22 37 9 37 -5 0 -12 -9 -15
-21z"/>
<path d="M5718 5633 c7 -3 16 -2 19 1 4 3 -2 6 -13 5 -11 0 -14 -3 -6 -6z"/>
<path d="M5860 5549 c0 -5 5 -7 10 -4 6 3 10 8 10 11 0 2 -4 4 -10 4 -5 0 -10
-5 -10 -11z"/>
<path d="M5870 5511 c0 -5 7 -11 14 -14 10 -4 13 -1 9 9 -6 15 -23 19 -23 5z"/>
<path d="M7133 5395 c-13 -19 -23 -47 -23 -61 l0 -27 21 26 c17 23 39 97 28
97 -2 0 -14 -16 -26 -35z"/>
<path d="M5637 5244 c6 -18 19 -18 26 -1 3 7 -3 13 -14 14 -12 1 -16 -3 -12
-13z"/>
<path d="M5625 5170 c-3 -5 -1 -10 4 -10 6 0 11 5 11 10 0 6 -2 10 -4 10 -3 0
-8 -4 -11 -10z"/>
<path d="M3938 5053 c7 -3 16 -2 19 1 4 3 -2 6 -13 5 -11 0 -14 -3 -6 -6z"/>
<path d="M5568 5053 c7 -3 16 -2 19 1 4 3 -2 6 -13 5 -11 0 -14 -3 -6 -6z"/>
<path d="M3900 5020 c-13 -8 -13 -10 2 -10 9 0 20 5 23 10 8 13 -5 13 -25 0z"/>
<path d="M5580 4780 c0 -5 5 -10 11 -10 5 0 7 5 4 10 -3 6 -8 10 -11 10 -2 0
-4 -4 -4 -10z"/>
<path d="M5726 4731 c-3 -5 1 -11 9 -15 9 -3 15 0 15 9 0 16 -16 20 -24 6z"/>
<path d="M5695 4721 c-3 -5 -1 -12 5 -16 5 -3 10 1 10 9 0 18 -6 21 -15 7z"/>
<path d="M5610 4670 c0 -5 5 -10 11 -10 5 0 7 5 4 10 -3 6 -8 10 -11 10 -2 0
-4 -4 -4 -10z"/>
<path d="M5510 4559 c0 -5 -4 -8 -9 -4 -5 3 -12 1 -16 -5 -4 -6 4 -9 19 -8 24
2 39 28 16 28 -5 0 -10 -5 -10 -11z"/>
<path d="M5430 4410 c-8 -5 -10 -10 -5 -10 6 0 17 5 25 10 8 5 11 10 5 10 -5
0 -17 -5 -25 -10z"/>
<path d="M4700 4261 c0 -6 4 -13 10 -16 6 -3 7 1 4 9 -7 18 -14 21 -14 7z"/>
<path d="M2877 4229 c6 -6 42 -14 79 -17 60 -4 66 -3 54 10 -10 10 -37 16 -80
17 -49 2 -62 -1 -53 -10z"/>
<path d="M4651 4224 c0 -11 3 -14 6 -6 3 7 2 16 -1 19 -3 4 -6 -2 -5 -13z"/>
<path d="M5274 4190 c9 -14 21 -35 26 -47 10 -25 20 -30 20 -10 0 6 -14 28
-31 47 -17 19 -24 24 -15 10z"/>
<path d="M2657 3804 c-11 -11 -8 -26 3 -19 6 3 13 -1 16 -9 6 -16 24 -12 24 5
0 6 -4 8 -9 4 -6 -3 -14 2 -18 10 -5 9 -12 12 -16 9z"/>
<path d="M2160 3431 c10 -21 30 -37 30 -26 0 14 -21 45 -31 45 -6 0 -6 -7 1
-19z"/>
<path d="M0 3388 l0 -31 20 23 c16 18 17 25 8 32 -22 14 -28 9 -28 -24z"/>
<path d="M2220 3375 c0 -18 19 -40 26 -32 4 4 0 15 -9 24 -9 10 -17 13 -17 8z"/>
</g>
</svg>
