<?xml version="1.0" standalone="no"?>
<!DOCTYPE svg PUBLIC "-//W3C//DTD SVG 20010904//EN"
 "http://www.w3.org/TR/2001/REC-SVG-20010904/DTD/svg10.dtd">
<svg version="1.0" xmlns="http://www.w3.org/2000/svg"
 width="784.000000pt" height="1168.000000pt" viewBox="0 0 784.000000 1168.000000"
 preserveAspectRatio="xMidYMid meet">

<g transform="translate(0.000000,1168.000000) scale(0.100000,-0.100000)"
fill="#000000" stroke="none">
<path d="M5682 11588 c3 -89 5 -96 42 -151 38 -55 43 -71 45 -127 2 -51 14
-55 76 -30 82 33 107 70 111 165 2 42 6 79 9 85 3 5 -6 32 -20 59 -14 28 -25
59 -25 71 0 19 -6 20 -121 20 l-121 0 4 -92z"/>
<path d="M3675 10842 c-22 -15 -49 -46 -61 -68 -11 -22 -30 -54 -42 -71 -12
-17 -19 -33 -15 -37 3 -3 -7 -6 -23 -6 -15 0 -62 17 -103 38 -58 28 -92 39
-151 44 -41 4 -92 10 -114 14 -51 9 -119 -24 -136 -66 -6 -16 -9 -33 -6 -38 3
-5 -3 -20 -13 -33 -28 -37 -51 -86 -43 -94 4 -3 -2 -13 -13 -21 -23 -17 -28
-83 -7 -99 7 -6 10 -18 6 -28 -5 -14 -9 -15 -20 -6 -11 9 -14 8 -14 -4 0 -9 5
-19 11 -23 15 -9 -23 -42 -83 -74 -27 -14 -48 -28 -48 -32 0 -5 -11 -8 -25 -8
-29 0 -31 7 -9 38 15 22 17 22 30 5 7 -10 14 -13 14 -6 0 6 2 17 5 25 4 9 -5
13 -29 14 -30 0 -37 -4 -47 -30 -26 -64 -59 -107 -78 -101 -11 3 -49 -14 -100
-44 -45 -27 -96 -53 -114 -57 -18 -4 -37 -14 -44 -23 -6 -10 -32 -28 -58 -41
-36 -19 -52 -35 -72 -75 -14 -27 -41 -72 -60 -99 -20 -27 -48 -77 -63 -110
-15 -34 -39 -75 -53 -92 -15 -17 -24 -34 -21 -37 3 -3 -4 -8 -15 -12 -12 -3
-21 -13 -21 -20 0 -8 -18 -33 -40 -56 -22 -23 -40 -46 -40 -51 0 -4 -4 -8 -9
-8 -5 0 -24 -27 -43 -60 -18 -33 -37 -60 -43 -60 -5 -1 -36 -55 -69 -120 -32
-66 -62 -120 -66 -120 -4 0 -7 -6 -7 -13 0 -8 -13 -33 -30 -58 -46 -68 -114
-195 -107 -202 3 -3 -2 -18 -13 -34 -27 -40 -51 -100 -62 -158 -17 -88 -31
-136 -47 -161 -14 -21 -14 -24 -1 -24 8 0 20 -7 27 -15 10 -12 9 -20 -4 -40
-9 -13 -16 -30 -16 -37 0 -8 -9 -21 -20 -31 -11 -9 -20 -28 -20 -42 0 -18 5
-25 20 -25 15 0 20 -7 20 -25 0 -18 5 -25 19 -25 32 0 42 -25 44 -116 l2 -87
-43 -33 c-37 -29 -40 -34 -25 -43 10 -6 13 -11 7 -11 -7 0 -14 -7 -18 -15 -4
-10 1 -15 14 -15 11 0 20 7 20 15 0 18 32 36 49 26 9 -6 8 -11 -3 -21 -9 -7
-13 -16 -10 -22 3 -5 -8 -22 -25 -38 -16 -16 -33 -26 -36 -21 -7 12 -134 6
-168 -7 -16 -7 -25 -16 -22 -22 4 -7 12 -7 25 0 28 15 45 13 31 -4 -9 -11 -6
-16 19 -25 18 -6 55 -13 83 -17 94 -12 132 -48 92 -88 -19 -19 -19 -30 -1 -23
29 12 39 -20 33 -105 -5 -63 -11 -86 -28 -104 -17 -18 -19 -26 -9 -44 7 -13
15 -111 21 -242 8 -201 7 -222 -9 -244 -9 -13 -20 -24 -24 -24 -13 0 -9 -39 6
-68 7 -15 16 -54 19 -87 3 -33 9 -76 12 -95 10 -59 -6 -68 -62 -38 -82 45 -90
9 -18 -87 12 -16 30 -45 39 -63 14 -27 20 -31 35 -22 29 15 61 -31 96 -140 10
-30 28 -75 41 -100 13 -25 34 -71 48 -102 24 -55 78 -117 103 -118 21 0 32 35
44 137 18 151 15 429 -5 558 -10 61 -23 144 -29 185 -13 79 -15 366 -3 413 3
15 8 51 10 80 1 29 7 60 11 68 5 8 9 24 10 36 0 12 9 32 21 45 37 42 55 79 52
107 -1 15 5 40 15 54 10 16 13 27 7 27 -6 0 -2 14 10 30 12 17 18 30 15 30 -4
0 1 8 11 17 11 11 13 18 5 21 -8 3 -8 9 0 24 10 18 9 20 -6 14 -15 -5 -16 -4
-5 9 7 8 18 15 26 15 7 0 16 5 20 12 5 7 1 9 -13 6 -17 -4 -19 -1 -15 21 3 14
10 32 15 40 8 10 7 16 -6 25 -10 8 -13 16 -7 22 8 8 20 94 22 154 0 8 4 20 8
25 13 19 20 46 10 40 -14 -9 -12 7 5 29 8 10 12 23 9 27 -3 5 0 9 7 9 7 0 9 3
6 7 -4 3 4 20 17 37 21 28 42 76 37 84 -1 2 15 17 35 33 20 16 31 29 25 29
-22 0 0 20 32 29 29 8 29 9 7 10 -25 1 -25 1 5 17 17 9 41 20 55 24 l25 8 -27
1 c-14 1 -34 4 -42 7 -15 6 -15 8 1 20 10 7 29 14 43 14 23 1 23 2 5 9 -11 5
-30 4 -43 0 -38 -15 -50 -9 -14 6 18 8 38 12 45 9 7 -2 24 0 38 6 23 10 22 10
-7 6 -21 -3 -31 -1 -31 9 0 7 6 11 14 8 7 -3 13 -1 13 5 0 13 51 34 105 42 6
1 1 5 -10 10 -17 7 -15 9 13 9 32 1 43 15 20 24 -8 3 -5 6 5 6 30 1 16 36 -16
39 -15 2 -27 8 -27 13 0 11 37 12 44 1 3 -5 20 -9 38 -9 l33 -1 -40 18 -40 18
65 -4 c36 -3 83 -12 105 -21 l40 -15 -24 26 c-28 30 -26 31 23 11 33 -14 36
-14 36 1 0 15 2 15 25 0 34 -22 45 -19 16 4 -26 22 -21 26 12 9 21 -11 21 -11
-2 14 -23 25 -23 26 -3 24 11 0 18 -5 15 -11 -4 -5 1 -7 12 -3 9 4 23 3 30 -3
11 -9 12 -6 8 11 -5 19 -4 20 16 9 15 -8 26 -8 34 -1 8 6 18 6 27 1 18 -11 50
-13 35 -2 -8 6 -18 42 -11 42 1 0 19 -9 41 -20 36 -18 66 -19 36 -1 -20 13 5
24 27 12 14 -8 22 -3 41 25 13 19 29 35 35 35 6 1 16 2 21 4 6 1 16 3 24 3 10
2 7 8 -9 22 -25 22 -25 22 6 38 12 7 26 7 35 1 21 -13 29 -11 23 6 -6 14 11
20 39 16 4 0 7 4 7 9 0 6 -6 10 -12 8 -21 -3 -59 13 -53 23 4 5 18 7 33 3 23
-4 24 -4 9 6 -9 6 -15 15 -12 20 3 5 -6 20 -20 34 -14 14 -25 31 -25 38 0 7
16 -5 35 -27 21 -25 34 -34 35 -24 0 8 -5 20 -11 26 -14 14 -2 36 13 27 6 -4
8 -2 4 4 -3 6 -2 13 3 17 6 3 18 -9 28 -27 13 -26 18 -29 21 -15 4 18 4 18 18
0 12 -16 12 -14 4 15 -8 28 -6 32 11 32 13 0 19 -7 19 -22 1 -22 1 -22 14 -5
14 18 14 17 21 -2 3 -12 4 -25 0 -30 -3 -5 -1 -12 5 -16 5 -3 10 1 10 9 0 9 5
16 11 16 5 0 7 4 4 10 -3 6 1 7 9 4 14 -5 13 -10 -5 -35 -11 -16 -16 -29 -10
-29 5 0 13 5 16 10 3 6 13 10 22 10 13 0 13 -3 3 -15 -7 -8 -19 -15 -26 -15
-8 0 -14 -4 -14 -10 0 -11 24 -3 58 18 27 17 45 6 19 -12 -9 -7 -17 -17 -17
-21 0 -4 7 -2 15 5 22 18 31 4 12 -18 -18 -20 -22 -32 -9 -32 4 0 15 12 24 28
10 16 18 21 18 12 0 -13 1 -13 10 0 5 8 12 11 16 7 4 -4 -5 -20 -19 -35 -41
-43 -32 -48 16 -9 32 26 47 33 62 26 19 -7 16 -11 -12 -13 -7 -1 -13 -5 -13
-9 0 -4 0 -11 0 -16 0 -17 70 -4 86 15 9 11 13 13 9 7 -3 -7 -1 -13 4 -13 19
0 12 -17 -11 -28 -20 -9 -17 -10 22 -10 67 0 73 -1 67 -15 -3 -8 7 -13 31 -14
44 -3 58 -15 38 -36 -20 -19 -20 -27 -2 -27 8 0 18 9 21 20 5 16 14 20 43 18
20 -1 48 -8 61 -15 17 -8 30 -9 43 -2 12 6 18 6 18 -1 0 -5 -7 -10 -15 -10
-27 0 -16 -18 15 -25 40 -9 48 -25 13 -26 l-28 -1 30 -10 c17 -6 32 -14 35
-18 10 -13 76 -38 115 -44 55 -9 75 -16 75 -27 0 -5 -21 -9 -46 -9 -31 0 -43
-4 -38 -11 4 -8 25 -9 59 -5 28 3 55 3 59 -1 11 -11 67 -12 60 -2 -3 5 6 9 20
9 14 0 26 4 26 8 0 5 28 3 63 -4 74 -16 131 -18 122 -4 -11 17 144 -8 186 -31
11 -5 25 -6 32 -2 24 15 50 13 67 -4 9 -10 44 -24 77 -32 42 -9 60 -17 57 -26
-3 -8 9 -15 36 -19 22 -3 39 -10 36 -14 -3 -5 15 -14 40 -20 24 -7 44 -16 44
-22 0 -5 6 -10 13 -10 7 0 26 -13 42 -30 16 -16 37 -30 46 -30 10 0 21 -4 24
-10 3 -5 -3 -10 -15 -10 -32 0 -14 -18 24 -26 22 -4 36 -13 39 -25 3 -10 13
-19 24 -19 23 0 93 -74 93 -97 0 -14 -2 -15 -9 -4 -5 8 -11 9 -15 3 -3 -6 7
-24 24 -40 16 -17 30 -35 30 -40 0 -6 10 -8 22 -4 13 3 19 1 15 -5 -4 -6 0
-13 8 -17 8 -3 12 -12 9 -21 -4 -11 0 -15 16 -15 22 0 22 0 3 -48 -3 -8 0 -13
8 -12 28 4 39 0 39 -15 0 -19 -13 -19 -49 0 -26 13 -30 13 -41 0 -10 -12 -10
-18 0 -30 7 -8 10 -22 6 -30 -3 -8 -1 -15 4 -15 6 0 10 -6 10 -14 0 -8 3 -16
8 -18 4 -1 15 -18 25 -37 23 -43 7 -66 -21 -33 -24 28 -27 27 -27 -2 0 -13 2
-23 5 -21 3 2 14 -4 25 -12 15 -12 16 -14 3 -10 -12 4 -15 2 -11 -9 3 -7 11
-14 19 -14 8 0 14 -5 14 -10 0 -6 10 -15 23 -19 22 -9 22 -9 -6 -20 -34 -13
-31 -32 7 -49 39 -17 22 -35 -34 -36 -22 -1 -40 -4 -40 -7 0 -12 32 -20 51
-14 11 4 31 -2 49 -15 l30 -21 0 25 c0 22 3 24 34 20 27 -3 35 0 44 19 l11 22
7 -23 c4 -14 12 -21 20 -18 8 3 14 1 14 -4 0 -6 -5 -10 -11 -10 -6 0 -17 -7
-25 -15 -14 -13 -13 -15 3 -15 17 -1 17 -1 0 -11 -9 -6 -15 -14 -12 -20 4 -5
8 -19 10 -31 5 -26 55 -79 67 -72 14 9 9 -14 -7 -30 -8 -8 -15 -21 -15 -28 0
-8 -3 -9 -8 -3 -14 20 -59 34 -71 22 -15 -15 -15 4 1 38 13 28 28 33 28 9 0
-16 27 -43 43 -44 13 0 -3 41 -24 63 -17 19 -20 19 -43 4 -24 -16 -25 -16 -32
6 -3 12 -13 29 -21 39 -10 11 -11 18 -4 23 6 3 11 10 11 15 0 9 -15 7 -43 -5
-17 -7 -17 -8 0 -20 10 -8 15 -17 11 -21 -11 -11 -48 26 -48 48 0 15 -4 17
-19 9 -13 -7 -17 -19 -15 -38 2 -15 1 -20 -2 -10 -8 24 -23 22 -17 -3 3 -11 9
-20 12 -20 4 0 8 -6 8 -14 0 -8 -6 -12 -14 -9 -7 3 -13 9 -13 13 0 4 -18 7
-40 7 -26 -1 -40 -7 -40 -16 0 -8 -6 -11 -16 -7 -41 16 -62 17 -67 4 -4 -11 2
-13 22 -10 30 4 100 -35 101 -56 0 -8 10 -22 23 -32 l22 -19 -22 6 c-32 8 -29
-13 5 -31 l27 -15 -26 -1 c-30 0 -57 -24 -39 -35 5 -3 10 0 10 7 1 7 7 -2 16
-21 15 -35 10 -57 -6 -31 -6 10 -10 11 -10 3 0 -7 9 -17 20 -23 14 -8 20 -8
20 0 0 6 4 9 10 5 5 -3 7 -12 3 -20 -3 -8 0 -16 6 -16 6 -1 16 -3 21 -4 6 -1
13 -3 18 -4 4 -1 2 -5 -4 -9 -7 -4 1 -14 22 -24 34 -18 35 -18 24 3 -7 11 -9
23 -6 27 3 3 6 -1 6 -9 0 -11 2 -11 8 -2 5 8 8 -1 9 -22 1 -19 -3 -33 -7 -30
-5 3 -10 -1 -13 -7 -3 -10 -7 -10 -21 1 -14 12 -19 11 -36 -4 -11 -10 -17 -21
-13 -24 5 -3 14 -19 21 -35 14 -30 9 -32 -40 -11 -14 5 -18 2 -18 -14 0 -12
-6 -21 -15 -21 -8 0 -14 3 -12 8 2 7 -8 13 -20 11 -5 -1 -27 -2 -49 -3 -34 -1
-41 2 -39 16 2 10 -5 18 -18 22 -19 5 -20 8 -7 17 12 8 9 9 -10 3 -14 -4 -28
-11 -31 -16 -3 -5 -27 -10 -52 -11 -25 -1 -43 -5 -41 -9 7 -12 -109 -6 -124 5
-10 8 -13 7 -12 -4 5 -32 1 -44 -12 -31 -14 14 -62 17 -54 3 8 -12 -27 -20
-45 -11 -8 4 -31 10 -51 13 -28 4 -38 2 -38 -8 0 -15 -22 -25 -54 -25 -12 0
-30 -6 -41 -14 -19 -13 -69 -24 -205 -47 -36 -6 -79 -17 -97 -25 -17 -8 -40
-14 -52 -14 -12 0 -21 -5 -21 -11 0 -6 -7 -9 -15 -5 -10 3 -15 -1 -16 -12 0
-9 -3 -12 -5 -5 -6 13 -34 6 -34 -9 0 -5 4 -6 10 -3 5 3 10 2 10 -3 0 -13 -30
-37 -49 -38 -53 -3 -56 -4 -42 -13 17 -11 5 -51 -15 -51 -8 0 -14 -9 -14 -21
0 -11 -4 -17 -10 -14 -5 3 -10 2 -10 -3 0 -6 -9 -8 -20 -5 -14 4 -20 0 -20
-11 0 -11 5 -15 13 -10 7 4 9 3 4 -2 -5 -5 -14 -9 -20 -9 -31 0 -48 -187 -32
-355 4 -41 7 -83 7 -92 0 -10 2 -18 6 -18 4 0 8 -19 8 -42 2 -51 10 -117 17
-138 12 -33 38 -184 42 -242 2 -42 10 -70 25 -90 11 -15 18 -34 14 -40 -9 -15
-15 -63 -7 -55 8 9 33 -19 33 -37 0 -9 -7 -16 -15 -16 -9 0 -15 -9 -15 -25 0
-14 4 -25 9 -25 5 0 7 -9 4 -20 -5 -17 27 -75 49 -91 5 -3 6 -13 2 -22 -4 -12
-1 -17 10 -17 9 0 16 -7 16 -15 0 -9 7 -18 15 -21 8 -4 15 -12 15 -20 0 -17
36 -19 44 -1 3 6 3 2 1 -10 -3 -12 -1 -25 6 -28 8 -6 7 -10 -2 -16 -12 -8 -11
-11 1 -19 11 -7 11 -10 2 -10 -7 0 -15 7 -19 16 -3 8 -12 13 -19 10 -9 -3 -14
1 -14 11 0 13 -3 14 -12 5 -9 -9 -9 -18 0 -37 8 -17 8 -33 2 -51 -14 -35 -12
-95 3 -127 15 -33 25 -34 37 -3 20 53 61 56 106 9 49 -53 62 -81 65 -139 2
-43 -1 -55 -22 -78 -24 -26 -49 -30 -77 -12 -7 4 -19 2 -27 -4 -8 -7 -15 -9
-15 -5 0 4 -6 2 -14 -4 -11 -9 -16 -9 -22 0 -5 9 -10 8 -19 -4 -6 -9 -24 -18
-39 -21 -16 -3 -36 -11 -45 -19 -9 -8 -36 -22 -61 -31 -25 -10 -51 -23 -59
-29 -7 -7 -21 -12 -30 -12 -9 0 -16 -6 -16 -14 0 -8 -16 -20 -37 -27 -20 -7
-47 -19 -60 -27 -12 -8 -37 -18 -53 -21 -42 -9 -58 -37 -39 -65 9 -12 20 -18
26 -15 6 4 9 1 6 -7 -3 -8 -17 -13 -32 -12 -19 1 -26 -3 -26 -17 0 -10 4 -21
8 -24 4 -2 9 -21 10 -42 2 -20 5 -41 8 -46 3 -4 7 -35 10 -69 5 -72 22 -96 55
-78 15 7 19 8 15 0 -4 -6 -2 -11 3 -11 6 0 11 4 11 9 0 8 28 19 69 27 7 1 23
11 35 22 37 33 54 34 88 2 17 -17 34 -30 39 -30 4 0 4 -14 -1 -31 -18 -60
-111 -109 -195 -102 -27 3 -53 10 -57 16 -3 6 -23 10 -43 9 -21 -1 -33 3 -30
8 8 13 -8 13 -21 0 -7 -7 -19 -8 -37 -1 -19 8 -28 6 -37 -5 -7 -7 -24 -14 -39
-14 -30 0 -243 -46 -281 -60 -50 -20 -179 -20 -229 -1 -44 18 -48 18 -88 0
-24 -10 -43 -23 -43 -30 0 -6 -7 -9 -14 -6 -36 14 -22 -69 16 -100 33 -26 58
-25 101 7 l44 31 44 -16 c24 -9 52 -21 62 -26 10 -5 21 -7 26 -5 4 3 16 -1 26
-8 11 -8 33 -11 53 -9 29 4 34 2 29 -11 -7 -19 -3 -20 23 -6 13 7 21 7 25 0 9
-15 35 -12 35 3 0 8 7 14 15 14 19 0 19 -13 0 -21 -8 -3 -14 -11 -13 -18 2 -8
-6 -12 -22 -11 -17 1 -19 0 -6 -4 13 -3 15 -7 7 -13 -9 -5 -7 -9 7 -12 15 -4
19 -2 15 8 -3 8 3 17 13 21 11 4 19 2 22 -6 3 -9 7 -9 18 0 12 10 13 9 8 -6
-5 -12 -4 -16 3 -12 13 8 23 -15 23 -53 0 -16 7 -30 16 -34 12 -5 14 -1 9 17
-4 12 -7 24 -7 27 -1 54 5 80 22 98 24 26 40 28 40 7 0 -18 17 -20 22 -3 3 7
7 2 10 -10 4 -12 3 -22 -1 -22 -4 0 -6 -13 -3 -28 3 -22 -1 -30 -22 -40 -17
-8 -26 -8 -26 -1 0 6 -5 7 -10 4 -6 -3 -10 -19 -10 -34 0 -23 7 -31 38 -44 35
-14 35 -15 10 -16 -15 -1 -30 -6 -34 -13 -4 -7 -3 -8 4 -4 7 4 12 2 12 -3 0
-6 6 -11 14 -11 8 0 18 -5 22 -12 4 -6 3 -8 -4 -4 -6 3 -14 -3 -17 -14 -5 -15
1 -28 20 -46 22 -20 25 -28 15 -39 -7 -8 -16 -13 -20 -10 -4 3 -10 -1 -13 -9
-6 -15 48 -66 70 -66 7 0 13 -4 13 -9 0 -4 14 -7 30 -5 17 2 30 -1 30 -7 0 -6
6 -7 13 -2 6 4 57 8 112 9 55 1 115 3 132 6 18 2 35 -1 38 -6 3 -7 7 -7 11 2
4 9 13 7 33 -7 25 -18 30 -19 49 -5 14 9 22 11 22 4 0 -6 4 -9 9 -5 5 3 12 1
16 -5 3 -5 17 -7 30 -4 20 5 24 1 31 -28 4 -18 9 -27 11 -20 3 6 9 10 14 6 5
-3 9 4 9 16 0 12 -4 18 -10 15 -5 -3 -10 -1 -10 4 0 19 22 12 27 -9 3 -11 10
-20 17 -20 6 0 5 -4 -3 -9 -10 -6 -4 -11 20 -16 19 -4 37 -13 42 -19 5 -8 10
-7 16 3 15 23 45 5 36 -22 -20 -63 3 -121 25 -63 12 33 30 34 30 1 0 -14 -5
-25 -11 -25 -6 0 -17 -7 -25 -15 -9 -8 -11 -15 -5 -15 5 0 13 5 16 10 10 16
25 12 25 -6 0 -11 6 -15 20 -11 13 3 20 0 20 -9 0 -7 -6 -11 -14 -8 -9 3 -17
-3 -21 -15 -9 -30 -23 -17 -19 16 2 16 1 21 -2 12 -3 -11 -13 -15 -28 -12 -13
3 -26 0 -30 -5 -4 -6 2 -8 14 -5 16 4 19 2 14 -11 -4 -10 -13 -14 -24 -11 -10
3 -21 2 -24 -3 -3 -5 10 -8 29 -6 24 1 35 -2 35 -11 0 -8 9 -17 20 -20 12 -4
17 -11 13 -18 -4 -7 -8 -18 -9 -25 -2 -8 -6 -17 -10 -20 -4 -4 -4 1 -1 11 5
12 1 17 -11 17 -15 0 -15 2 -2 11 12 8 9 9 -10 4 -55 -13 -84 -15 -72 -3 6 6
22 10 37 10 34 0 15 23 -20 23 -18 1 -28 -8 -41 -37 -9 -20 -14 -44 -11 -52 5
-12 0 -16 -18 -16 -13 0 -27 4 -30 10 -3 6 1 7 10 4 12 -5 14 -1 11 17 -3 13
-5 29 -5 35 -1 6 -8 11 -16 11 -18 0 -20 -13 -2 -21 6 -3 2 -3 -10 0 -21 5
-28 -3 -25 -27 1 -4 -8 -15 -20 -25 -12 -11 -18 -13 -14 -6 4 6 5 12 1 12 -3
0 -10 -10 -15 -22 -5 -15 -9 -17 -9 -7 -1 9 -8 16 -16 16 -10 0 -12 -4 -5 -12
8 -9 4 -15 -12 -20 -19 -6 -20 -8 -5 -12 9 -2 17 -8 17 -13 0 -5 -7 -7 -16 -3
-12 4 -15 -1 -12 -23 3 -27 1 -29 -29 -28 -18 1 -33 -2 -33 -7 0 -5 -8 -9 -18
-9 -10 0 -24 -6 -30 -12 -10 -10 -15 -10 -22 2 -9 13 -10 13 -10 0 0 -13 -1
-13 -10 0 -8 12 -10 12 -16 -3 -3 -9 -14 -17 -23 -17 -9 0 -22 -5 -29 -12 -9
-9 -12 -9 -12 3 0 12 -2 12 -10 -1 -8 -13 -10 -13 -10 -1 0 10 -6 8 -21 -8
-12 -12 -27 -20 -35 -17 -7 3 -17 -2 -22 -11 -7 -12 -13 -13 -30 -4 -15 8 -22
8 -25 -2 -4 -9 -6 -9 -6 1 -1 6 -6 12 -12 12 -5 0 -8 -4 -5 -9 3 -5 -13 -7
-37 -4 -69 8 -118 6 -144 -8 -25 -13 -51 -7 -155 36 -13 5 -18 2 -18 -9 0 -16
135 -86 193 -100 16 -4 27 -13 27 -23 0 -20 100 -128 152 -165 21 -14 53 -39
72 -55 19 -15 59 -46 90 -67 31 -22 56 -43 56 -48 0 -4 9 -8 20 -8 11 0 20 -4
20 -9 0 -5 11 -12 25 -15 14 -4 23 -10 20 -15 -2 -5 2 -12 11 -15 9 -4 14 -9
11 -12 -3 -4 11 -24 31 -46 20 -21 42 -52 49 -69 6 -16 17 -29 24 -29 20 0 50
-43 45 -65 -3 -11 -1 -27 4 -35 6 -10 4 -20 -7 -33 -16 -17 -16 -17 0 -11 9 3
17 2 17 -4 0 -6 -6 -13 -12 -15 -10 -4 -10 -6 0 -6 6 -1 12 -7 12 -15 0 -8 -6
-17 -12 -19 -7 -3 -3 -6 10 -6 17 -1 24 -9 28 -30 4 -17 12 -28 21 -27 9 0 18
-5 21 -13 3 -8 0 -11 -7 -7 -6 4 -11 2 -11 -3 0 -12 4 -13 65 -15 53 -3 137
45 157 88 7 17 18 30 24 29 6 -1 17 10 25 25 19 36 126 145 146 148 9 2 19 6
22 11 8 11 161 11 161 0 0 -5 6 -7 13 -4 8 3 22 -6 32 -20 20 -25 38 -26 136
-7 27 5 27 5 23 -50 -2 -30 -8 -66 -13 -79 -13 -33 16 -42 50 -15 l24 20 -30
26 c-18 15 -25 27 -18 29 10 4 10 9 1 23 -15 24 -8 31 34 36 38 4 71 -18 83
-57 12 -39 36 -61 51 -48 16 13 48 4 39 -12 -4 -5 0 -18 8 -27 29 -34 51 -142
28 -142 -5 0 -7 -10 -3 -22 3 -12 1 -19 -5 -15 -5 3 -15 -2 -23 -13 -7 -10
-19 -16 -27 -13 -25 10 -13 -22 15 -38 21 -12 28 -24 29 -52 2 -20 -2 -37 -7
-37 -6 0 -10 -6 -10 -13 0 -8 -9 -22 -21 -33 -19 -17 -19 -19 -4 -30 9 -7 23
-10 31 -7 8 3 24 -3 34 -12 20 -18 20 -18 -2 -36 l-21 -19 21 0 c12 0 25 6 29
14 7 12 10 12 21 0 11 -12 9 -14 -8 -14 -20 0 -28 -24 -11 -34 6 -4 6 -20 0
-41 -8 -28 -7 -37 8 -52 10 -10 27 -17 38 -15 14 2 26 -9 42 -38 20 -37 20
-41 5 -50 -15 -9 -15 -12 5 -28 12 -11 28 -35 37 -55 16 -39 56 -53 56 -20 0
9 3 14 6 10 3 -3 3 -15 -1 -27 -5 -15 -12 -19 -27 -14 -13 4 -18 2 -14 -4 3
-6 2 -13 -4 -17 -20 -12 3 -27 34 -21 24 5 34 2 44 -14 10 -17 9 -27 -8 -61
-15 -28 -19 -50 -15 -70 7 -31 36 -52 43 -31 6 19 22 14 22 -8 0 -11 -4 -20
-8 -20 -5 0 -16 -6 -25 -12 -14 -11 -14 -15 -2 -32 13 -18 16 -18 39 -3 14 9
27 13 30 8 3 -4 17 -7 31 -6 14 2 27 -1 31 -6 4 -8 51 -3 63 7 1 1 5 20 8 41
3 21 9 45 14 54 5 10 0 32 -16 63 -18 35 -22 53 -15 71 5 12 6 25 3 28 -3 4 2
13 11 22 9 9 13 21 10 26 -12 20 6 59 27 59 11 0 17 5 14 10 -3 6 1 13 11 17
15 5 14 8 -7 15 -22 9 -23 10 -6 22 9 7 17 19 17 26 0 7 7 18 16 25 18 13 64
8 64 -7 0 -5 4 -7 9 -4 5 3 7 15 4 26 -4 16 -2 19 11 14 9 -4 16 -1 16 6 0 7
11 28 25 46 14 18 25 40 25 48 0 10 9 16 24 16 15 0 27 7 31 18 6 20 60 28 71
11 3 -5 10 -7 15 -3 6 4 6 10 -1 19 -6 7 -10 17 -9 21 2 15 -13 54 -21 54 -4
0 -13 -7 -20 -15 -10 -12 -10 -18 0 -30 7 -9 10 -18 7 -22 -12 -11 -37 19 -37
44 0 14 -4 21 -10 18 -6 -4 -8 -10 -6 -14 3 -4 0 -13 -5 -21 -8 -11 -9 -3 -4
25 4 22 6 53 6 69 -2 43 19 81 53 96 17 7 33 16 36 20 3 4 17 10 32 14 23 5
26 3 21 -10 -5 -14 -2 -16 18 -11 13 4 28 7 32 7 5 0 6 3 4 8 -3 4 17 5 44 4
27 -2 49 -8 49 -13 0 -5 7 -9 15 -9 8 0 15 9 15 21 0 11 5 17 10 14 6 -3 13 1
16 10 6 13 8 14 15 3 7 -10 9 -10 9 0 0 7 13 12 30 12 17 0 30 -5 30 -11 0 -5
5 -7 11 -3 6 3 14 3 18 -2 3 -5 15 -14 26 -21 11 -6 19 -16 17 -22 -1 -6 2
-11 7 -11 5 0 11 -10 14 -21 5 -17 11 -20 31 -15 15 4 26 1 28 -6 4 -12 30
-20 67 -20 15 0 20 -3 12 -8 -10 -5 -9 -9 3 -13 8 -3 18 -1 22 4 3 6 17 8 31
4 14 -3 31 -1 39 6 10 8 20 4 44 -23 17 -18 35 -34 40 -34 6 -1 22 -2 38 -3
33 -2 76 -66 87 -130 7 -45 20 -54 27 -19 7 37 -10 398 -22 468 -12 72 -66
188 -95 204 -23 14 -87 78 -130 131 -32 38 -67 108 -149 295 -42 96 -58 118
-103 145 -25 15 -38 16 -65 9 -32 -9 -33 -12 -34 -62 -1 -33 3 -55 12 -63 8
-6 11 -15 8 -20 -3 -5 0 -9 6 -9 7 0 8 -6 0 -19 -14 -26 -13 -31 6 -31 11 0
13 -6 9 -19 -3 -11 1 -26 10 -35 15 -15 15 -17 1 -32 -20 -19 -21 -35 -2 -28
10 4 12 -2 9 -20 -7 -34 -18 -33 -35 4 -7 16 -17 30 -21 30 -5 0 -6 4 -2 9 3
6 -3 14 -12 20 -10 6 -13 11 -8 11 6 0 3 5 -5 11 -11 8 -12 12 -2 16 18 7 15
26 -4 19 -13 -5 -15 -1 -11 21 6 35 -1 53 -19 46 -17 -6 -18 9 -2 25 9 9 9 12
0 12 -7 0 -12 5 -12 10 0 6 7 10 15 10 10 0 15 10 15 28 0 20 3 23 9 13 6 -10
8 0 5 27 -2 25 1 42 7 42 6 0 8 9 4 19 -3 11 -1 22 5 26 5 3 10 15 10 25 0 40
22 67 64 81 53 17 47 16 151 18 50 1 97 5 104 10 18 11 19 26 26 381 3 146 8
281 10 300 8 64 17 184 20 261 2 42 8 110 15 150 6 41 13 89 15 108 2 19 7 53
11 75 11 63 10 126 -1 126 -6 0 -5 3 1 8 15 10 30 57 15 48 -6 -4 -11 -2 -11
3 0 6 3 11 8 11 8 0 7 53 -2 103 -2 15 -1 27 4 27 4 0 8 20 8 45 1 25 6 53 11
63 5 10 13 53 17 95 4 42 11 77 16 77 4 0 6 11 4 25 -3 14 0 25 6 25 7 0 7 4
0 13 -9 10 -8 19 3 34 8 11 12 23 9 26 -3 3 2 20 11 37 9 18 15 41 12 51 -3
11 -2 19 2 19 9 0 -2 101 -13 119 -6 10 -5 12 2 7 7 -4 12 -1 12 7 0 7 18 48
40 90 50 95 128 288 135 336 3 20 -8 -2 -24 -49 -34 -96 -120 -273 -122 -250
0 8 -5 4 -9 -10 -6 -18 -7 -10 -5 28 3 38 0 51 -8 46 -7 -3 -5 0 3 8 12 10 14
23 8 53 -4 22 -4 73 -1 114 4 51 2 75 -6 80 -9 6 -9 14 0 35 10 20 10 32 2 45
-7 11 -8 23 -2 32 5 8 8 44 7 80 -3 63 -1 68 40 122 23 31 42 60 42 65 0 5
-13 8 -29 7 -23 -1 -27 2 -23 17 3 12 -1 18 -12 18 -9 0 -16 6 -16 13 -1 6 -3
29 -6 51 -4 24 -2 41 6 46 14 9 4 75 -15 93 -6 7 -10 18 -7 26 3 8 0 11 -7 7
-16 -10 -26 21 -12 38 8 9 9 16 2 21 -6 3 -9 26 -7 50 2 33 0 45 -10 45 -10 0
-14 15 -15 53 -2 86 1 140 11 176 9 35 -3 116 -21 136 -12 13 -11 62 1 70 15
9 12 35 -4 35 -17 0 -28 30 -25 68 1 15 -1 47 -5 72 -4 25 -9 56 -10 70 -2 14
-5 30 -6 35 -6 24 1 43 18 49 9 3 22 8 28 11 7 3 15 -6 19 -22 6 -25 8 -26 14
-9 7 19 41 32 41 15 0 -11 60 -42 68 -35 3 3 -8 11 -24 16 -16 6 -34 20 -39
33 -6 12 -39 38 -75 57 -44 24 -65 42 -64 53 1 12 -15 25 -50 41 -77 35 -91
40 -122 44 -7 1 -14 9 -18 17 -7 19 -1 19 19 -1 19 -20 33 -11 16 10 -11 13
-8 20 15 41 l27 25 -56 -1 c-68 -2 -123 17 -107 36 8 10 6 16 -7 24 -17 11
-17 12 0 25 17 13 17 15 1 24 -12 7 -15 16 -10 37 7 26 9 27 47 21 29 -5 38
-3 33 5 -8 14 31 2 64 -19 55 -36 144 -82 203 -106 35 -13 73 -59 136 -164 30
-50 29 -33 -2 26 -25 48 -56 90 -133 180 -23 28 -38 53 -33 56 14 9 79 -31
135 -83 49 -45 49 -45 23 -9 -15 20 -27 40 -27 44 0 15 63 -52 113 -121 87
-120 86 -107 -2 20 -23 33 -49 71 -58 85 -18 28 -53 59 -66 60 -5 0 -5 -5 -1
-12 5 -7 3 -8 -5 -4 -7 5 -10 10 -7 13 14 14 -43 68 -119 114 -47 29 -82 56
-79 60 3 5 -5 9 -18 9 -25 1 -52 18 -55 38 -2 6 -2 12 0 12 7 0 114 -43 139
-56 38 -20 35 -12 -13 38 -24 25 -36 44 -29 46 7 3 15 0 19 -5 3 -6 24 -13 46
-16 27 -4 35 -3 25 3 -8 5 -22 10 -30 10 -8 0 -24 7 -34 15 -18 14 -14 15 48
12 37 -2 72 -9 79 -16 6 -6 20 -11 32 -11 27 0 118 -60 179 -118 43 -42 47
-44 33 -17 -17 33 -83 105 -97 105 -5 0 -15 6 -22 14 -20 20 -74 46 -95 46
-10 0 -30 6 -45 14 -15 8 -37 12 -50 10 -19 -4 -20 -3 -4 4 17 7 15 11 -18 30
-43 25 -53 27 -59 10 -3 -10 -38 -13 -130 -13 -107 0 -129 3 -144 18 -14 14
-14 17 -3 17 10 0 6 7 -10 20 -21 17 -23 21 -10 30 10 7 12 12 4 18 -6 4 -14
17 -18 30 -6 18 -4 22 13 22 17 0 21 -6 21 -35 0 -19 5 -35 10 -35 9 0 15 53
13 100 -2 25 -42 202 -57 251 -8 26 -15 71 -15 100 -1 30 -1 61 -2 69 0 8 2
31 5 51 5 42 -7 71 -18 43 -6 -16 -9 -14 -26 11 -11 17 -27 55 -36 84 -9 30
-28 80 -43 110 -16 31 -36 92 -45 136 -33 151 -70 230 -156 335 -50 59 -50 59
-39 102 13 49 10 58 -51 158 -22 36 -56 96 -76 133 -36 65 -43 72 -166 154
-101 67 -143 102 -189 157 -32 39 -64 85 -71 103 -6 17 -19 34 -27 37 -9 3
-25 11 -36 18 -121 78 -196 111 -283 124 -79 11 -174 34 -232 55 -30 12 -71
27 -90 34 -61 23 -220 57 -236 51 -8 -3 -59 -1 -112 5 -75 8 -106 16 -135 35
-21 14 -70 31 -108 39 -80 15 -91 22 -136 92 -18 29 -41 56 -51 61 -9 5 -51
12 -92 14 -60 4 -84 10 -119 32 -88 56 -211 106 -293 121 -112 20 -127 19
-173 -13z m-670 -372 c-3 -5 -11 -10 -16 -10 -6 0 -7 5 -4 10 3 6 11 10 16 10
6 0 7 -4 4 -10z m-35 -44 c0 -3 -4 -8 -10 -11 -5 -3 -10 -1 -10 4 0 6 5 11 10
11 6 0 10 -2 10 -4z m115 -1434 c-3 -3 -11 0 -18 7 -9 10 -8 11 6 5 10 -3 15
-9 12 -12z m-245 -152 c0 -5 -2 -10 -4 -10 -3 0 -8 5 -11 10 -3 6 -1 10 4 10
6 0 11 -4 11 -10z m1420 -80 c18 -12 2 -12 -25 0 -13 6 -15 9 -5 9 8 0 22 -4
30 -9z m37 -36 c-3 -3 -12 -4 -19 -1 -8 3 -5 6 6 6 11 1 17 -2 13 -5z m-1854
-11 c-7 -2 -21 -2 -30 0 -10 3 -4 5 12 5 17 0 24 -2 18 -5z m4267 -568 c0 -8
-4 -15 -10 -15 -5 0 -10 7 -10 15 0 8 5 15 10 15 6 0 10 -7 10 -15z m0 -62 c0
-29 -12 -24 -17 7 -2 11 2 20 7 20 6 0 10 -12 10 -27z m-1163 -75 c-3 -8 -6
-5 -6 6 -1 11 2 17 5 13 3 -3 4 -12 1 -19z m37 -48 c10 0 17 -3 13 -6 -10 -10
-57 5 -57 18 0 9 3 9 12 0 7 -7 21 -12 32 -12z m1501 -20 c3 -6 -5 -10 -19
-10 -14 0 -28 5 -31 10 -3 6 5 10 19 10 14 0 28 -4 31 -10z m-1518 -106 c-3
-3 -12 -4 -19 -1 -8 3 -5 6 6 6 11 1 17 -2 13 -5z m43 -24 c0 -5 -2 -10 -4
-10 -3 0 -8 5 -11 10 -3 6 -1 10 4 10 6 0 11 -4 11 -10z m1225 1 c3 -5 1 -12
-4 -15 -12 -8 -41 3 -41 15 0 12 37 12 45 0z m105 -41 c18 -12 2 -12 -25 0
-13 6 -15 9 -5 9 8 0 22 -4 30 -9z m25 -38 c-3 -3 -11 0 -18 7 -9 10 -8 11 6
5 10 -3 15 -9 12 -12z m65 -12 c8 -5 11 -10 5 -10 -5 0 -17 5 -25 10 -8 5 -10
10 -5 10 6 0 17 -5 25 -10z m-93 -45 c12 -9 26 -14 30 -13 12 3 53 -21 101
-59 44 -36 53 -53 27 -53 -8 0 -15 4 -15 9 0 5 -30 23 -67 42 -68 32 -113 65
-113 81 0 12 13 10 37 -7z m-1180 -31 c-3 -3 -12 -4 -19 -1 -8 3 -5 6 6 6 11
1 17 -2 13 -5z m47 -69 c-4 -8 -13 -15 -22 -15 -13 0 -12 3 4 15 24 18 25 18
18 0z m-150 -95 c3 -14 3 -19 0 -12 -3 6 -17 12 -30 12 -13 0 -24 4 -24 10 0
5 7 7 15 4 8 -4 15 -1 15 5 0 6 -5 11 -11 11 -5 0 -7 5 -4 10 9 14 31 -9 39
-40z m-144 13 c0 -20 -3 -21 -30 -12 -39 14 -39 36 0 35 24 -1 30 -5 30 -23z
m51 0 c13 -16 12 -17 -3 -4 -10 7 -18 15 -18 17 0 8 8 3 21 -13z m260 -43 c6
0 8 -4 4 -10 -11 -18 -33 1 -27 23 5 18 7 19 10 5 2 -10 8 -18 13 -18z m26 8
c-3 -8 -6 -5 -6 6 -1 11 2 17 5 13 3 -3 4 -12 1 -19z m20 0 c-3 -8 -6 -5 -6 6
-1 11 2 17 5 13 3 -3 4 -12 1 -19z m116 -23 c-3 -9 -8 -14 -10 -11 -3 3 -2 9
2 15 9 16 15 13 8 -4z m-32 -43 c1 -17 3 -21 6 -9 7 27 26 20 21 -8 -7 -34 8
-32 17 2 4 18 9 23 14 14 4 -6 14 -11 22 -9 11 2 15 -13 19 -62 5 -62 6 -63
18 -36 10 24 15 26 28 15 8 -7 14 -24 12 -38 -2 -16 6 -35 20 -50 12 -13 22
-32 22 -42 0 -11 5 -19 11 -19 6 0 9 -9 6 -20 -3 -11 -1 -18 3 -15 13 8 30
-29 30 -63 0 -16 6 -47 14 -69 9 -27 16 -107 20 -237 3 -108 8 -201 11 -206 3
-4 8 -41 11 -82 3 -40 14 -107 25 -148 10 -41 20 -86 21 -100 2 -14 6 -29 9
-35 7 -11 30 -80 36 -105 8 -30 9 -422 2 -480 -4 -36 -21 -89 -43 -135 -39
-81 -68 -180 -86 -290 -32 -205 -60 -386 -65 -430 -24 -177 -124 -483 -198
-602 -13 -21 -34 -65 -47 -97 -13 -33 -42 -80 -64 -106 -23 -25 -60 -71 -83
-101 -162 -210 -251 -319 -261 -319 -4 0 -8 16 -9 35 -2 26 1 35 12 35 8 0 15
5 15 11 0 6 -7 9 -15 5 -8 -3 -15 -1 -15 4 0 6 7 10 16 10 11 0 14 5 10 16 -5
14 -4 15 9 4 9 -7 14 -19 11 -26 -3 -7 0 -11 7 -8 7 2 14 16 15 30 1 20 -2 25
-13 20 -9 -3 -16 1 -16 9 -1 8 -3 20 -4 25 -1 6 -3 16 -4 23 -1 8 -3 9 -9 1
-4 -6 -16 -14 -27 -18 -17 -5 -20 -1 -22 27 -1 17 -4 51 -7 75 -5 35 -3 42 12
42 14 0 15 2 2 10 -12 8 -12 12 0 36 8 15 14 36 12 47 -3 13 0 17 9 12 9 -6
10 -1 5 19 -4 18 -3 25 4 21 5 -3 10 -13 10 -22 0 -22 6 -14 14 20 4 16 3 26
-2 23 -5 -3 -7 6 -4 20 3 15 -1 29 -7 34 -7 4 -14 16 -16 26 -2 10 -4 21 -4
24 -1 3 -5 -1 -9 -8 -5 -7 -8 17 -7 53 0 35 6 70 12 76 9 9 9 18 2 31 -9 16
-7 20 10 25 12 3 21 10 21 15 0 5 5 6 11 3 6 -4 9 -19 8 -33 -2 -31 9 -62 22
-62 5 0 9 7 9 16 0 9 8 30 18 46 13 24 14 32 4 35 -10 4 -9 10 4 24 17 19 17
20 0 37 -14 14 -17 14 -14 2 2 -9 -4 -15 -17 -15 -23 0 -23 25 0 90 7 22 9 41
4 43 -5 2 -9 16 -9 30 0 21 2 24 10 12 8 -12 10 -10 10 9 0 16 4 21 15 17 8
-3 15 -1 15 4 0 6 -4 10 -10 10 -12 0 -13 11 0 30 8 13 11 12 23 -4 14 -19 15
-19 26 1 9 18 8 20 -9 16 -11 -3 -20 0 -20 6 0 25 -22 8 -41 -31 -14 -32 -18
-36 -14 -15 6 29 -13 97 -26 97 -20 0 -19 -23 1 -37 15 -10 18 -19 11 -26 -6
-6 -15 -4 -26 7 -9 9 -21 16 -27 16 -5 0 -7 7 -4 16 9 24 -23 45 -59 38 -23
-4 -26 -3 -15 5 8 6 11 11 6 11 -5 0 -3 7 4 15 7 9 10 19 6 22 -4 4 -11 1 -15
-6 -5 -7 -14 -10 -20 -7 -6 4 -11 2 -11 -4 0 -7 -9 -9 -22 -5 -20 5 -19 3 5
-12 15 -10 27 -23 27 -29 0 -12 36 -27 58 -25 17 2 15 -18 -2 -25 -8 -3 -25 4
-38 16 -13 12 -31 19 -41 16 -13 -3 -17 0 -13 10 3 8 2 13 -3 10 -5 -3 -12 2
-15 11 -6 15 -9 14 -19 -7 -7 -13 -18 -25 -26 -28 -8 -3 -11 0 -7 7 10 15 -17
14 -32 -1 -7 -7 -12 -9 -12 -5 0 4 -9 3 -19 -3 -13 -7 -22 -7 -26 0 -3 5 -13
10 -22 10 -14 0 -14 -2 2 -20 10 -11 22 -17 26 -14 5 3 9 0 9 -6 0 -8 -9 -10
-23 -7 -12 4 -29 1 -37 -4 -13 -9 -13 -10 1 -6 12 4 16 -2 17 -23 1 -30 -7
-31 -73 -14 -15 4 -17 3 -6 -4 11 -8 8 -14 -19 -31 -28 -16 -31 -21 -17 -27 9
-3 17 -10 17 -16 0 -5 -10 -2 -22 6 -32 23 -44 20 -22 -5 18 -20 18 -21 -1
-35 -14 -10 -15 -14 -4 -15 10 0 10 -2 2 -6 -7 -2 -13 -11 -13 -18 0 -8 -11
-26 -24 -40 -20 -21 -25 -23 -30 -9 -3 9 -3 20 0 26 4 5 -4 4 -17 -2 -21 -12
-21 -14 -6 -25 9 -7 17 -20 17 -30 0 -15 -4 -14 -25 6 -13 13 -25 33 -25 44
-1 19 -2 19 -10 -1 -5 -12 -13 -25 -19 -28 -7 -4 -8 -1 -5 8 7 19 4 19 -30 7
-21 -8 -27 -6 -41 16 -10 14 -12 22 -6 19 7 -5 9 -1 5 8 -3 9 -10 16 -15 16
-5 0 -7 10 -4 23 8 34 -17 60 -47 48 -20 -7 -24 -6 -24 10 0 13 6 17 16 14 12
-4 15 4 15 38 -1 23 -4 50 -9 59 -5 11 -1 23 13 37 12 12 21 18 21 14 0 -3 10
2 22 13 12 10 18 13 14 7 -5 -9 -2 -11 8 -7 22 8 20 16 -12 39 -21 15 -24 15
-13 2 11 -15 11 -17 -2 -17 -8 0 -18 -6 -20 -12 -4 -8 -6 -7 -6 4 -1 9 -4 25
-7 35 -5 15 -4 15 5 3 9 -12 11 -13 11 -1 0 8 -8 23 -17 33 -12 14 -14 21 -6
26 16 10 0 82 -21 98 -9 6 -14 13 -11 16 2 2 -4 28 -15 56 -11 29 -16 52 -11
52 4 0 6 11 3 25 -2 14 -9 25 -14 25 -6 0 -4 7 3 17 13 15 11 16 -16 10 -16
-3 -24 -4 -16 0 7 3 9 8 4 12 -5 3 -19 25 -30 49 -17 34 -18 44 -8 48 8 3 11
13 8 22 -5 12 -2 14 11 9 10 -4 15 -3 11 3 -3 6 -15 10 -26 10 -18 0 -20 4
-14 33 4 17 14 43 22 55 14 23 14 24 -9 17 -19 -6 -21 -5 -10 6 18 20 15 28
-10 22 -19 -4 -20 -3 -8 6 8 6 11 11 6 11 -5 0 -1 9 9 20 10 11 15 21 12 21
-4 1 -13 2 -19 3 -9 1 -13 18 -12 48 0 26 -3 45 -7 43 -4 -3 -7 1 -6 8 0 6 -1
21 -2 32 -1 17 -3 18 -12 5 -8 -12 -9 -9 -5 13 4 15 2 27 -3 27 -5 0 -13 14
-16 32 -4 17 -14 38 -21 46 -8 7 -14 20 -14 28 0 8 -4 12 -10 9 -5 -3 -10 3
-10 14 0 12 6 21 13 21 8 1 7 4 -3 13 -17 14 -26 42 -10 32 5 -3 10 1 10 9 0
24 0 23 15 65 11 33 11 40 0 45 -14 5 -9 46 6 46 5 0 6 -6 3 -14 -3 -8 0 -17
6 -21 6 -3 10 -3 9 2 -4 22 2 44 10 38 5 -3 12 4 16 15 3 11 14 20 24 20 10 0
18 6 18 13 0 6 4 20 8 30 4 10 3 17 -4 17 -6 0 -11 -5 -11 -11 0 -16 -42 -48
-65 -49 -16 0 -13 4 13 20 34 21 45 38 13 20 -23 -12 -42 -13 -39 -2 4 14 -14
52 -22 47 -5 -3 -11 -1 -15 5 -3 5 -1 10 5 10 6 0 9 4 5 9 -7 12 25 19 45 10
21 -10 113 -31 128 -30 30 2 78 1 94 -1 29 -5 19 16 -12 27 -22 7 -27 14 -21
24 10 16 3 42 -13 53 -6 4 -4 14 7 26 9 10 17 28 17 38 0 19 83 104 102 104 4
0 8 -20 8 -45 0 -85 52 -165 135 -207 35 -18 38 -22 20 -28 -19 -7 -19 -7 3
-14 20 -7 20 -9 7 -22 -15 -15 -40 -10 -30 5 9 16 -50 8 -61 -8 -10 -13 -11
-11 -7 12 5 24 2 27 -21 27 -67 0 -125 -62 -82 -88 19 -12 19 -13 1 -8 -20 6
-20 6 -1 -9 13 -10 22 -11 26 -5 8 12 40 3 40 -12 0 -5 -6 -6 -12 -2 -7 3 1
-5 17 -19 18 -16 58 -33 101 -43 43 -10 71 -22 71 -30 0 -7 -4 -11 -8 -9 -4 3
-17 1 -30 -3 -22 -9 -22 -9 7 -17 16 -5 37 -7 47 -6 9 1 17 -2 17 -7 0 -13
248 -8 283 7 16 6 40 11 53 11 14 0 22 4 19 10 -3 6 5 11 19 11 30 2 30 2 74
18 32 13 43 31 20 31 -7 1 -2 10 11 21 17 14 32 18 50 14 21 -5 23 -4 12 9
-18 21 -5 36 30 36 16 0 29 4 29 9 0 13 61 25 69 14 7 -11 39 -21 86 -29 27
-4 28 -3 13 9 -24 19 -23 30 2 17 16 -8 26 -7 42 5 l22 15 -24 1 c-18 1 -20 3
-7 6 12 3 16 10 12 24 -4 13 -2 19 9 19 24 0 19 27 -6 35 l-23 8 23 4 c22 4
26 12 22 46 -1 9 4 16 10 15 14 -4 40 67 30 79 -4 4 -10 39 -12 77 -3 50 -9
72 -22 81 -9 7 -18 22 -19 34 -1 12 -5 21 -10 21 -4 0 -7 6 -6 13 0 6 -2 22
-6 34 -4 12 -6 25 -5 29 1 4 -3 10 -10 14 -8 5 -8 14 1 33 15 33 4 48 -16 21
-11 -15 -14 -16 -15 -3 0 21 25 54 42 54 7 0 17 10 23 23 5 12 15 20 22 18 7
-3 15 -1 18 4 4 6 -4 10 -16 10 -30 0 -19 9 14 12 46 4 30 18 -20 18 -35 0
-44 3 -33 10 12 7 12 10 1 10 -8 0 -11 6 -7 16 4 10 -4 21 -24 32 -16 9 -30
20 -30 25 0 4 -7 7 -16 7 -9 0 -12 5 -8 12 4 7 3 8 -5 4 -14 -9 -71 30 -71 49
0 8 -9 16 -19 20 -10 3 -31 18 -45 32 -20 20 -24 28 -14 35 9 5 7 8 -7 8 -21
1 -55 22 -55 35 0 4 11 0 25 -9 27 -18 35 -20 35 -8 0 5 -11 14 -25 20 -14 6
-25 17 -25 23 0 13 48 -16 68 -40 10 -14 11 -14 5 3 -5 16 -3 18 11 13 11 -4
16 -3 14 4 -2 6 -21 17 -42 24 -22 8 -43 20 -47 27 -7 10 -9 10 -9 -1 0 -8 -2
-12 -5 -9 -13 13 8 36 28 32 12 -3 29 -6 37 -7 8 -1 22 -9 30 -17 8 -8 26 -16
40 -17 l25 -2 -22 11 c-13 6 -23 15 -23 20 0 5 4 7 9 4 5 -3 14 1 21 9 6 7 18
11 26 8 8 -3 14 1 14 8 0 7 -3 10 -6 6 -4 -3 -13 1 -21 9 -8 8 -19 12 -24 9
-5 -4 -6 1 -3 10 5 12 10 13 17 6 17 -17 27 -13 21 7 -5 14 -4 14 4 3 6 -8 20
-16 32 -18 20 -3 22 0 17 27 -4 16 -3 30 2 30 13 0 21 -27 15 -45 -4 -8 -1
-21 5 -29 7 -8 10 -19 9 -26 -2 -7 3 -15 10 -17 8 -3 10 1 6 11 -5 12 -2 15
10 10 9 -3 16 -1 16 5 0 6 -6 11 -14 11 -8 0 -16 7 -19 14 -6 16 16 12 41 -7
7 -5 15 -7 19 -3 8 8 -29 36 -39 30 -5 -3 -8 2 -8 11 0 9 5 13 10 10 6 -3 10
-1 10 4 0 6 -6 11 -13 11 -8 0 -11 14 -9 45 2 25 8 43 12 40 13 -8 19 49 7 64
-10 12 -9 14 6 8 10 -4 17 -2 17 6 0 7 9 13 20 14 15 1 20 -5 21 -25z m889
-26 c-6 -6 -16 -4 -26 4 -15 13 -14 15 3 21 20 7 37 -11 23 -25z m-1137 6 c14
-15 14 -19 3 -19 -8 0 -17 9 -19 19 -3 10 -4 18 -3 18 2 0 10 -8 19 -18z m-58
-30 c-3 -3 -11 0 -18 7 -9 10 -8 11 6 5 10 -3 15 -9 12 -12z m35 -12 c0 -5 8
-6 18 -3 16 7 16 6 0 -11 -22 -22 -65 -13 -45 9 14 17 27 19 27 5z m13 -42 c9
0 17 -4 17 -10 0 -7 5 -6 14 1 19 16 40 -17 25 -40 -8 -11 -12 -11 -16 -1 -8
21 -21 13 -16 -10 5 -22 4 -22 -21 4 -14 15 -26 32 -26 38 0 5 -12 10 -26 10
-17 0 -23 -4 -18 -12 5 -9 2 -9 -9 1 -18 14 -23 26 -8 16 5 -3 13 -1 16 5 4 6
16 8 28 4 12 -4 30 -7 40 -6z m-3 -79 c0 -14 -11 -11 -32 8 -27 24 -22 36 7
17 14 -9 25 -20 25 -25z m7 -12 c15 5 16 4 7 -8 -6 -8 -10 -22 -9 -31 3 -19
-35 -22 -47 -3 -11 15 -10 27 2 20 6 -3 7 1 4 9 -3 9 -11 13 -17 9 -6 -3 -7
-1 -3 5 5 9 13 9 26 2 10 -5 27 -7 37 -3z m50 -33 c-3 -3 -12 -4 -19 -1 -8 3
-5 6 6 6 11 1 17 -2 13 -5z m-167 -24 c0 -5 -7 -10 -15 -10 -8 0 -15 5 -15 10
0 6 7 10 15 10 8 0 15 -4 15 -10z m1404 -142 c31 -5 58 -52 62 -107 4 -55 1
-59 -52 -42 -16 5 -41 12 -55 15 -24 5 -26 10 -26 53 0 27 -4 62 -8 80 -6 26
-4 32 12 35 10 3 25 -3 33 -13 8 -9 24 -19 34 -21z m-1961 -631 c7 4 6 -1 -2
-10 -16 -20 -36 -21 -76 -2 l-30 13 29 -1 c16 -1 31 4 34 11 3 9 8 8 19 -3 8
-8 20 -12 26 -8z m-568 -127 c3 -5 1 -10 -4 -10 -6 0 -11 5 -11 10 0 6 2 10 4
10 3 0 8 -4 11 -10z m60 -10 c3 -5 2 -10 -4 -10 -5 0 -13 5 -16 10 -3 6 -2 10
4 10 5 0 13 -4 16 -10z m143 -12 c13 -13 16 -38 5 -38 -5 0 -13 11 -20 25 -12
27 -5 33 15 13z m-171 -9 c9 -9 3 -20 -21 -45 -37 -38 -46 -41 -46 -18 0 8 5
12 10 9 6 -3 10 4 10 15 0 16 4 20 16 16 13 -5 15 -2 11 14 -6 22 3 26 20 9z
m83 -29 c0 -5 -5 -10 -11 -10 -5 0 -7 5 -4 10 3 6 8 10 11 10 2 0 4 -4 4 -10z
m30 0 c0 -5 -2 -10 -4 -10 -3 0 -8 5 -11 10 -3 6 -1 10 4 10 6 0 11 -4 11 -10z
m280 -115 c-7 -8 -18 -15 -25 -15 -8 0 -15 -5 -17 -11 -2 -7 -10 -10 -16 -8
-19 6 24 49 50 49 17 0 18 -2 8 -15z m935 -35 c3 -5 -1 -10 -10 -10 -9 0 -13
5 -10 10 3 6 8 10 10 10 2 0 7 -4 10 -10z m693 -409 c26 -29 27 -37 6 -59 -16
-15 -19 -14 -46 18 -20 24 -28 44 -26 65 3 45 10 51 27 25 9 -13 26 -35 39
-49z m117 -115 c20 -56 11 -74 -98 -195 -24 -26 -64 -44 -83 -37 -9 3 -13 22
-12 51 1 53 15 64 55 46 30 -14 53 0 53 30 0 11 3 19 8 19 4 0 7 23 7 51 0 39
5 54 20 65 26 20 35 14 50 -30z m-2015 -292 c0 -8 -4 -12 -10 -9 -5 3 -10 10
-10 16 0 5 5 9 10 9 6 0 10 -7 10 -16z m708 -596 c-10 -7 -10 -11 5 -22 23
-17 22 -32 -2 -32 -11 0 -18 3 -16 7 3 3 -5 16 -16 28 -17 18 -23 19 -42 9
-19 -10 -20 -9 -9 4 7 9 29 15 53 15 27 0 36 -3 27 -9z m52 -14 c0 -2 -7 -4
-15 -4 -8 0 -15 4 -15 10 0 5 7 7 15 4 8 -4 15 -8 15 -10z m50 -41 c0 -12 -4
-24 -9 -27 -4 -3 -6 6 -3 21 3 18 1 24 -7 19 -7 -5 -11 2 -11 20 0 27 1 27 15
8 8 -10 15 -29 15 -41z m58 25 c-5 -13 -38 -20 -38 -8 0 5 8 11 18 13 9 3 19
5 20 6 2 0 2 -4 0 -11z m-258 -4 c0 -8 -19 -13 -24 -6 -3 5 1 9 9 9 8 0 15 -2
15 -3z m275 -24 c3 -5 1 -10 -4 -10 -6 0 -11 5 -11 10 0 6 2 10 4 10 3 0 8 -4
11 -10z m-261 -16 c5 -14 4 -15 -9 -4 -17 14 -19 20 -6 20 5 0 12 -7 15 -16z
m293 -36 c2 -46 0 -50 -14 -35 -10 10 -13 22 -8 34 5 10 9 23 10 28 4 23 5 25
8 25 1 0 3 -23 4 -52z m-797 32 c0 -5 -4 -10 -10 -10 -5 0 -10 5 -10 10 0 6 5
10 10 10 6 0 10 -4 10 -10z m485 -10 c3 -6 -1 -7 -9 -4 -18 7 -21 14 -7 14 6
0 13 -4 16 -10z m-89 -9 c-3 -5 6 -17 22 -28 26 -17 40 -53 21 -53 -5 0 -9 5
-9 11 0 5 -4 7 -10 4 -5 -3 -10 1 -10 10 0 10 5 13 12 9 7 -4 8 -3 4 5 -4 6
-11 9 -16 6 -5 -3 -14 3 -19 14 -14 25 -14 31 0 31 5 0 8 -4 5 -9z m434 -53
c0 -7 -5 -20 -10 -28 -8 -12 -10 -9 -10 13 0 15 5 27 10 27 6 0 10 -6 10 -12z
m-450 -13 c11 -13 10 -14 -4 -9 -9 3 -16 10 -16 15 0 13 6 11 20 -6z m345 -18
c6 -1 9 -9 7 -17 -2 -8 -3 -52 -3 -98 0 -45 -4 -80 -8 -77 -14 8 -19 58 -12
113 6 41 5 52 -5 48 -9 -3 -11 1 -8 12 5 14 3 14 -10 -2 -9 -11 -19 -16 -23
-12 -4 4 -3 10 3 14 6 4 17 18 24 32 12 22 14 23 19 7 4 -10 11 -19 16 -20z
m59 7 c17 -17 22 -69 6 -59 -6 3 -10 -4 -10 -17 0 -18 -2 -20 -10 -8 -5 8 -10
10 -10 5 0 -6 5 -16 12 -23 9 -9 9 -15 0 -24 -20 -20 -31 4 -25 55 4 34 9 45
15 35 6 -8 7 -2 3 20 -7 36 -4 39 19 16z m-451 -65 c-5 -18 -18 -18 -18 -1 0
4 -4 12 -8 19 -5 7 -1 10 12 6 13 -3 17 -11 14 -24z m287 -19 c0 -5 -4 -10
-10 -10 -5 0 -10 5 -10 10 0 6 5 10 10 10 6 0 10 -4 10 -10z m25 -58 c-3 -3
-11 0 -18 7 -9 10 -8 11 6 5 10 -3 15 -9 12 -12z m17 -57 c0 -20 -2 -39 -5
-41 -3 -3 -5 15 -5 41 0 26 2 44 5 42 3 -3 5 -22 5 -42z m-26 -147 c5 -7 3 -8
-6 -3 -9 5 -10 1 -6 -16 6 -20 5 -21 -4 -6 -6 9 -8 22 -5 27 8 13 12 13 21 -2z
m-171 -65 l-6 -28 14 30 c9 21 15 25 19 15 7 -20 -9 -63 -22 -55 -5 3 -10 1
-10 -4 0 -6 -10 -11 -22 -11 -21 1 -21 2 -5 11 9 5 17 20 17 33 0 20 7 36 17
36 2 0 1 -12 -2 -27z m163 -13 c-2 -6 -8 -6 -18 0 -13 9 -13 11 0 20 15 10 25
0 18 -20z m142 12 c0 -4 -9 -13 -20 -20 -24 -15 -26 -9 -4 12 17 18 24 20 24
8z m-230 -62 c0 -5 -7 -10 -16 -10 -8 0 -12 5 -9 10 3 6 10 10 16 10 5 0 9 -4
9 -10z m207 -12 c-3 -8 -6 -5 -6 6 -1 11 2 17 5 13 3 -3 4 -12 1 -19z m-297
-25 c0 -5 -5 -15 -10 -23 -8 -12 -10 -11 -10 8 0 12 5 22 10 22 6 0 10 -3 10
-7z m-1480 -23 c0 -11 -7 -20 -15 -20 -18 0 -19 6 -2 25 16 19 17 18 17 -5z
m438 -31 c16 -6 22 -13 16 -17 -6 -4 -14 -16 -18 -27 -3 -12 -15 -21 -27 -21
-16 0 -19 5 -14 21 4 11 7 34 6 50 0 17 3 24 6 17 3 -7 17 -18 31 -23z m98 16
c-3 -8 0 -15 6 -15 6 0 5 -6 -3 -16 -8 -10 -19 -29 -26 -43 -11 -24 -11 -22
-12 26 -1 41 3 52 17 56 9 3 19 5 21 6 2 0 1 -6 -3 -14z m-302 -8 c19 4 19 3
4 -9 -9 -7 -24 -18 -34 -24 -16 -9 -15 -12 14 -25 44 -19 40 -29 -13 -29 -44
0 -45 1 -45 31 0 44 17 72 37 61 9 -5 25 -7 37 -5z m116 -6 c0 -5 -7 -11 -14
-14 -10 -4 -13 -1 -9 9 6 15 23 19 23 5z m-6 -45 c-3 -8 -12 -12 -20 -9 -17 6
-9 23 11 23 8 0 12 -6 9 -14z m-222 -48 c-6 -6 -15 -8 -19 -4 -4 4 -1 11 7 16
19 12 27 3 12 -12z m35 -210 c-3 -7 -5 -2 -5 12 0 14 2 19 5 13 2 -7 2 -19 0
-25z m853 -285 c0 -5 -5 -15 -11 -23 -9 -13 -10 -13 -6 2 3 9 1 19 -6 22 -7 2
-4 5 6 5 9 1 17 -2 17 -6z m30 -104 c0 -6 -7 -17 -15 -25 -8 -9 -15 -11 -15
-5 0 5 5 13 10 16 6 4 8 11 5 16 -4 5 -1 9 4 9 6 0 11 -5 11 -11z m-186 -121
c-3 -4 -9 -8 -15 -8 -5 0 -9 4 -9 8 0 5 7 9 15 9 8 0 12 -4 9 -9z m-4 -48 c0
-5 -5 -10 -11 -10 -5 0 -7 5 -4 10 3 6 8 10 11 10 2 0 4 -4 4 -10z m2120 -159
c0 -12 -20 -25 -27 -18 -7 7 6 27 18 27 5 0 9 -4 9 -9z m95 -461 c3 -5 1 -10
-4 -10 -6 0 -11 5 -11 10 0 6 2 10 4 10 3 0 8 -4 11 -10z m-357 -589 c-7 -9
-13 -17 -14 -19 -1 -2 -1 8 0 21 0 15 6 23 14 20 10 -4 10 -9 0 -22z m-820
-192 c-2 -6 -8 -10 -13 -10 -5 0 -11 4 -13 10 -2 6 4 11 13 11 9 0 15 -5 13
-11z m652 -79 c0 -24 -4 -30 -22 -30 -13 0 -18 4 -13 8 6 4 10 17 9 30 -1 13
4 22 12 22 9 0 14 -11 14 -30z m-610 -109 c0 -21 -13 -41 -26 -41 -17 0 -18
16 -1 35 14 16 27 19 27 6z"/>
<path d="M5905 7359 c-4 -6 -4 -13 -1 -16 3 -4 6 -1 6 5 0 6 7 9 15 6 8 -4 15
-1 15 5 0 14 -27 14 -35 0z"/>
<path d="M5890 7289 c0 -8 7 -24 15 -35 11 -14 14 -15 14 -4 0 8 -6 24 -14 34
-11 15 -15 16 -15 5z"/>
<path d="M5951 7284 c0 -11 3 -14 6 -6 3 7 2 16 -1 19 -3 4 -6 -2 -5 -13z"/>
<path d="M6030 7240 c0 -5 5 -10 10 -10 6 0 10 5 10 10 0 6 -4 10 -10 10 -5 0
-10 -4 -10 -10z"/>
<path d="M6050 7205 c0 -8 5 -15 11 -15 5 0 8 4 5 9 -4 5 0 12 6 14 8 3 6 6
-4 6 -10 1 -18 -6 -18 -14z"/>
<path d="M5971 7164 c0 -11 3 -14 6 -6 3 7 2 16 -1 19 -3 4 -6 -2 -5 -13z"/>
<path d="M5800 7150 c-13 -9 -13 -11 0 -20 8 -5 20 -10 25 -10 6 0 3 5 -5 10
-13 9 -13 11 0 20 8 5 11 10 5 10 -5 0 -17 -5 -25 -10z"/>
<path d="M5900 7150 c0 -5 5 -10 11 -10 5 0 8 -4 4 -9 -3 -5 -1 -12 5 -16 11
-7 13 5 4 29 -7 18 -24 22 -24 6z"/>
<path d="M5648 7113 c7 -3 16 -2 19 1 4 3 -2 6 -13 5 -11 0 -14 -3 -6 -6z"/>
<path d="M5822 7082 c13 -16 25 -25 27 -20 3 9 -32 48 -44 48 -4 0 4 -13 17
-28z"/>
<path d="M5911 7084 c0 -11 3 -14 6 -6 3 7 2 16 -1 19 -3 4 -6 -2 -5 -13z"/>
<path d="M5750 7082 c0 -12 19 -26 26 -19 2 2 -2 10 -11 17 -9 8 -15 8 -15 2z"/>
<path d="M5860 7075 c0 -5 5 -17 10 -25 5 -8 10 -10 10 -5 0 6 -5 17 -10 25
-5 8 -10 11 -10 5z"/>
<path d="M5694 7031 c0 -11 4 -17 8 -15 4 3 8 12 8 20 0 8 -4 14 -8 14 -4 0
-8 -9 -8 -19z"/>
<path d="M5940 7030 c0 -5 5 -10 10 -10 6 0 10 5 10 10 0 6 -4 10 -10 10 -5 0
-10 -4 -10 -10z"/>
<path d="M5726 6996 c3 -9 13 -16 22 -16 8 0 13 1 11 3 -2 1 -12 9 -22 16 -15
12 -17 12 -11 -3z"/>
<path d="M4746 6058 c-16 -18 -20 -19 -30 -7 -14 17 -56 24 -56 9 0 -6 -3 -9
-8 -6 -12 7 -38 -17 -44 -42 -8 -30 13 -24 29 9 11 21 18 19 14 -3 0 -4 6 -5
15 -1 13 5 13 7 2 14 -9 6 -10 11 -2 19 8 8 16 7 28 -6 16 -16 16 -18 -8 -34
-15 -9 -23 -20 -19 -23 3 -4 0 -7 -7 -7 -7 0 -10 -3 -7 -7 4 -3 18 6 32 21 24
26 26 26 54 11 39 -20 39 -20 38 13 0 15 -2 21 -4 15 -3 -7 -8 -13 -13 -13
-10 0 -8 20 4 38 14 23 1 23 -18 0z"/>
<path d="M5695 6000 c-3 -5 1 -10 10 -10 9 0 13 5 10 10 -3 6 -8 10 -10 10 -2
0 -7 -4 -10 -10z"/>
<path d="M5885 5980 c10 -11 20 -18 23 -16 5 6 -23 36 -34 36 -4 0 1 -9 11
-20z"/>
<path d="M4590 5449 c0 -5 5 -7 10 -4 6 3 10 8 10 11 0 2 -4 4 -10 4 -5 0 -10
-5 -10 -11z"/>
<path d="M5736 5204 c-3 -9 -6 -25 -6 -36 0 -10 -7 -26 -15 -34 -8 -9 -15 -12
-15 -7 0 5 -9 9 -20 10 -14 1 -19 -4 -17 -20 1 -14 -3 -21 -11 -19 -8 1 -11
-2 -7 -8 3 -5 1 -10 -5 -10 -6 0 -9 -4 -6 -9 3 -5 0 -11 -7 -14 -8 -3 -13 -16
-12 -29 1 -12 -5 -29 -14 -36 -11 -9 -12 -15 -5 -18 7 -3 10 -14 7 -24 -3 -11
-1 -20 5 -20 6 0 13 -8 16 -17 3 -10 4 -1 3 19 -2 20 1 34 5 32 4 -3 8 7 9 23
1 26 2 26 10 -7 5 -19 11 -47 12 -62 5 -46 14 -41 15 10 3 81 13 157 23 167 6
5 9 3 9 -8 0 -9 4 -17 9 -17 4 0 6 -12 3 -26 -3 -18 -1 -25 6 -20 7 4 18 -6
27 -26 8 -18 12 -23 9 -10 -3 13 1 28 11 39 9 9 14 24 12 34 -3 11 -2 21 3 24
4 3 10 -5 13 -17 4 -12 1 -25 -5 -29 -6 -4 -8 -14 -5 -23 4 -9 2 -16 -3 -16
-6 0 -10 -12 -10 -27 0 -32 11 -23 26 20 l11 32 12 -35 11 -35 -7 40 c-3 22
-7 62 -9 89 -3 50 -14 77 -14 35 l-1 -24 -13 24 c-9 16 -15 20 -18 11 -7 -22
-30 0 -24 23 3 12 0 27 -6 34 -7 9 -7 13 1 13 6 0 11 5 11 10 0 16 -17 12 -24
-6z m4 -100 c0 -8 -5 -12 -10 -9 -6 4 -8 11 -5 16 9 14 15 11 15 -7z m-102
-79 c-3 -3 -9 2 -12 12 -6 14 -5 15 5 6 7 -7 10 -15 7 -18z m30 0 c-3 -3 -9 2
-12 12 -6 14 -5 15 5 6 7 -7 10 -15 7 -18z"/>
<path d="M5851 5104 c0 -11 3 -14 6 -6 3 7 2 16 -1 19 -3 4 -6 -2 -5 -13z"/>
<path d="M5895 5100 c-3 -5 -1 -10 4 -10 6 0 11 5 11 10 0 6 -2 10 -4 10 -3 0
-8 -4 -11 -10z"/>
<path d="M5831 5084 c0 -11 3 -14 6 -6 3 7 2 16 -1 19 -3 4 -6 -2 -5 -13z"/>
<path d="M5854 5045 c-18 -13 -18 -14 6 -9 14 2 19 2 13 -2 -15 -7 -17 -62 -4
-83 9 -15 12 -8 25 60 2 8 -2 23 -9 32 -10 14 -14 15 -31 2z"/>
<path d="M5701 5018 c0 -9 -4 -25 -7 -35 -5 -14 -4 -15 5 -7 7 7 11 22 8 35
-2 13 -5 16 -6 7z"/>
<path d="M5641 4894 c0 -17 -3 -44 -5 -60 -2 -16 -1 -22 1 -14 3 8 9 17 13 20
4 3 4 23 0 45 -7 37 -8 38 -9 9z"/>
<path d="M5776 4895 c4 -8 8 -15 10 -15 2 0 4 7 4 15 0 8 -4 15 -10 15 -5 0
-7 -7 -4 -15z"/>
<path d="M5520 4781 c0 -11 5 -23 10 -26 6 -3 10 3 10 14 0 11 -4 23 -10 26
-5 3 -10 -3 -10 -14z"/>
<path d="M4763 4773 c9 -2 17 -8 17 -13 0 -4 8 -11 17 -14 15 -6 15 -4 -2 14
-10 11 -25 19 -34 19 -13 -1 -13 -2 2 -6z"/>
<path d="M5250 4700 c-9 -6 -10 -10 -3 -10 6 0 15 5 18 10 8 12 4 12 -15 0z"/>
<path d="M5706 4574 c-3 -9 -13 -14 -21 -11 -9 4 -12 1 -9 -9 16 -51 14 -50
34 -24 20 26 26 60 11 60 -5 0 -12 -7 -15 -16z"/>
<path d="M5612 4510 c-8 -16 -10 -39 -7 -51 5 -15 4 -19 -4 -15 -7 5 -11 -4
-11 -23 0 -17 5 -31 10 -31 6 0 10 9 10 20 0 11 7 23 15 26 16 6 21 44 7 44
-5 0 -7 14 -4 30 5 38 0 38 -16 0z"/>
<path d="M5640 4493 c0 -5 5 -15 10 -23 8 -12 10 -11 10 8 0 12 -4 22 -10 22
-5 0 -10 -3 -10 -7z"/>
<path d="M5678 4427 c-3 -19 -2 -25 4 -19 6 6 8 18 6 28 -3 14 -5 12 -10 -9z"/>
<path d="M4840 4411 c0 -6 5 -11 11 -11 5 0 7 -4 4 -10 -3 -5 -1 -10 4 -10 16
0 13 16 -4 30 -10 9 -15 9 -15 1z"/>
<path d="M4910 4415 c0 -5 5 -17 10 -25 5 -8 10 -10 10 -5 0 6 -5 17 -10 25
-5 8 -10 11 -10 5z"/>
<path d="M4978 4403 c6 -2 10 -9 7 -14 -4 -5 1 -6 10 -2 13 5 14 7 3 14 -7 5
-17 8 -23 8 -5 0 -4 -3 3 -6z"/>
<path d="M5650 4244 c0 -8 5 -12 10 -9 6 3 10 10 10 16 0 5 -4 9 -10 9 -5 0
-10 -7 -10 -16z"/>
<path d="M5531 4194 c0 -11 3 -14 6 -6 3 7 2 16 -1 19 -3 4 -6 -2 -5 -13z"/>
<path d="M5580 4195 c0 -6 7 -12 15 -12 8 0 15 6 15 12 0 6 -7 12 -15 12 -8 0
-15 -6 -15 -12z"/>
<path d="M5511 4174 c0 -11 3 -14 6 -6 3 7 2 16 -1 19 -3 4 -6 -2 -5 -13z"/>
<path d="M5480 4157 c0 -15 29 -57 30 -42 0 6 -3 20 -6 33 -7 24 -24 31 -24 9z"/>
<path d="M5635 4130 c3 -5 8 -10 11 -10 2 0 4 5 4 10 0 6 -5 10 -11 10 -5 0
-7 -4 -4 -10z"/>
<path d="M5516 4093 c-6 -14 -5 -15 5 -6 7 7 10 15 7 18 -3 3 -9 -2 -12 -12z"/>
<path d="M5520 3894 c0 -8 5 -12 10 -9 6 4 8 11 5 16 -9 14 -15 11 -15 -7z"/>
<path d="M5823 10733 c-20 -7 -17 -137 3 -157 8 -9 19 -16 23 -16 5 0 23 27
40 60 26 48 30 63 21 80 -17 32 -55 47 -87 33z"/>
<path d="M1926 9555 c-3 -8 -1 -15 4 -15 6 0 10 7 10 15 0 8 -2 15 -4 15 -2 0
-6 -7 -10 -15z"/>
<path d="M3200 8991 c0 -9 30 -24 36 -18 2 1 -6 8 -16 15 -11 7 -20 8 -20 3z"/>
<path d="M3877 8869 c7 -7 15 -10 18 -7 3 3 -2 9 -12 12 -14 6 -15 5 -6 -5z"/>
<path d="M3926 8846 c10 -8 21 -12 24 -10 5 6 -21 24 -34 24 -6 0 -1 -6 10
-14z"/>
<path d="M4938 8603 c7 -3 16 -2 19 1 4 3 -2 6 -13 5 -11 0 -14 -3 -6 -6z"/>
<path d="M5455 8080 c-3 -5 -2 -10 4 -10 5 0 13 5 16 10 3 6 2 10 -4 10 -5 0
-13 -4 -16 -10z"/>
<path d="M5264 7965 c11 -8 22 -12 25 -9 6 6 -19 24 -34 24 -5 -1 -1 -7 9 -15z"/>
<path d="M5350 7860 c-12 -8 -10 -10 8 -10 13 0 20 4 17 10 -7 12 -6 12 -25 0z"/>
<path d="M7430 7669 c25 -24 60 -59 78 -78 17 -19 32 -29 32 -23 0 14 -74 87
-121 121 -28 20 -26 17 11 -20z"/>
<path d="M5380 7692 c0 -7 -10 -17 -22 -23 -20 -8 -19 -9 7 -3 37 7 42 11 27
26 -9 9 -12 9 -12 0z"/>
<path d="M5436 7639 l-29 -17 34 2 c47 4 49 5 49 15 0 18 -26 18 -54 0z"/>
<path d="M5380 7640 c0 -5 5 -10 10 -10 6 0 10 5 10 10 0 6 -4 10 -10 10 -5 0
-10 -4 -10 -10z"/>
<path d="M5520 7639 c0 -5 5 -7 10 -4 6 3 10 8 10 11 0 2 -4 4 -10 4 -5 0 -10
-5 -10 -11z"/>
<path d="M7520 7630 c0 -5 5 -10 11 -10 5 0 7 5 4 10 -3 6 -8 10 -11 10 -2 0
-4 -4 -4 -10z"/>
<path d="M5656 7604 c-4 -9 -4 -19 -1 -22 3 -3 5 0 5 6 0 7 7 12 15 12 8 0 15
5 15 10 0 16 -27 11 -34 -6z"/>
<path d="M7540 7600 c0 -8 5 -22 10 -30 9 -13 10 -13 10 0 0 8 -5 22 -10 30
-9 13 -10 13 -10 0z"/>
<path d="M6996 7558 c4 -7 14 -21 22 -30 8 -10 12 -24 8 -33 -3 -9 -2 -13 3
-10 6 3 14 -3 20 -12 5 -10 13 -15 17 -10 4 4 0 15 -9 25 -10 10 -14 21 -11
25 3 3 -5 17 -19 31 -28 28 -43 34 -31 14z"/>
<path d="M7575 7527 c0 -12 9 -34 19 -49 10 -15 15 -32 12 -37 -4 -5 -2 -12 4
-16 20 -13 77 -145 86 -200 10 -71 26 -131 35 -140 8 -7 9 4 5 40 -12 87 -46
194 -92 288 -24 50 -44 96 -44 103 0 6 -6 16 -13 22 -10 9 -13 6 -12 -11z"/>
<path d="M6974 7506 c11 -9 14 -16 8 -16 -16 0 -15 -17 1 -23 22 -8 13 34 -9
45 -19 9 -19 9 0 -6z"/>
<path d="M5430 7440 c-13 -8 -12 -10 3 -10 9 0 17 5 17 10 0 12 -1 12 -20 0z"/>
<path d="M7025 7425 c39 -32 55 -32 25 0 -13 14 -31 25 -39 25 -11 0 -6 -8 14
-25z"/>
<path d="M5276 7431 c-3 -5 3 -11 15 -14 16 -4 18 -3 8 9 -13 16 -16 17 -23 5z"/>
<path d="M7410 7416 c0 -2 8 -10 18 -17 15 -13 16 -12 3 4 -13 16 -21 21 -21
13z"/>
<path d="M5380 7370 c0 -5 5 -10 11 -10 5 0 7 5 4 10 -3 6 -8 10 -11 10 -2 0
-4 -4 -4 -10z"/>
<path d="M7303 7334 c3 -11 13 -50 22 -89 9 -38 20 -77 23 -85 3 -8 4 -21 3
-29 -1 -7 2 -10 8 -6 7 4 11 -5 11 -22 0 -16 4 -33 10 -39 5 -5 23 -63 40
-129 23 -92 29 -106 23 -60 -4 33 -8 85 -9 115 -2 50 -45 187 -63 200 -12 8
-51 107 -51 129 0 11 -5 23 -11 27 -7 4 -9 0 -6 -12z"/>
<path d="M5460 7245 c-15 -18 -10 -25 19 -28 11 -1 21 -5 21 -10 0 -5 -12 -6
-27 -2 -26 6 -27 5 -11 -11 14 -14 20 -15 32 -5 8 7 20 10 26 6 21 -13 9 18
-16 41 -30 28 -28 28 -44 9z"/>
<path d="M7452 7018 c-7 -7 -12 -17 -12 -22 0 -6 5 -4 10 4 8 12 10 11 10 -7
0 -12 4 -24 8 -27 9 -5 9 50 0 59 -2 3 -10 -1 -16 -7z"/>
<path d="M7743 6945 c0 -44 2 -61 4 -37 2 23 2 59 0 80 -2 20 -4 1 -4 -43z"/>
<path d="M4450 6970 c0 -5 7 -10 15 -10 8 0 15 5 15 10 0 6 -7 10 -15 10 -8 0
-15 -4 -15 -10z"/>
<path d="M3006 6951 c-3 -5 -62 -8 -131 -7 -68 1 -130 -1 -136 -5 -6 -3 -23
-2 -38 3 -19 8 -50 6 -111 -7 -47 -9 -96 -18 -108 -20 -13 -2 -27 -7 -30 -11
-4 -4 1 -4 11 -1 12 5 16 3 11 -4 -4 -7 -22 -9 -44 -6 -27 3 -37 1 -37 -9 0
-8 5 -14 11 -14 18 0 -9 -21 -60 -46 -27 -13 -41 -22 -31 -20 29 9 19 -3 -22
-24 -41 -20 -70 -49 -37 -37 9 4 15 3 11 -2 -3 -5 -2 -11 2 -14 5 -2 1 -2 -7
1 -8 2 -26 6 -40 9 l-25 4 23 -14 23 -13 -25 -14 c-14 -7 -23 -16 -21 -20 3
-5 -12 -14 -32 -23 -35 -13 -32 -14 68 -10 57 2 130 8 162 14 42 7 62 7 72 -1
16 -14 11 -51 -10 -66 -8 -6 -15 -16 -15 -23 0 -6 -4 -11 -10 -11 -5 0 -10 -7
-10 -15 0 -8 -12 -18 -27 -21 -33 -9 -53 -27 -53 -48 0 -9 -11 -18 -24 -22
-29 -7 -44 -38 -41 -84 2 -19 -1 -38 -7 -41 -14 -9 9 -49 28 -49 10 0 14 -6
11 -14 -3 -8 5 -24 18 -36 13 -12 21 -28 19 -35 -3 -8 6 -17 23 -24 26 -9 25
-10 -11 -4 -28 4 -37 3 -32 -6 4 -6 27 -11 52 -11 27 0 52 -6 60 -15 17 -17
49 -21 39 -5 -3 6 2 10 11 10 16 0 16 -1 -1 -20 -16 -17 -16 -20 -2 -20 9 0
19 5 22 10 3 6 15 10 26 10 11 0 18 -4 14 -9 -3 -6 4 -15 15 -21 13 -7 19 -18
16 -26 -3 -8 -1 -14 5 -14 6 0 7 -4 4 -10 -8 -13 -3 -13 36 5 19 8 26 14 17
15 -10 0 -18 5 -18 11 0 11 12 10 55 -6 11 -4 5 2 -13 14 -18 12 -44 21 -57
21 -14 0 -25 5 -25 11 0 6 9 9 20 6 35 -9 22 3 -27 25 l-47 21 23 18 c34 27
48 22 42 -14 -1 -5 3 -6 8 -3 5 3 11 -3 14 -14 3 -12 14 -20 26 -20 26 0 26
10 1 43 -21 26 -25 38 -12 36 22 -4 34 3 28 16 -3 8 0 15 7 15 7 0 18 10 25
21 10 16 17 18 25 10 15 -15 27 -14 27 4 0 8 5 15 11 15 6 0 9 -7 5 -15 -3 -8
-2 -15 3 -15 4 0 13 -19 20 -42 17 -57 67 -122 116 -150 33 -18 53 -22 118
-21 78 1 79 2 113 40 37 41 89 122 89 138 0 18 37 17 55 -3 26 -28 28 -55 5
-74 -12 -11 -15 -17 -7 -18 18 0 5 -19 -22 -31 -20 -8 -20 -9 -1 -8 35 2 39
-1 22 -13 -12 -9 -14 -17 -7 -28 7 -12 12 -12 22 -2 6 6 22 12 34 12 12 0 27
7 34 15 8 9 29 15 56 15 56 0 106 38 86 67 -7 10 -15 26 -18 36 -4 9 -10 17
-15 17 -5 0 -6 7 -2 16 4 10 14 14 29 11 14 -2 25 2 28 10 4 9 17 12 41 9 21
-3 35 0 35 6 0 6 3 8 7 5 7 -8 33 11 33 24 0 5 -8 9 -17 9 -15 0 -16 2 -3 10
12 8 13 12 2 19 -11 7 -11 9 2 14 17 7 13 46 -6 59 -7 4 -8 8 -3 8 15 0 17 63
2 72 -8 5 -9 8 0 8 11 0 10 14 -2 99 -4 25 0 37 13 47 10 8 12 13 5 14 -8 0
-13 13 -13 31 0 17 -4 28 -10 24 -5 -3 -10 2 -10 12 0 23 -46 74 -84 93 -15 8
-32 25 -37 38 -6 15 -15 22 -23 19 -8 -3 -17 1 -20 9 -3 9 -10 13 -16 9 -5 -3
-20 0 -32 7 -13 7 -30 13 -38 14 -8 1 -35 4 -60 8 -25 3 -78 9 -117 12 -40 4
-73 10 -73 14 0 5 -9 6 -19 3 -10 -3 -28 0 -39 6 -12 6 -23 7 -26 2z m-629
-265 c0 -8 -6 -12 -15 -9 -11 5 -11 7 0 14 7 5 13 9 14 9 0 0 1 -6 1 -14z
m-58 -10 c-2 -2 -22 -7 -44 -10 l-40 -6 40 13 c36 12 55 13 44 3z m605 -158
c-3 -13 -11 -29 -16 -35 -14 -18 -38 -16 -38 2 0 8 -7 15 -16 15 -13 0 -13 2
-2 14 14 13 38 22 66 25 9 1 11 -6 6 -21z m-124 -39 c0 -18 -2 -19 -15 -9 -17
14 -20 1 -5 -18 5 -7 3 -6 -5 1 -18 15 -10 47 11 47 8 0 14 -10 14 -21z m-89
-41 c11 -21 11 -22 -4 -9 -10 7 -17 17 -17 22 0 15 9 10 21 -13z m45 0 c3 -4
-1 -5 -10 -4 -8 1 -18 5 -22 8 -3 4 1 5 10 4 8 -1 18 -5 22 -8z m-96 -13 c0
-8 -7 -15 -16 -15 -14 0 -14 3 -4 15 7 8 14 15 16 15 2 0 4 -7 4 -15z m-30
-47 c0 -13 -23 -5 -28 10 -2 7 2 10 12 6 9 -3 16 -11 16 -16z m-55 -38 c3 -5
1 -10 -4 -10 -6 0 -11 5 -11 10 0 6 2 10 4 10 3 0 8 -4 11 -10z m415 -42 c0
-21 -19 -23 -75 -6 l-40 12 40 6 c65 8 75 7 75 -12z m415 -128 c10 16 33 12
55 -10 21 -21 20 -24 -30 -38 -19 -5 -42 -13 -50 -16 -12 -5 -15 1 -14 26 1
49 3 52 18 39 10 -8 16 -9 21 -1z"/>
<path d="M7720 6815 c0 -8 5 -15 10 -15 6 0 10 7 10 15 0 8 -4 15 -10 15 -5 0
-10 -7 -10 -15z"/>
<path d="M7702 6780 c0 -19 2 -27 5 -17 2 9 2 25 0 35 -3 9 -5 1 -5 -18z"/>
<path d="M7452 6740 c-1 -30 3 -73 7 -95 8 -37 9 -35 9 25 0 36 -4 79 -8 95
-6 25 -8 21 -8 -25z"/>
<path d="M7460 6576 c0 -14 4 -26 8 -26 11 0 12 39 1 45 -5 4 -9 -5 -9 -19z"/>
<path d="M1477 6098 c-14 -46 -28 -110 -32 -143 -5 -33 -10 -71 -12 -85 -2
-14 -5 -74 -7 -135 -2 -60 -9 -190 -15 -288 -7 -98 -9 -182 -5 -188 12 -20 4
-348 -12 -466 -8 -65 -15 -149 -14 -188 1 -120 -9 -315 -25 -450 -24 -205 -46
-384 -56 -455 -5 -36 -11 -96 -15 -135 -3 -38 -12 -90 -20 -115 -7 -25 -20
-74 -28 -110 -47 -205 -136 -469 -214 -631 -46 -97 -69 -133 -106 -167 -25
-24 -51 -40 -56 -37 -13 8 -13 75 0 75 6 0 10 9 10 21 0 29 -14 16 -44 -41
-29 -56 -34 -115 -11 -124 24 -9 19 -86 -12 -158 -46 -110 -164 -250 -217
-259 -19 -4 -110 -129 -195 -269 -22 -36 -65 -92 -95 -125 -31 -32 -56 -62
-56 -65 0 -3 -8 -13 -18 -21 -11 -9 -33 -40 -50 -70 -17 -30 -63 -86 -101
-126 l-71 -71 0 -636 0 -636 1015 0 1014 0 16 31 c9 17 14 36 12 42 -2 7 8 24
22 38 14 15 48 52 75 83 27 31 55 56 62 56 7 0 15 8 18 18 9 27 82 62 130 62
28 0 52 8 73 23 17 12 44 22 60 22 24 -1 28 -6 31 -36 1 -19 7 -58 13 -87 17
-85 29 -69 80 108 7 25 16 47 20 50 4 3 9 30 12 60 17 154 19 165 40 183 17
15 20 28 19 77 -1 42 3 63 14 75 9 9 14 18 11 21 -2 3 2 26 10 52 13 39 23
127 24 205 0 9 4 17 10 17 5 0 9 8 9 18 0 10 5 23 12 30 9 9 9 12 -1 12 -9 0
-11 6 -6 17 8 21 31 159 41 248 3 33 13 92 20 130 8 39 17 84 19 100 2 17 9
64 16 105 6 41 13 221 15 400 4 341 6 312 -52 795 -14 122 -55 389 -73 481 -4
23 -6 55 -4 71 4 24 -8 48 -61 124 -234 337 -304 449 -362 576 -82 179 -130
334 -169 553 -41 228 -66 344 -76 356 -5 6 -29 14 -54 17 -63 9 -179 87 -216
145 -16 25 -34 61 -40 81 -6 20 -22 61 -35 93 -13 31 -28 78 -34 105 -6 26
-31 89 -56 138 -34 69 -51 119 -70 213 -26 129 -71 263 -90 269 -7 2 -22 -32
-37 -79z m-464 -3705 c-5 -43 -49 -117 -63 -108 -24 15 -7 79 33 123 29 31 36
28 30 -15z m-223 -350 c-1 -18 -38 -55 -49 -49 -15 10 -14 22 5 40 16 16 44
22 44 9z m640 -1601 c0 -28 -98 -113 -129 -111 -11 0 -9 4 7 11 12 6 25 22 28
35 4 12 9 23 14 23 4 0 20 11 36 25 30 25 44 31 44 17z"/>
<path d="M2629 6039 c-19 -10 -42 -26 -50 -36 -12 -16 -12 -17 1 -7 22 17 59
23 66 12 3 -5 -2 -18 -12 -29 -10 -11 -12 -19 -6 -19 7 0 12 3 12 8 0 4 9 13
21 20 12 8 18 9 15 3 -4 -5 -2 -12 4 -16 6 -4 8 -11 5 -16 -3 -5 1 -6 9 -3 11
4 16 0 16 -11 0 -9 5 -13 10 -10 6 3 10 2 10 -3 0 -5 7 -9 15 -9 8 0 12 3 10
6 -2 4 14 6 35 6 21 0 36 -2 32 -5 -16 -12 -10 -30 11 -31 23 -1 85 2 102 4 8
2 10 -3 14 -35 1 -10 3 -10 10 0 4 8 19 12 32 10 l24 -5 -25 -11 c-40 -18 0
-13 65 7 101 32 245 98 245 113 0 5 6 8 14 8 8 0 16 7 20 15 3 10 -1 15 -13
15 -11 0 -22 6 -25 13 -3 6 -4 3 -3 -8 2 -18 -4 -20 -53 -19 -41 0 -55 4 -54
15 1 8 -8 14 -23 14 -27 0 -30 -10 -7 -19 22 -9 13 -16 -24 -21 -23 -3 -32 1
-35 13 -4 14 -6 14 -12 -4 -5 -16 -12 -20 -27 -16 -14 3 -19 1 -14 -6 5 -8 0
-12 -13 -12 -10 0 -21 6 -24 13 -3 9 -7 9 -20 -2 -14 -11 -17 -11 -17 0 0 10
-3 11 -8 3 -4 -7 -21 -11 -39 -11 -24 1 -29 5 -21 14 13 16 -4 17 -20 1 -9 -9
-12 -9 -12 2 0 7 -3 10 -7 7 -3 -4 -12 -2 -19 4 -8 6 -20 9 -29 6 -8 -4 -20 0
-27 7 -13 12 -58 29 -103 38 -11 2 -36 -4 -56 -13z m61 -13 c0 -2 -7 -7 -16
-10 -8 -3 -12 -2 -9 4 6 10 25 14 25 6z m347 -72 c-3 -3 -12 -4 -19 -1 -8 3
-5 6 6 6 11 1 17 -2 13 -5z m-27 -60 c0 -2 -11 -4 -25 -4 -14 0 -25 4 -25 9 0
4 11 6 25 3 14 -2 25 -6 25 -8z"/>
<path d="M3210 6035 c7 -9 15 -13 17 -11 7 7 -7 26 -19 26 -6 0 -6 -6 2 -15z"/>
<path d="M3580 4716 c0 -4 7 -14 15 -22 8 -9 15 -12 15 -8 0 4 8 -2 18 -13 18
-20 43 -34 127 -72 28 -12 63 -29 79 -37 46 -23 43 -8 -10 46 -76 78 -111 99
-182 106 -34 4 -62 4 -62 0z"/>
<path d="M3644 3836 c-18 -14 -18 -15 9 -25 16 -6 33 -11 38 -11 15 0 10 37
-7 44 -20 8 -17 8 -40 -8z"/>
<path d="M3764 3669 c-3 -6 -1 -16 4 -21 8 -8 11 -5 9 11 -1 24 -3 25 -13 10z"/>
<path d="M4530 3360 c0 -5 7 -10 16 -10 8 0 12 5 9 10 -3 6 -10 10 -16 10 -5
0 -9 -4 -9 -10z"/>
<path d="M4288 2963 c7 -3 16 -2 19 1 4 3 -2 6 -13 5 -11 0 -14 -3 -6 -6z"/>
<path d="M4420 1890 c0 -5 5 -10 11 -10 5 0 7 5 4 10 -3 6 -8 10 -11 10 -2 0
-4 -4 -4 -10z"/>
<path d="M6340 1635 c0 -8 4 -15 9 -15 5 0 11 7 15 15 3 9 0 15 -9 15 -8 0
-15 -7 -15 -15z"/>
<path d="M6607 85 c-7 -16 -10 -17 -17 -5 -7 12 -10 11 -16 -5 -13 -35 -81
-76 -93 -56 -4 5 -16 4 -31 -4 -23 -13 -18 -14 58 -15 l83 0 15 36 c8 20 14
43 12 52 -3 14 -5 14 -11 -3z"/>
</g>
</svg>
